<svg width="20" height="20" viewBox="0 0 20 20" fill="none" xmlns="http://www.w3.org/2000/svg">
<path fill-rule="evenodd" clip-rule="evenodd" d="M3.33333 4.91699C3.28731 4.91699 3.25 4.9543 3.25 5.00033V8.33366C3.25 8.37968 3.28731 8.41699 3.33333 8.41699H6.66667C6.71269 8.41699 6.75 8.37968 6.75 8.33366V5.00033C6.75 4.9543 6.71269 4.91699 6.66667 4.91699H3.33333ZM1.75 5.00033C1.75 4.12587 2.45888 3.41699 3.33333 3.41699H6.66667C7.54112 3.41699 8.25 4.12587 8.25 5.00033V8.33366C8.25 9.20811 7.54112 9.91699 6.66667 9.91699H3.33333C2.45888 9.91699 1.75 9.20811 1.75 8.33366V5.00033ZM10.0833 5.00033C10.0833 4.58611 10.4191 4.25033 10.8333 4.25033H17.5C17.9142 4.25033 18.25 4.58611 18.25 5.00033C18.25 5.41454 17.9142 5.75033 17.5 5.75033H10.8333C10.4191 5.75033 10.0833 5.41454 10.0833 5.00033ZM10.0833 10.0003C10.0833 9.58611 10.4191 9.25033 10.8333 9.25033H17.5C17.9142 9.25033 18.25 9.58611 18.25 10.0003C18.25 10.4145 17.9142 10.7503 17.5 10.7503H10.8333C10.4191 10.7503 10.0833 10.4145 10.0833 10.0003ZM8.03033 11.97C8.32322 12.2629 8.32322 12.7378 8.03033 13.0307L4.697 16.364C4.4041 16.6569 3.92923 16.6569 3.63634 16.364L1.96967 14.6973C1.67678 14.4044 1.67678 13.9296 1.96967 13.6367C2.26256 13.3438 2.73744 13.3438 3.03033 13.6367L4.16667 14.773L6.96967 11.97C7.26256 11.6771 7.73744 11.6771 8.03033 11.97ZM10.0833 15.0003C10.0833 14.5861 10.4191 14.2503 10.8333 14.2503H17.5C17.9142 14.2503 18.25 14.5861 18.25 15.0003C18.25 15.4145 17.9142 15.7503 17.5 15.7503H10.8333C10.4191 15.7503 10.0833 15.4145 10.0833 15.0003Z" fill="black"/>
</svg>
