<svg width="17" height="16" viewBox="0 0 17 16" fill="none" xmlns="http://www.w3.org/2000/svg">
<mask id="mask0_15978_26415" style="mask-type:alpha" maskUnits="userSpaceOnUse" x="0" y="0" width="17" height="16">
<rect x="0.5" width="16" height="16" fill="#D9D9D9"/>
</mask>
<g mask="url(#mask0_15978_26415)">
<path d="M6.42452 14.3768L5.25152 12.4385L3.04252 11.9435L3.24636 9.68467L1.74902 8L3.24636 6.31534L3.04252 4.0565L5.25152 3.5615L6.42452 1.62317L8.50019 2.509L10.5759 1.62317L11.7489 3.5615L13.9579 4.0565L13.754 6.31534L15.2514 8L13.754 9.68467L13.9579 11.9435L11.7489 12.4385L10.5759 14.3768L8.50019 13.491L6.42452 14.3768Z" fill="#1E7944"/>
</g>
<path fill-rule="evenodd" clip-rule="evenodd" d="M10.7069 5.84817C10.938 5.99929 11.0029 6.30916 10.8518 6.54028L8.58511 10.0069C8.50498 10.1295 8.37517 10.2108 8.22993 10.2293C8.08469 10.2478 7.93862 10.2018 7.83028 10.1033L6.36362 8.76996C6.15929 8.58421 6.14423 8.26798 6.32998 8.06366C6.51574 7.85933 6.83196 7.84427 7.03629 8.03002L8.06905 8.96889L10.0148 5.99303C10.1659 5.76191 10.4758 5.69706 10.7069 5.84817Z" fill="white"/>
</svg>
