<svg width="20" height="20" viewBox="0 0 20 20" fill="none" xmlns="http://www.w3.org/2000/svg">
<path fill-rule="evenodd" clip-rule="evenodd" d="M5.41683 2.41699C5.06321 2.41699 4.72407 2.55747 4.47402 2.80752C4.22397 3.05756 4.0835 3.3967 4.0835 3.75033V13.7503C4.49019 13.5334 4.9475 13.417 5.41683 13.417H15.9168V2.50033C15.9168 2.47822 15.908 2.45703 15.8924 2.4414C15.8768 2.42577 15.8556 2.41699 15.8335 2.41699H5.41683ZM17.4168 2.50033C17.4168 2.0804 17.25 1.67767 16.9531 1.38074C16.6561 1.08381 16.2534 0.916992 15.8335 0.916992H5.41683C4.66538 0.916992 3.94471 1.2155 3.41336 1.74686C2.88201 2.27821 2.5835 2.99888 2.5835 3.75033V16.2503C2.5835 17.0018 2.88201 17.7224 3.41336 18.2538C3.94471 18.7851 4.66538 19.0837 5.41683 19.0837H15.8335C16.2534 19.0837 16.6561 18.9168 16.9531 18.6199C17.25 18.323 17.4168 17.9202 17.4168 17.5003V2.50033ZM15.9168 14.917H5.41683C5.06321 14.917 4.72407 15.0575 4.47402 15.3075C4.22397 15.5576 4.0835 15.8967 4.0835 16.2503C4.0835 16.6039 4.22397 16.9431 4.47402 17.1931C4.72407 17.4432 5.06321 17.5837 5.41683 17.5837H15.8335C15.8556 17.5837 15.8768 17.5749 15.8924 17.5592C15.908 17.5436 15.9168 17.5224 15.9168 17.5003V14.917ZM10.0002 5.75033C9.4939 5.75033 9.0835 6.16073 9.0835 6.66699C9.0835 7.17325 9.4939 7.58366 10.0002 7.58366C10.5064 7.58366 10.9168 7.17325 10.9168 6.66699C10.9168 6.16073 10.5064 5.75033 10.0002 5.75033ZM11.8817 8.1837C12.2164 7.769 12.4168 7.2414 12.4168 6.66699C12.4168 5.3323 11.3349 4.25033 10.0002 4.25033C8.66547 4.25033 7.5835 5.3323 7.5835 6.66699C7.5835 7.2414 7.7839 7.769 8.1186 8.1837C7.9711 8.28842 7.83167 8.40595 7.70206 8.53556C7.09257 9.14505 6.75016 9.97171 6.75016 10.8337C6.75016 11.2479 7.08595 11.5837 7.50016 11.5837C7.91438 11.5837 8.25016 11.2479 8.25016 10.8337C8.25016 10.3695 8.43454 9.92441 8.76273 9.59622C9.09091 9.26803 9.53603 9.08366 10.0002 9.08366C10.4643 9.08366 10.9094 9.26803 11.2376 9.59622C11.5658 9.92441 11.7502 10.3695 11.7502 10.8337C11.7502 11.2479 12.0859 11.5837 12.5002 11.5837C12.9144 11.5837 13.2502 11.2479 13.2502 10.8337C13.2502 9.97171 12.9078 9.14505 12.2983 8.53556C12.1687 8.40595 12.0292 8.28842 11.8817 8.1837Z" fill="black"/>
</svg>
