<svg width="14" height="14" viewBox="0 0 14 14" fill="none" xmlns="http://www.w3.org/2000/svg">
<path d="M6.02912 9.44109L10.2464 5.24259L9.54981 4.54603L6.02912 8.04797L4.43537 6.47297L3.7388 7.16953L6.02912 9.44109ZM7.00112 13.8258C6.06562 13.8258 5.18305 13.6482 4.35343 13.2929C3.5238 12.9377 2.79768 12.4488 2.17505 11.8265C1.55243 11.2041 1.06337 10.4783 0.707867 9.64903C0.352492 8.81978 0.174805 7.93747 0.174805 7.00209C0.174805 6.05409 0.35243 5.16841 0.70768 4.34503C1.06293 3.52166 1.55174 2.79866 2.17412 2.17603C2.79649 1.55341 3.52231 1.06434 4.35156 0.708844C5.18081 0.353469 6.06312 0.175781 6.99849 0.175781C7.94649 0.175781 8.83218 0.353406 9.65556 0.708656C10.4789 1.06391 11.2019 1.55272 11.8246 2.17509C12.4472 2.79747 12.9362 3.52016 13.2917 4.34316C13.6471 5.16616 13.8248 6.05159 13.8248 6.99947C13.8248 7.93497 13.6472 8.81753 13.2919 9.64716C12.9367 10.4768 12.4479 11.2029 11.8255 11.8255C11.2031 12.4482 10.4804 12.9372 9.65743 13.2927C8.83443 13.6481 7.94899 13.8258 7.00112 13.8258Z" fill="#D9D9D9"/>
</svg>
