<svg width="20" height="20" viewBox="0 0 20 20" fill="none" xmlns="http://www.w3.org/2000/svg">
<path fill-rule="evenodd" clip-rule="evenodd" d="M5.41683 2.41699C5.06321 2.41699 4.72407 2.55747 4.47402 2.80752C4.22397 3.05756 4.0835 3.3967 4.0835 3.75033V13.7503C4.49019 13.5334 4.9475 13.417 5.41683 13.417H15.9168V2.50033C15.9168 2.47822 15.908 2.45703 15.8924 2.4414C15.8768 2.42577 15.8556 2.41699 15.8335 2.41699H5.41683ZM17.4168 2.50033C17.4168 2.0804 17.25 1.67767 16.9531 1.38074C16.6561 1.08381 16.2534 0.916992 15.8335 0.916992H5.41683C4.66538 0.916992 3.94471 1.2155 3.41336 1.74686C2.88201 2.27821 2.5835 2.99888 2.5835 3.75033V16.2503C2.5835 17.0018 2.88201 17.7224 3.41336 18.2538C3.94471 18.7851 4.66538 19.0837 5.41683 19.0837H15.8335C16.2534 19.0837 16.6561 18.9168 16.9531 18.6199C17.25 18.323 17.4168 17.9202 17.4168 17.5003V2.50033ZM15.9168 14.917H5.41683C5.06321 14.917 4.72407 15.0575 4.47402 15.3075C4.22397 15.5576 4.0835 15.8967 4.0835 16.2503C4.0835 16.6039 4.22397 16.9431 4.47402 17.1931C4.72407 17.4432 5.06321 17.5837 5.41683 17.5837H15.8335C15.8556 17.5837 15.8768 17.5749 15.8924 17.5592C15.908 17.5436 15.9168 17.5224 15.9168 17.5003V14.917ZM13.0305 5.72C13.3234 6.01289 13.3234 6.48776 13.0305 6.78066L9.69716 10.114C9.40427 10.4069 8.92939 10.4069 8.6365 10.114L6.96983 8.44732C6.67694 8.15443 6.67694 7.67955 6.96983 7.38666C7.26273 7.09377 7.7376 7.09377 8.03049 7.38666L9.16683 8.523L11.9698 5.72C12.2627 5.4271 12.7376 5.4271 13.0305 5.72Z" fill="black"/>
</svg>
