<svg width="18" height="18" viewBox="0 0 18 18" fill="none" xmlns="http://www.w3.org/2000/svg">
<mask id="mask0_19793_5270" style="mask-type:alpha" maskUnits="userSpaceOnUse" x="0" y="0" width="18" height="18">
<rect width="18" height="18" fill="#D9D9D9"/>
</mask>
<g mask="url(#mask0_19793_5270)">
<path d="M8.02936 11.4411L12.2466 7.24259L11.55 6.54603L8.02936 10.048L6.43561 8.47297L5.73905 9.16953L8.02936 11.4411ZM9.00136 15.8258C8.06586 15.8258 7.1833 15.6482 6.35367 15.2929C5.52405 14.9377 4.79792 14.4488 4.1753 13.8265C3.55267 13.2041 3.06361 12.4783 2.70811 11.649C2.35274 10.8198 2.17505 9.93747 2.17505 9.00209C2.17505 8.05409 2.35267 7.16841 2.70792 6.34503C3.06317 5.52166 3.55199 4.79866 4.17436 4.17603C4.79674 3.55341 5.52255 3.06434 6.3518 2.70884C7.18105 2.35347 8.06336 2.17578 8.99874 2.17578C9.94674 2.17578 10.8324 2.35341 11.6558 2.70866C12.4792 3.06391 13.2022 3.55272 13.8248 4.17509C14.4474 4.79747 14.9365 5.52016 15.292 6.34316C15.6474 7.16616 15.825 8.05159 15.825 8.99947C15.825 9.93497 15.6474 10.8175 15.2922 11.6472C14.9369 12.4768 14.4481 13.2029 13.8257 13.8255C13.2034 14.4482 12.4807 14.9372 11.6577 15.2927C10.8347 15.6481 9.94924 15.8258 9.00136 15.8258Z" fill="#1E7944"/>
</g>
</svg>
