<svg width="11" height="11" viewBox="0 0 11 11" fill="none" xmlns="http://www.w3.org/2000/svg">
<path fill-rule="evenodd" clip-rule="evenodd" d="M0.1875 5.5C0.1875 4.09104 0.747208 2.73978 1.7435 1.7435C2.73978 0.747208 4.09104 0.1875 5.5 0.1875C6.90896 0.1875 8.26022 0.747208 9.2565 1.7435C10.2528 2.73978 10.8125 4.09104 10.8125 5.5C10.8125 6.90896 10.2528 8.26022 9.2565 9.2565C8.26022 10.2528 6.90896 10.8125 5.5 10.8125C4.09104 10.8125 2.73978 10.2528 1.7435 9.2565C0.747208 8.26022 0.1875 6.90896 0.1875 5.5ZM5.96875 2.375C5.96875 2.25068 5.91936 2.13145 5.83146 2.04354C5.74355 1.95564 5.62432 1.90625 5.5 1.90625C5.37568 1.90625 5.25645 1.95564 5.16854 2.04354C5.08064 2.13145 5.03125 2.25068 5.03125 2.375V5.5C5.03122 5.57947 5.05139 5.65765 5.08987 5.72718C5.12836 5.79672 5.18389 5.85533 5.25125 5.8975L7.12625 7.06937C7.23167 7.13535 7.35899 7.15674 7.48018 7.12884C7.54019 7.11503 7.59689 7.08953 7.64705 7.05381C7.69721 7.01808 7.73983 6.97282 7.7725 6.92062C7.80517 6.86842 7.82723 6.8103 7.83743 6.74957C7.84764 6.68885 7.84578 6.6267 7.83197 6.56669C7.81815 6.50668 7.79266 6.44998 7.75693 6.39982C7.7212 6.34967 7.67595 6.30704 7.62375 6.27437L5.96875 5.24V2.375Z" fill="#FBC813"/>
</svg>
