<svg width="14" height="16" viewBox="0 0 14 16" fill="none" xmlns="http://www.w3.org/2000/svg">
<path d="M4.55008 12.582C4.17494 12.582 3.85786 12.4524 3.59883 12.1934C3.3398 11.9344 3.21029 11.6173 3.21029 11.2422V1.75507C3.21029 1.37994 3.3398 1.06285 3.59883 0.803825C3.85786 0.544798 4.17494 0.415283 4.55008 0.415283H12.0372C12.4123 0.415283 12.7294 0.544798 12.9884 0.803825C13.2474 1.06285 13.377 1.37994 13.377 1.75507V11.2422C13.377 11.6173 13.2474 11.9344 12.9884 12.1934C12.7294 12.4524 12.4123 12.582 12.0372 12.582H4.55008ZM4.55008 11.4986H12.0372C12.1013 11.4986 12.1601 11.4719 12.2134 11.4184C12.2669 11.3651 12.2936 11.3063 12.2936 11.2422V1.75507C12.2936 1.69091 12.2669 1.63216 12.2134 1.57882C12.1601 1.52535 12.1013 1.49862 12.0372 1.49862H4.55008C4.48591 1.49862 4.42716 1.52535 4.37383 1.57882C4.32036 1.63216 4.29362 1.69091 4.29362 1.75507V11.2422C4.29362 11.3063 4.32036 11.3651 4.37383 11.4184C4.42716 11.4719 4.48591 11.4986 4.55008 11.4986ZM1.96674 15.1653C1.59161 15.1653 1.27452 15.0358 1.01549 14.7767C0.756467 14.5177 0.626953 14.2006 0.626953 13.8255V3.25507H1.71029V13.8255C1.71029 13.8897 1.73702 13.9484 1.79049 14.0017C1.84383 14.0552 1.90258 14.082 1.96674 14.082H10.5372V15.1653H1.96674Z" fill="#348355"/>
</svg>
