<svg width="508" height="358" viewBox="0 0 508 358" fill="none" xmlns="http://www.w3.org/2000/svg">
<g clip-path="url(#clip0_15934_4221)">
<path d="M413.796 236.413C414.364 235.676 414.764 234.823 414.966 233.915C415.169 233.006 415.17 232.064 414.969 231.155C414.769 230.247 414.371 229.393 413.805 228.654C413.239 227.916 412.517 227.31 411.691 226.88L412.95 212.385L404.327 209.473L402.837 229.967C402.207 231.402 402.126 233.018 402.608 234.509C403.09 235.999 404.102 237.262 405.453 238.056C406.803 238.851 408.398 239.122 409.936 238.82C411.473 238.517 412.846 237.661 413.794 236.414L413.796 236.413Z" fill="#FFB8B8"/>
<path d="M456.819 349.107H449.06L445.368 319.164H456.825L456.819 349.107Z" fill="#FFB8B8"/>
<path d="M443.515 346.888H458.486V356.313H434.09C434.09 353.813 435.083 351.416 436.851 349.648C438.618 347.881 441.016 346.888 443.515 346.888Z" fill="#2F2E41"/>
<path d="M439.203 329.238L431.666 331.091L420.934 302.897L432.059 300.163L439.203 329.238Z" fill="#FFB8B8"/>
<path d="M425.858 329.991L440.394 326.414L442.647 335.566L418.958 341.396C418.361 338.969 418.752 336.404 420.046 334.265C421.34 332.126 423.431 330.589 425.858 329.991Z" fill="#2F2E41"/>
<path d="M447.737 339.559C447.029 339.561 446.344 339.299 445.817 338.825C445.29 338.351 444.958 337.698 444.886 336.993L435.956 253.784L428.183 279.229L439.192 318.972C439.381 319.653 439.312 320.38 438.998 321.014C438.684 321.648 438.148 322.143 437.491 322.405L428.739 325.906C428.378 326.05 427.993 326.119 427.605 326.11C427.217 326.101 426.835 326.013 426.482 325.852C426.128 325.692 425.812 325.461 425.55 325.174C425.289 324.887 425.088 324.55 424.96 324.184L411.47 285.476C409.993 281.25 409.339 276.78 409.545 272.308L411.428 230.535L461.022 232.635L460.248 335.986C460.239 336.705 459.962 337.396 459.47 337.921C458.979 338.447 458.309 338.77 457.592 338.828L447.961 339.554C447.886 339.557 447.811 339.559 447.737 339.559Z" fill="#2F2E41"/>
<path d="M439.523 138.087C448.734 138.087 456.2 130.621 456.2 121.411C456.2 112.201 448.734 104.734 439.523 104.734C430.313 104.734 422.847 112.201 422.847 121.411C422.847 130.621 430.313 138.087 439.523 138.087Z" fill="#FFB8B8"/>
<path d="M451.787 235.352C447.396 235.352 441.942 234.993 436.295 234.621C428.582 234.114 420.607 233.589 414.653 233.934C413.849 234.013 413.038 233.886 412.297 233.563C411.556 233.241 410.91 232.734 410.421 232.091C404.284 224.232 413.748 193.587 414.156 192.287L421.858 158.02C423.555 150.483 428.968 144.924 435.99 143.512C442.562 142.192 448.919 144.823 452.997 150.556C453.213 150.86 453.429 151.172 453.645 151.492C466.921 171.154 459.412 220.002 458.909 223.151C459.61 223.991 463.402 228.741 462.36 232.04C461.936 233.382 460.784 234.297 458.936 234.756C456.583 235.222 454.184 235.421 451.785 235.35L451.787 235.352Z" fill="#348355"/>
<path d="M414.921 235.367C413.411 235.367 411.373 234.809 408.626 233.669C407.445 233.178 403.852 231.683 408.214 193.561C410.357 174.834 413.427 156.238 413.458 156.053L413.487 155.874L413.652 155.799C413.731 155.763 421.571 152.17 422.934 147.552C422.979 147.392 423.032 147.237 423.093 147.087C423.468 146.061 424.225 145.219 425.206 144.737C426.187 144.255 427.316 144.171 428.358 144.501C429.458 144.764 430.417 145.436 431.04 146.38C431.664 147.325 431.904 148.471 431.713 149.586C431.239 152.598 430.326 155.524 429.003 158.271C425.315 165.883 422.815 186.061 422.791 186.264C422.65 187.987 419.302 228.817 418.657 231.915C418.432 232.997 418.018 234.321 416.801 234.964C416.218 235.251 415.573 235.391 414.923 235.371L414.921 235.367Z" fill="#2F2E41"/>
<path d="M433.139 233.803C432.834 233.803 432.538 233.701 432.298 233.514C427.391 229.786 435.331 184.593 440.038 169C440.981 165.877 441.82 163.204 442.534 161.052C443.834 157.191 444.741 153.209 445.242 149.166C445.502 146.975 446.065 145.725 446.965 145.341C447.59 145.074 448.323 145.255 449.151 145.879C453.502 145.665 457.728 147.441 461.645 149.397L465.17 151.156L469.126 221.192C469.014 225.662 460.203 228.817 456.361 229.019C450.19 229.343 439.108 230.347 434.226 233.438C433.906 233.661 433.529 233.787 433.14 233.802L433.139 233.803Z" fill="#2F2E41"/>
<path d="M411.102 220.662C411.044 220.662 410.985 220.662 410.926 220.656L402.936 220.165C402.538 220.14 402.15 220.033 401.795 219.851C401.441 219.668 401.129 219.414 400.878 219.104C400.628 218.794 400.445 218.435 400.34 218.05C400.236 217.666 400.213 217.264 400.272 216.87L403.888 192.916L410.694 159.306C410.862 158.478 411.201 157.695 411.691 157.007C412.181 156.319 412.81 155.741 413.537 155.312C414.265 154.882 415.074 154.61 415.913 154.514C416.753 154.417 417.603 154.498 418.408 154.751C419.786 155.191 420.961 156.108 421.722 157.338C422.482 158.568 422.778 160.03 422.556 161.459L417.148 195.136L413.947 218.185C413.849 218.871 413.507 219.498 412.985 219.953C412.462 220.407 411.794 220.659 411.102 220.662Z" fill="#2F2E41"/>
<path d="M438.398 194.443C438.885 193.65 439.54 192.973 440.317 192.461C441.095 191.948 441.974 191.613 442.895 191.477C443.816 191.342 444.756 191.41 445.647 191.677C446.539 191.943 447.361 192.402 448.056 193.021L461.157 186.693L466.945 193.717L448.318 202.393C447.201 203.492 445.719 204.143 444.154 204.222C442.589 204.302 441.05 203.804 439.827 202.824C438.604 201.844 437.783 200.45 437.52 198.905C437.256 197.36 437.569 195.772 438.398 194.443Z" fill="#FFB8B8"/>
<path d="M456.597 201.239C455.952 201.239 455.326 201.022 454.819 200.623C454.313 200.223 453.955 199.665 453.804 199.038L451.903 191.128C451.758 190.533 451.807 189.907 452.044 189.343C452.282 188.778 452.694 188.305 453.22 187.992L464.695 181.123L458.829 159.644C458.321 157.805 458.554 155.84 459.477 154.17C460.4 152.5 461.94 151.258 463.768 150.71C465.595 150.161 467.565 150.35 469.255 151.235C470.945 152.121 472.222 153.633 472.811 155.448L479.288 175.223C480.083 177.634 480.09 180.235 479.306 182.649C478.522 185.064 476.988 187.165 474.928 188.648L458.279 200.694C457.79 201.048 457.202 201.239 456.597 201.239Z" fill="#2F2E41"/>
<path d="M332.615 0H11.3254C8.32282 0.00359376 5.44425 1.19796 3.3211 3.32111C1.19795 5.44426 0.00359376 8.32283 0 11.3254V45.8992C0.00359376 48.9017 1.19795 51.7803 3.3211 53.9035C5.44425 56.0266 8.32282 57.221 11.3254 57.2246H332.615C335.618 57.221 338.497 56.0266 340.62 53.9035C342.743 51.7803 343.937 48.9017 343.941 45.8992V11.3254C343.937 8.32283 342.743 5.44426 340.62 3.32111C338.497 1.19796 335.618 0.00359376 332.615 0ZM342.748 45.8992C342.745 48.5854 341.676 51.1605 339.776 53.06C337.877 54.9595 335.302 56.0283 332.615 56.0323H11.3254C8.63915 56.0283 6.06405 54.9595 4.16457 53.06C2.2651 51.1605 1.19624 48.5854 1.19229 45.8992V11.3254C1.19624 8.63915 2.2651 6.06405 4.16457 4.16458C6.06405 2.2651 8.63915 1.19624 11.3254 1.19229H332.615C335.302 1.19624 337.877 2.2651 339.776 4.16458C341.676 6.06405 342.745 8.63915 342.748 11.3254V45.8992Z" fill="#3F3D56"/>
<path d="M332.615 138.887H11.3254C8.32282 138.884 5.44425 137.689 3.3211 135.566C1.19795 133.443 0.00359376 130.565 0 127.562V92.989C0.00359376 89.9864 1.19795 87.1078 3.3211 84.9847C5.44425 82.8615 8.32282 81.6672 11.3254 81.6636H332.615C335.618 81.6672 338.497 82.8615 340.62 84.9847C342.743 87.1078 343.937 89.9864 343.941 92.989V127.562C343.937 130.565 342.743 133.443 340.62 135.566C338.497 137.689 335.618 138.884 332.615 138.887ZM11.3254 82.8559C8.63887 82.8589 6.06326 83.9275 4.16359 85.8272C2.26392 87.7268 1.19534 90.3025 1.19229 92.989V127.562C1.19481 130.249 2.26314 132.825 4.16286 134.725C6.06259 136.625 8.63852 137.694 11.3254 137.697H332.615C335.302 137.694 337.878 136.626 339.778 134.726C341.677 132.826 342.746 130.251 342.749 127.564V92.989C342.746 90.3025 341.678 87.7268 339.778 85.8272C337.878 83.9275 335.303 82.8589 332.616 82.8559H11.3254Z" fill="#CCCCCC"/>
<path d="M332.615 220.552H11.3254C8.32282 220.548 5.44425 219.354 3.3211 217.23C1.19795 215.107 0.00359376 212.229 0 209.226V174.653C0.00359376 171.65 1.19795 168.772 3.3211 166.649C5.44425 164.526 8.32282 163.331 11.3254 163.328H332.615C335.618 163.331 338.497 164.526 340.62 166.649C342.743 168.772 343.937 171.65 343.941 174.653V209.226C343.937 212.229 342.743 215.107 340.62 217.23C338.497 219.354 335.618 220.548 332.615 220.552ZM11.3254 164.517C8.63887 164.52 6.06326 165.589 4.16359 167.489C2.26392 169.388 1.19534 171.964 1.19229 174.65V209.223C1.19516 211.91 2.26367 214.486 4.16335 216.386C6.06304 218.285 8.63876 219.354 11.3254 219.357H332.615C335.302 219.354 337.878 218.286 339.778 216.386C341.677 214.486 342.746 211.911 342.749 209.224V174.653C342.747 171.966 341.678 169.39 339.779 167.489C337.879 165.589 335.303 164.52 332.615 164.517H11.3254Z" fill="#CCCCCC"/>
<path d="M54.7388 48.3243C50.8401 48.3243 47.029 47.1682 43.7873 45.0022C40.5457 42.8362 38.0191 39.7576 36.5271 36.1556C35.0352 32.5537 34.6448 28.5902 35.4054 24.7664C36.166 20.9427 38.0434 17.4303 40.8002 14.6735C43.557 11.9167 47.0694 10.0393 50.8932 9.27868C54.7169 8.51808 58.6804 8.90844 62.2823 10.4004C65.8843 11.8924 68.9629 14.4189 71.1289 17.6606C73.2949 20.9022 74.451 24.7134 74.451 28.6121C74.451 33.8401 72.3742 38.854 68.6774 42.5507C64.9807 46.2475 59.9668 48.3243 54.7388 48.3243Z" fill="#348355"/>
<path d="M303.512 44.7061H93.0952C91.8305 44.7061 90.6175 44.2037 89.7232 43.3093C88.8289 42.415 88.3264 41.2021 88.3264 39.9373C88.3264 38.6725 88.8289 37.4595 89.7232 36.5652C90.6175 35.6709 91.8305 35.1685 93.0952 35.1685H303.512C304.776 35.1685 305.989 35.6709 306.884 36.5652C307.778 37.4595 308.28 38.6725 308.28 39.9373C308.28 41.2021 307.778 42.415 306.884 43.3093C305.989 44.2037 304.776 44.7061 303.512 44.7061Z" fill="#CCCCCC"/>
<path d="M234.958 24.4395H93.0904C91.8256 24.4395 90.6126 23.9371 89.7183 23.0427C88.824 22.1484 88.3215 20.9355 88.3215 19.6707C88.3215 18.4059 88.824 17.1929 89.7183 16.2986C90.6126 15.4043 91.8256 14.9019 93.0904 14.9019H234.958C236.223 14.9019 237.436 15.4043 238.33 16.2986C239.224 17.1929 239.727 18.4059 239.727 19.6707C239.727 20.9355 239.224 22.1484 238.33 23.0427C237.436 23.9371 236.223 24.4395 234.958 24.4395Z" fill="#CCCCCC"/>
<path d="M54.7388 129.987C50.8401 129.987 47.029 128.831 43.7873 126.665C40.5457 124.499 38.0191 121.421 36.5271 117.819C35.0352 114.217 34.6448 110.253 35.4054 106.43C36.166 102.606 38.0434 99.0934 40.8002 96.3366C43.557 93.5798 47.0694 91.7024 50.8932 90.9418C54.7169 90.1812 58.6804 90.5715 62.2823 92.0635C65.8843 93.5555 68.9629 96.082 71.1289 99.3237C73.2949 102.565 74.451 106.376 74.451 110.275C74.451 115.503 72.3742 120.517 68.6774 124.214C64.9807 127.911 59.9668 129.987 54.7388 129.987Z" fill="#E6E6E6"/>
<path d="M303.512 126.37H93.0952C91.8305 126.37 90.6175 125.868 89.7232 124.973C88.8289 124.079 88.3264 122.866 88.3264 121.601C88.3264 120.337 88.8289 119.124 89.7232 118.229C90.6175 117.335 91.8305 116.833 93.0952 116.833H303.512C304.776 116.833 305.989 117.335 306.884 118.229C307.778 119.124 308.28 120.337 308.28 121.601C308.28 122.866 307.778 124.079 306.884 124.973C305.989 125.868 304.776 126.37 303.512 126.37Z" fill="#E6E6E6"/>
<path d="M234.958 106.103H93.0904C91.8256 106.103 90.6126 105.601 89.7183 104.706C88.824 103.812 88.3215 102.599 88.3215 101.334C88.3215 100.069 88.824 98.8565 89.7183 97.9622C90.6126 97.0679 91.8256 96.5654 93.0904 96.5654H234.958C236.223 96.5654 237.436 97.0679 238.33 97.9622C239.224 98.8565 239.727 100.069 239.727 101.334C239.727 102.599 239.224 103.812 238.33 104.706C237.436 105.601 236.223 106.103 234.958 106.103Z" fill="#E6E6E6"/>
<path d="M54.7388 211.651C50.8401 211.651 47.029 210.495 43.7873 208.329C40.5457 206.163 38.0191 203.085 36.5271 199.483C35.0352 195.881 34.6448 191.917 35.4054 188.094C36.166 184.27 38.0434 180.757 40.8002 178.001C43.557 175.244 47.0694 173.366 50.8932 172.606C54.7169 171.845 58.6804 172.236 62.2823 173.728C65.8843 175.22 68.9629 177.746 71.1289 180.988C73.2949 184.229 74.451 188.041 74.451 191.939C74.451 197.167 72.3742 202.181 68.6774 205.878C64.9807 209.575 59.9668 211.651 54.7388 211.651Z" fill="#E6E6E6"/>
<path d="M303.512 208.034H93.0952C91.8305 208.034 90.6175 207.531 89.7232 206.637C88.8289 205.743 88.3264 204.53 88.3264 203.265C88.3264 202 88.8289 200.787 89.7232 199.893C90.6175 198.999 91.8305 198.496 93.0952 198.496H303.512C304.776 198.496 305.989 198.999 306.884 199.893C307.778 200.787 308.28 202 308.28 203.265C308.28 204.53 307.778 205.743 306.884 206.637C305.989 207.531 304.776 208.034 303.512 208.034Z" fill="#E6E6E6"/>
<path d="M234.958 187.767H93.0904C91.8256 187.767 90.6126 187.265 89.7183 186.37C88.824 185.476 88.3215 184.263 88.3215 182.998C88.3215 181.734 88.824 180.521 89.7183 179.626C90.6126 178.732 91.8256 178.229 93.0904 178.229H234.958C236.223 178.229 237.436 178.732 238.33 179.626C239.224 180.521 239.727 181.734 239.727 182.998C239.727 184.263 239.224 185.476 238.33 186.37C237.436 187.265 236.223 187.767 234.958 187.767Z" fill="#E6E6E6"/>
<path d="M53.7325 35.5459C53.2429 35.5471 52.7662 35.3888 52.3745 35.0951L52.3501 35.0768L47.2407 31.1685C47.0041 30.9871 46.8055 30.7609 46.6563 30.5027C46.5071 30.2446 46.4102 29.9596 46.3711 29.664C46.3321 29.3684 46.3516 29.068 46.4286 28.7799C46.5057 28.4918 46.6387 28.2218 46.8201 27.9851C47.0015 27.7485 47.2278 27.5499 47.4859 27.4007C47.7441 27.2515 48.0291 27.1546 48.3247 27.1155C48.6203 27.0765 48.9207 27.096 49.2088 27.173C49.4968 27.2501 49.7669 27.3831 50.0035 27.5645L53.3129 30.1026L61.1327 19.9002C61.499 19.4226 62.0399 19.1101 62.6365 19.0313C63.2332 18.9525 63.8367 19.1138 64.3144 19.4799L64.2662 19.5478L64.3158 19.4799C64.7928 19.8467 65.1048 20.3877 65.1835 20.9843C65.2622 21.5809 65.101 22.1843 64.7354 22.6623L55.5372 34.6572C55.3241 34.933 55.0503 35.1561 54.7372 35.3092C54.424 35.4623 54.0797 35.5412 53.7311 35.5398L53.7325 35.5459Z" fill="white"/>
<path d="M506.941 357.145H372.503C372.323 357.145 372.15 357.073 372.023 356.946C371.895 356.818 371.824 356.646 371.824 356.466C371.824 356.286 371.895 356.113 372.023 355.986C372.15 355.858 372.323 355.787 372.503 355.787H506.941C507.121 355.787 507.294 355.858 507.421 355.986C507.549 356.113 507.62 356.286 507.62 356.466C507.62 356.646 507.549 356.818 507.421 356.946C507.294 357.073 507.121 357.145 506.941 357.145Z" fill="#CCCCCC"/>
<path d="M445.654 125.856C445.654 125.856 443.625 114.635 439.007 115.976C434.389 117.316 422.505 118.688 422.483 113.403C422.461 108.119 433.67 103.448 440.278 104.08C446.886 104.712 458.123 106.646 457.505 116.557C457.01 122.8 455.08 128.843 451.867 134.218L445.654 125.856Z" fill="#2F2E41"/>
</g>
<defs>
<clipPath id="clip0_15934_4221">
<rect width="507.62" height="357.144" fill="white"/>
</clipPath>
</defs>
</svg>
