<svg width="468" height="97" viewBox="0 0 468 97" fill="none" xmlns="http://www.w3.org/2000/svg">
<path d="M15.904 21.7435H7.008L5.536 25.9995H0.832L8.864 3.63151H14.08L22.112 25.9995H17.376L15.904 21.7435ZM14.688 18.1595L11.456 8.81551L8.224 18.1595H14.688ZM41.8503 8.27151V25.9995H37.3383V23.7595C36.7623 24.5275 36.0049 25.1355 35.0663 25.5835C34.1489 26.0102 33.1463 26.2235 32.0583 26.2235C30.6716 26.2235 29.4449 25.9355 28.3783 25.3595C27.3116 24.7622 26.4689 23.8982 25.8503 22.7675C25.2529 21.6155 24.9543 20.2502 24.9543 18.6715V8.27151H29.4343V18.0315C29.4343 19.4395 29.7863 20.5275 30.4903 21.2955C31.1943 22.0422 32.1543 22.4155 33.3703 22.4155C34.6076 22.4155 35.5783 22.0422 36.2823 21.2955C36.9863 20.5275 37.3383 19.4395 37.3383 18.0315V8.27151H41.8503ZM51.4865 11.9515V20.5275C51.4865 21.1248 51.6252 21.5622 51.9025 21.8395C52.2012 22.0955 52.6918 22.2235 53.3745 22.2235H55.4545V25.9995H52.6385C48.8625 25.9995 46.9745 24.1648 46.9745 20.4955V11.9515H44.8625V8.27151H46.9745V3.88751H51.4865V8.27151H55.4545V11.9515H51.4865ZM66.5488 26.2875C64.8421 26.2875 63.3061 25.9142 61.9408 25.1675C60.5754 24.3995 59.4981 23.3222 58.7088 21.9355C57.9408 20.5488 57.5568 18.9488 57.5568 17.1355C57.5568 15.3222 57.9514 13.7222 58.7408 12.3355C59.5514 10.9488 60.6501 9.88218 62.0368 9.13551C63.4234 8.36751 64.9701 7.98351 66.6768 7.98351C68.3834 7.98351 69.9301 8.36751 71.3168 9.13551C72.7034 9.88218 73.7914 10.9488 74.5808 12.3355C75.3914 13.7222 75.7968 15.3222 75.7968 17.1355C75.7968 18.9488 75.3808 20.5488 74.5487 21.9355C73.7381 23.3222 72.6288 24.3995 71.2208 25.1675C69.8341 25.9142 68.2768 26.2875 66.5488 26.2875ZM66.5488 22.3835C67.3594 22.3835 68.1168 22.1915 68.8208 21.8075C69.5461 21.4022 70.1221 20.8048 70.5488 20.0155C70.9754 19.2262 71.1888 18.2662 71.1888 17.1355C71.1888 15.4502 70.7408 14.1595 69.8448 13.2635C68.9701 12.3462 67.8928 11.8875 66.6128 11.8875C65.3328 11.8875 64.2554 12.3462 63.3808 13.2635C62.5274 14.1595 62.1008 15.4502 62.1008 17.1355C62.1008 18.8208 62.5168 20.1222 63.3488 21.0395C64.2021 21.9355 65.2688 22.3835 66.5488 22.3835ZM101.099 8.01551C103.275 8.01551 105.024 8.68751 106.347 10.0315C107.691 11.3542 108.363 13.2102 108.363 15.5995V25.9995H103.883V16.2075C103.883 14.8208 103.531 13.7648 102.827 13.0395C102.123 12.2928 101.163 11.9195 99.947 11.9195C98.731 11.9195 97.7603 12.2928 97.035 13.0395C96.331 13.7648 95.979 14.8208 95.979 16.2075V25.9995H91.499V16.2075C91.499 14.8208 91.147 13.7648 90.443 13.0395C89.739 12.2928 88.779 11.9195 87.563 11.9195C86.3257 11.9195 85.3443 12.2928 84.619 13.0395C83.915 13.7648 83.563 14.8208 83.563 16.2075V25.9995H79.083V8.27151H83.563V10.4155C84.139 9.66884 84.875 9.08218 85.771 8.65551C86.6883 8.22884 87.691 8.01551 88.779 8.01551C90.1657 8.01551 91.403 8.31418 92.491 8.91151C93.579 9.48751 94.4217 10.3195 95.019 11.4075C95.595 10.3835 96.427 9.56218 97.515 8.94351C98.6243 8.32484 99.819 8.01551 101.099 8.01551ZM111.462 17.0715C111.462 15.2795 111.814 13.6902 112.518 12.3035C113.244 10.9168 114.214 9.85018 115.43 9.10351C116.668 8.35684 118.044 7.98351 119.558 7.98351C120.881 7.98351 122.033 8.25018 123.014 8.78351C124.017 9.31684 124.817 9.98884 125.414 10.7995V8.27151H129.926V25.9995H125.414V23.4075C124.838 24.2395 124.038 24.9328 123.014 25.4875C122.012 26.0208 120.849 26.2875 119.526 26.2875C118.033 26.2875 116.668 25.9035 115.43 25.1355C114.214 24.3675 113.244 23.2902 112.518 21.9035C111.814 20.4955 111.462 18.8848 111.462 17.0715ZM125.414 17.1355C125.414 16.0475 125.201 15.1195 124.774 14.3515C124.348 13.5622 123.772 12.9648 123.046 12.5595C122.321 12.1328 121.542 11.9195 120.71 11.9195C119.878 11.9195 119.11 12.1222 118.406 12.5275C117.702 12.9328 117.126 13.5302 116.678 14.3195C116.252 15.0875 116.038 16.0048 116.038 17.0715C116.038 18.1382 116.252 19.0768 116.678 19.8875C117.126 20.6768 117.702 21.2848 118.406 21.7115C119.132 22.1382 119.9 22.3515 120.71 22.3515C121.542 22.3515 122.321 22.1488 123.046 21.7435C123.772 21.3168 124.348 20.7195 124.774 19.9515C125.201 19.1622 125.414 18.2235 125.414 17.1355ZM139.518 11.9515V20.5275C139.518 21.1248 139.656 21.5622 139.934 21.8395C140.232 22.0955 140.723 22.2235 141.406 22.2235H143.486V25.9995H140.67C136.894 25.9995 135.006 24.1648 135.006 20.4955V11.9515H132.894V8.27151H135.006V3.88751H139.518V8.27151H143.486V11.9515H139.518ZM163.188 16.7515C163.188 17.3915 163.145 17.9675 163.06 18.4795H150.1C150.207 19.7595 150.655 20.7622 151.444 21.4875C152.233 22.2128 153.204 22.5755 154.356 22.5755C156.02 22.5755 157.204 21.8608 157.908 20.4315H162.74C162.228 22.1382 161.247 23.5462 159.796 24.6555C158.345 25.7435 156.564 26.2875 154.452 26.2875C152.745 26.2875 151.209 25.9142 149.844 25.1675C148.5 24.3995 147.444 23.3222 146.676 21.9355C145.929 20.5488 145.556 18.9488 145.556 17.1355C145.556 15.3008 145.929 13.6902 146.676 12.3035C147.423 10.9168 148.468 9.85018 149.812 9.10351C151.156 8.35684 152.703 7.98351 154.452 7.98351C156.137 7.98351 157.641 8.34618 158.964 9.07151C160.308 9.79684 161.343 10.8315 162.068 12.1755C162.815 13.4982 163.188 15.0235 163.188 16.7515ZM158.548 15.4715C158.527 14.3195 158.111 13.4022 157.3 12.7195C156.489 12.0155 155.497 11.6635 154.324 11.6635C153.215 11.6635 152.276 12.0048 151.508 12.6875C150.761 13.3488 150.303 14.2768 150.132 15.4715H158.548ZM165.306 17.0715C165.306 15.2795 165.658 13.6902 166.362 12.3035C167.087 10.9168 168.069 9.85018 169.306 9.10351C170.543 8.35684 171.919 7.98351 173.434 7.98351C174.586 7.98351 175.685 8.23951 176.73 8.75151C177.775 9.24218 178.607 9.90351 179.226 10.7355V2.31951H183.77V25.9995H179.226V23.3755C178.671 24.2502 177.893 24.9542 176.89 25.4875C175.887 26.0208 174.725 26.2875 173.402 26.2875C171.909 26.2875 170.543 25.9035 169.306 25.1355C168.069 24.3675 167.087 23.2902 166.362 21.9035C165.658 20.4955 165.306 18.8848 165.306 17.0715ZM179.258 17.1355C179.258 16.0475 179.045 15.1195 178.618 14.3515C178.191 13.5622 177.615 12.9648 176.89 12.5595C176.165 12.1328 175.386 11.9195 174.554 11.9195C173.722 11.9195 172.954 12.1222 172.25 12.5275C171.546 12.9328 170.97 13.5302 170.522 14.3195C170.095 15.0875 169.882 16.0048 169.882 17.0715C169.882 18.1382 170.095 19.0768 170.522 19.8875C170.97 20.6768 171.546 21.2848 172.25 21.7115C172.975 22.1382 173.743 22.3515 174.554 22.3515C175.386 22.3515 176.165 22.1488 176.89 21.7435C177.615 21.3168 178.191 20.7195 178.618 19.9515C179.045 19.1622 179.258 18.2235 179.258 17.1355Z" fill="#348355"/>
<path d="M200.251 3.66351V25.9995H195.771V3.66351H200.251ZM214.501 8.01551C216.613 8.01551 218.319 8.68751 219.621 10.0315C220.922 11.3542 221.573 13.2102 221.573 15.5995V25.9995H217.093V16.2075C217.093 14.7995 216.741 13.7222 216.037 12.9755C215.333 12.2075 214.373 11.8235 213.157 11.8235C211.919 11.8235 210.938 12.2075 210.213 12.9755C209.509 13.7222 209.157 14.7995 209.157 16.2075V25.9995H204.677V8.27151H209.157V10.4795C209.754 9.71151 210.511 9.11418 211.429 8.68751C212.367 8.23951 213.391 8.01551 214.501 8.01551ZM233.225 21.8715L237.705 8.27151H242.473L235.913 25.9995H230.473L223.945 8.27151H228.745L233.225 21.8715ZM252.861 26.2875C251.155 26.2875 249.619 25.9142 248.253 25.1675C246.888 24.3995 245.811 23.3222 245.021 21.9355C244.253 20.5488 243.869 18.9488 243.869 17.1355C243.869 15.3222 244.264 13.7222 245.053 12.3355C245.864 10.9488 246.963 9.88218 248.349 9.13551C249.736 8.36751 251.283 7.98351 252.989 7.98351C254.696 7.98351 256.243 8.36751 257.629 9.13551C259.016 9.88218 260.104 10.9488 260.893 12.3355C261.704 13.7222 262.109 15.3222 262.109 17.1355C262.109 18.9488 261.693 20.5488 260.861 21.9355C260.051 23.3222 258.941 24.3995 257.533 25.1675C256.147 25.9142 254.589 26.2875 252.861 26.2875ZM252.861 22.3835C253.672 22.3835 254.429 22.1915 255.133 21.8075C255.859 21.4022 256.435 20.8048 256.861 20.0155C257.288 19.2262 257.501 18.2662 257.501 17.1355C257.501 15.4502 257.053 14.1595 256.157 13.2635C255.283 12.3462 254.205 11.8875 252.925 11.8875C251.645 11.8875 250.568 12.3462 249.693 13.2635C248.84 14.1595 248.413 15.4502 248.413 17.1355C248.413 18.8208 248.829 20.1222 249.661 21.0395C250.515 21.9355 251.581 22.3835 252.861 22.3835ZM267.668 6.15951C266.878 6.15951 266.217 5.91418 265.684 5.42351C265.172 4.91151 264.916 4.28218 264.916 3.53551C264.916 2.78884 265.172 2.17018 265.684 1.67951C266.217 1.16751 266.878 0.91151 267.668 0.91151C268.457 0.91151 269.108 1.16751 269.62 1.67951C270.153 2.17018 270.42 2.78884 270.42 3.53551C270.42 4.28218 270.153 4.91151 269.62 5.42351C269.108 5.91418 268.457 6.15951 267.668 6.15951ZM269.876 8.27151V25.9995H265.396V8.27151H269.876ZM273.15 17.1355C273.15 15.3008 273.523 13.7008 274.27 12.3355C275.016 10.9488 276.051 9.88218 277.374 9.13551C278.696 8.36751 280.211 7.98351 281.918 7.98351C284.115 7.98351 285.928 8.53818 287.358 9.64751C288.808 10.7355 289.779 12.2715 290.27 14.2555H285.438C285.182 13.4875 284.744 12.8902 284.126 12.4635C283.528 12.0155 282.782 11.7915 281.886 11.7915C280.606 11.7915 279.592 12.2608 278.846 13.1995C278.099 14.1168 277.726 15.4288 277.726 17.1355C277.726 18.8208 278.099 20.1328 278.846 21.0715C279.592 21.9888 280.606 22.4475 281.886 22.4475C283.699 22.4475 284.883 21.6368 285.438 20.0155H290.27C289.779 21.9355 288.808 23.4608 287.358 24.5915C285.907 25.7222 284.094 26.2875 281.918 26.2875C280.211 26.2875 278.696 25.9142 277.374 25.1675C276.051 24.3995 275.016 23.3328 274.27 21.9675C273.523 20.5808 273.15 18.9702 273.15 17.1355ZM310.032 16.7515C310.032 17.3915 309.989 17.9675 309.904 18.4795H296.944C297.05 19.7595 297.498 20.7622 298.288 21.4875C299.077 22.2128 300.048 22.5755 301.2 22.5755C302.864 22.5755 304.048 21.8608 304.752 20.4315H309.584C309.072 22.1382 308.09 23.5462 306.64 24.6555C305.189 25.7435 303.408 26.2875 301.296 26.2875C299.589 26.2875 298.053 25.9142 296.688 25.1675C295.344 24.3995 294.288 23.3222 293.52 21.9355C292.773 20.5488 292.4 18.9488 292.4 17.1355C292.4 15.3008 292.773 13.6902 293.52 12.3035C294.266 10.9168 295.312 9.85018 296.656 9.10351C298 8.35684 299.546 7.98351 301.296 7.98351C302.981 7.98351 304.485 8.34618 305.808 9.07151C307.152 9.79684 308.186 10.8315 308.912 12.1755C309.658 13.4982 310.032 15.0235 310.032 16.7515ZM305.392 15.4715C305.37 14.3195 304.954 13.4022 304.144 12.7195C303.333 12.0155 302.341 11.6635 301.168 11.6635C300.058 11.6635 299.12 12.0048 298.352 12.6875C297.605 13.3488 297.146 14.2768 296.976 15.4715H305.392ZM328.639 26.2235C327.081 26.2235 325.673 25.9568 324.415 25.4235C323.177 24.8902 322.196 24.1222 321.471 23.1195C320.745 22.1168 320.372 20.9328 320.351 19.5675H325.151C325.215 20.4848 325.535 21.2102 326.111 21.7435C326.708 22.2768 327.519 22.5435 328.543 22.5435C329.588 22.5435 330.409 22.2982 331.007 21.8075C331.604 21.2955 331.903 20.6342 331.903 19.8235C331.903 19.1622 331.7 18.6182 331.295 18.1915C330.889 17.7648 330.377 17.4342 329.759 17.1995C329.161 16.9435 328.329 16.6662 327.263 16.3675C325.812 15.9408 324.628 15.5248 323.711 15.1195C322.815 14.6928 322.036 14.0635 321.375 13.2315C320.735 12.3782 320.415 11.2475 320.415 9.83951C320.415 8.51684 320.745 7.36484 321.407 6.38351C322.068 5.40218 322.996 4.65551 324.191 4.14351C325.385 3.61018 326.751 3.34351 328.287 3.34351C330.591 3.34351 332.457 3.90884 333.887 5.03951C335.337 6.14884 336.137 7.70618 336.287 9.71151H331.359C331.316 8.94351 330.985 8.31418 330.367 7.82351C329.769 7.31151 328.969 7.05551 327.967 7.05551C327.092 7.05551 326.388 7.27951 325.855 7.72751C325.343 8.17551 325.087 8.82618 325.087 9.67951C325.087 10.2768 325.279 10.7782 325.663 11.1835C326.068 11.5675 326.559 11.8875 327.135 12.1435C327.732 12.3782 328.564 12.6555 329.631 12.9755C331.081 13.4022 332.265 13.8288 333.183 14.2555C334.1 14.6822 334.889 15.3222 335.551 16.1755C336.212 17.0288 336.543 18.1488 336.543 19.5355C336.543 20.7302 336.233 21.8395 335.615 22.8635C334.996 23.8875 334.089 24.7088 332.895 25.3275C331.7 25.9248 330.281 26.2235 328.639 26.2235ZM348.299 26.2875C346.592 26.2875 345.056 25.9142 343.691 25.1675C342.325 24.3995 341.248 23.3222 340.459 21.9355C339.691 20.5488 339.307 18.9488 339.307 17.1355C339.307 15.3222 339.701 13.7222 340.491 12.3355C341.301 10.9488 342.4 9.88218 343.787 9.13551C345.173 8.36751 346.72 7.98351 348.427 7.98351C350.133 7.98351 351.68 8.36751 353.067 9.13551C354.453 9.88218 355.541 10.9488 356.331 12.3355C357.141 13.7222 357.547 15.3222 357.547 17.1355C357.547 18.9488 357.131 20.5488 356.299 21.9355C355.488 23.3222 354.379 24.3995 352.971 25.1675C351.584 25.9142 350.027 26.2875 348.299 26.2875ZM348.299 22.3835C349.109 22.3835 349.867 22.1915 350.571 21.8075C351.296 21.4022 351.872 20.8048 352.299 20.0155C352.725 19.2262 352.939 18.2662 352.939 17.1355C352.939 15.4502 352.491 14.1595 351.595 13.2635C350.72 12.3462 349.643 11.8875 348.363 11.8875C347.083 11.8875 346.005 12.3462 345.131 13.2635C344.277 14.1595 343.851 15.4502 343.851 17.1355C343.851 18.8208 344.267 20.1222 345.099 21.0395C345.952 21.9355 347.019 22.3835 348.299 22.3835ZM365.313 2.31951V25.9995H360.833V2.31951H365.313ZM386.475 8.27151V25.9995H381.963V23.7595C381.387 24.5275 380.63 25.1355 379.691 25.5835C378.774 26.0102 377.771 26.2235 376.683 26.2235C375.297 26.2235 374.07 25.9355 373.003 25.3595C371.937 24.7622 371.094 23.8982 370.475 22.7675C369.878 21.6155 369.579 20.2502 369.579 18.6715V8.27151H374.059V18.0315C374.059 19.4395 374.411 20.5275 375.115 21.2955C375.819 22.0422 376.779 22.4155 377.995 22.4155C379.233 22.4155 380.203 22.0422 380.907 21.2955C381.611 20.5275 381.963 19.4395 381.963 18.0315V8.27151H386.475ZM396.112 11.9515V20.5275C396.112 21.1248 396.25 21.5622 396.528 21.8395C396.826 22.0955 397.317 22.2235 398 22.2235H400.08V25.9995H397.264C393.488 25.9995 391.6 24.1648 391.6 20.4955V11.9515H389.488V8.27151H391.6V3.88751H396.112V8.27151H400.08V11.9515H396.112ZM405.574 6.15951C404.784 6.15951 404.123 5.91418 403.59 5.42351C403.078 4.91151 402.822 4.28218 402.822 3.53551C402.822 2.78884 403.078 2.17018 403.59 1.67951C404.123 1.16751 404.784 0.91151 405.574 0.91151C406.363 0.91151 407.014 1.16751 407.526 1.67951C408.059 2.17018 408.326 2.78884 408.326 3.53551C408.326 4.28218 408.059 4.91151 407.526 5.42351C407.014 5.91418 406.363 6.15951 405.574 6.15951ZM407.782 8.27151V25.9995H403.302V8.27151H407.782ZM420.08 26.2875C418.373 26.2875 416.837 25.9142 415.472 25.1675C414.107 24.3995 413.029 23.3222 412.24 21.9355C411.472 20.5488 411.088 18.9488 411.088 17.1355C411.088 15.3222 411.483 13.7222 412.272 12.3355C413.083 10.9488 414.181 9.88218 415.568 9.13551C416.955 8.36751 418.501 7.98351 420.208 7.98351C421.915 7.98351 423.461 8.36751 424.848 9.13551C426.235 9.88218 427.323 10.9488 428.112 12.3355C428.923 13.7222 429.328 15.3222 429.328 17.1355C429.328 18.9488 428.912 20.5488 428.08 21.9355C427.269 23.3222 426.16 24.3995 424.752 25.1675C423.365 25.9142 421.808 26.2875 420.08 26.2875ZM420.08 22.3835C420.891 22.3835 421.648 22.1915 422.352 21.8075C423.077 21.4022 423.653 20.8048 424.08 20.0155C424.507 19.2262 424.72 18.2662 424.72 17.1355C424.72 15.4502 424.272 14.1595 423.376 13.2635C422.501 12.3462 421.424 11.8875 420.144 11.8875C418.864 11.8875 417.787 12.3462 416.912 13.2635C416.059 14.1595 415.632 15.4502 415.632 17.1355C415.632 18.8208 416.048 20.1222 416.88 21.0395C417.733 21.9355 418.8 22.3835 420.08 22.3835ZM442.438 8.01551C444.55 8.01551 446.257 8.68751 447.558 10.0315C448.86 11.3542 449.51 13.2102 449.51 15.5995V25.9995H445.03V16.2075C445.03 14.7995 444.678 13.7222 443.974 12.9755C443.27 12.2075 442.31 11.8235 441.094 11.8235C439.857 11.8235 438.876 12.2075 438.15 12.9755C437.446 13.7222 437.094 14.7995 437.094 16.2075V25.9995H432.614V8.27151H437.094V10.4795C437.692 9.71151 438.449 9.11418 439.366 8.68751C440.305 8.23951 441.329 8.01551 442.438 8.01551ZM460.555 26.2875C459.104 26.2875 457.803 26.0315 456.651 25.5195C455.499 24.9862 454.581 24.2715 453.899 23.3755C453.237 22.4795 452.875 21.4875 452.811 20.3995H457.323C457.408 21.0822 457.739 21.6475 458.315 22.0955C458.912 22.5435 459.648 22.7675 460.523 22.7675C461.376 22.7675 462.037 22.5968 462.507 22.2555C462.997 21.9142 463.243 21.4768 463.243 20.9435C463.243 20.3675 462.944 19.9408 462.347 19.6635C461.771 19.3648 460.843 19.0448 459.562 18.7035C458.24 18.3835 457.152 18.0528 456.299 17.7115C455.467 17.3702 454.741 16.8475 454.123 16.1435C453.525 15.4395 453.227 14.4902 453.227 13.2955C453.227 12.3142 453.504 11.4182 454.059 10.6075C454.635 9.79684 455.445 9.15684 456.491 8.68751C457.557 8.21818 458.805 7.98351 460.235 7.98351C462.347 7.98351 464.032 8.51684 465.291 9.58351C466.549 10.6288 467.243 12.0475 467.371 13.8395H463.083C463.019 13.1355 462.72 12.5808 462.187 12.1755C461.675 11.7488 460.981 11.5355 460.107 11.5355C459.296 11.5355 458.667 11.6848 458.219 11.9835C457.792 12.2822 457.579 12.6982 457.579 13.2315C457.579 13.8288 457.877 14.2875 458.475 14.6075C459.072 14.9062 460 15.2155 461.259 15.5355C462.539 15.8555 463.595 16.1862 464.427 16.5275C465.259 16.8688 465.973 17.4022 466.571 18.1275C467.189 18.8315 467.509 19.7702 467.531 20.9435C467.531 21.9675 467.243 22.8848 466.667 23.6955C466.112 24.5062 465.301 25.1462 464.235 25.6155C463.189 26.0635 461.963 26.2875 460.555 26.2875ZM5.96 61.1395C5.04 61.1395 4.21333 60.9795 3.48 60.6595C2.76 60.3262 2.19333 59.8728 1.78 59.2995C1.36667 58.7128 1.15333 58.0395 1.14 57.2795H3.08C3.14667 57.9328 3.41333 58.4862 3.88 58.9395C4.36 59.3795 5.05333 59.5995 5.96 59.5995C6.82667 59.5995 7.50667 59.3862 8 58.9595C8.50667 58.5195 8.76 57.9595 8.76 57.2795C8.76 56.7462 8.61333 56.3128 8.32 55.9795C8.02667 55.6462 7.66 55.3928 7.22 55.2195C6.78 55.0462 6.18667 54.8595 5.44 54.6595C4.52 54.4195 3.78 54.1795 3.22 53.9395C2.67333 53.6995 2.2 53.3262 1.8 52.8195C1.41333 52.2995 1.22 51.6062 1.22 50.7395C1.22 49.9795 1.41333 49.3062 1.8 48.7195C2.18667 48.1328 2.72667 47.6795 3.42 47.3595C4.12667 47.0395 4.93333 46.8795 5.84 46.8795C7.14667 46.8795 8.21333 47.2062 9.04 47.8595C9.88 48.5128 10.3533 49.3795 10.46 50.4595H8.46C8.39333 49.9262 8.11333 49.4595 7.62 49.0595C7.12667 48.6462 6.47333 48.4395 5.66 48.4395C4.9 48.4395 4.28 48.6395 3.8 49.0395C3.32 49.4262 3.08 49.9728 3.08 50.6795C3.08 51.1862 3.22 51.5995 3.5 51.9195C3.79333 52.2395 4.14667 52.4862 4.56 52.6595C4.98667 52.8195 5.58 53.0062 6.34 53.2195C7.26 53.4728 8 53.7262 8.56 53.9795C9.12 54.2195 9.6 54.5995 10 55.1195C10.4 55.6262 10.6 56.3195 10.6 57.1995C10.6 57.8795 10.42 58.5195 10.06 59.1195C9.7 59.7195 9.16667 60.2062 8.46 60.5795C7.75333 60.9528 6.92 61.1395 5.96 61.1395ZM14.2183 48.2595C13.8716 48.2595 13.5783 48.1395 13.3383 47.8995C13.0983 47.6595 12.9783 47.3662 12.9783 47.0195C12.9783 46.6728 13.0983 46.3795 13.3383 46.1395C13.5783 45.8995 13.8716 45.7795 14.2183 45.7795C14.5516 45.7795 14.8316 45.8995 15.0583 46.1395C15.2983 46.3795 15.4183 46.6728 15.4183 47.0195C15.4183 47.3662 15.2983 47.6595 15.0583 47.8995C14.8316 48.1395 14.5516 48.2595 14.2183 48.2595ZM15.0983 50.0395V60.9995H13.2783V50.0395H15.0983ZM31.3802 49.8395C32.2335 49.8395 32.9935 50.0195 33.6602 50.3795C34.3268 50.7262 34.8535 51.2528 35.2402 51.9595C35.6268 52.6662 35.8202 53.5262 35.8202 54.5395V60.9995H34.0202V54.7995C34.0202 53.7062 33.7468 52.8728 33.2002 52.2995C32.6668 51.7128 31.9402 51.4195 31.0202 51.4195C30.0735 51.4195 29.3202 51.7262 28.7602 52.3395C28.2002 52.9395 27.9202 53.8128 27.9202 54.9595V60.9995H26.1202V54.7995C26.1202 53.7062 25.8468 52.8728 25.3002 52.2995C24.7668 51.7128 24.0402 51.4195 23.1202 51.4195C22.1735 51.4195 21.4202 51.7262 20.8602 52.3395C20.3002 52.9395 20.0202 53.8128 20.0202 54.9595V60.9995H18.2002V50.0395H20.0202V51.6195C20.3802 51.0462 20.8602 50.6062 21.4602 50.2995C22.0735 49.9928 22.7468 49.8395 23.4802 49.8395C24.4002 49.8395 25.2135 50.0462 25.9202 50.4595C26.6268 50.8728 27.1535 51.4795 27.5002 52.2795C27.8068 51.5062 28.3135 50.9062 29.0202 50.4795C29.7268 50.0528 30.5135 49.8395 31.3802 49.8395ZM40.6256 52.0595C40.9856 51.4328 41.519 50.9128 42.2256 50.4995C42.9456 50.0728 43.779 49.8595 44.7256 49.8595C45.699 49.8595 46.579 50.0928 47.3656 50.5595C48.1656 51.0262 48.7923 51.6862 49.2456 52.5395C49.699 53.3795 49.9256 54.3595 49.9256 55.4795C49.9256 56.5862 49.699 57.5728 49.2456 58.4395C48.7923 59.3062 48.1656 59.9795 47.3656 60.4595C46.579 60.9395 45.699 61.1795 44.7256 61.1795C43.7923 61.1795 42.9656 60.9728 42.2456 60.5595C41.539 60.1328 40.999 59.6062 40.6256 58.9795V66.1995H38.8056V50.0395H40.6256V52.0595ZM48.0656 55.4795C48.0656 54.6528 47.899 53.9328 47.5656 53.3195C47.2323 52.7062 46.779 52.2395 46.2056 51.9195C45.6456 51.5995 45.0256 51.4395 44.3456 51.4395C43.679 51.4395 43.059 51.6062 42.4856 51.9395C41.9256 52.2595 41.4723 52.7328 41.1256 53.3595C40.7923 53.9728 40.6256 54.6862 40.6256 55.4995C40.6256 56.3262 40.7923 57.0528 41.1256 57.6795C41.4723 58.2928 41.9256 58.7662 42.4856 59.0995C43.059 59.4195 43.679 59.5795 44.3456 59.5795C45.0256 59.5795 45.6456 59.4195 46.2056 59.0995C46.779 58.7662 47.2323 58.2928 47.5656 57.6795C47.899 57.0528 48.0656 56.3195 48.0656 55.4795ZM54.1413 46.1995V60.9995H52.3213V46.1995H54.1413ZM58.1831 48.2595C57.8365 48.2595 57.5431 48.1395 57.3031 47.8995C57.0631 47.6595 56.9431 47.3662 56.9431 47.0195C56.9431 46.6728 57.0631 46.3795 57.3031 46.1395C57.5431 45.8995 57.8365 45.7795 58.1831 45.7795C58.5165 45.7795 58.7965 45.8995 59.0231 46.1395C59.2631 46.3795 59.3831 46.6728 59.3831 47.0195C59.3831 47.3662 59.2631 47.6595 59.0231 47.8995C58.7965 48.1395 58.5165 48.2595 58.1831 48.2595ZM59.0631 50.0395V60.9995H57.2431V50.0395H59.0631ZM66.625 51.5395H64.325V60.9995H62.505V51.5395H61.085V50.0395H62.505V49.2595C62.505 48.0328 62.8183 47.1395 63.445 46.5795C64.085 46.0062 65.105 45.7195 66.505 45.7195V47.2395C65.705 47.2395 65.1383 47.3995 64.805 47.7195C64.485 48.0262 64.325 48.5395 64.325 49.2595V50.0395H66.625V51.5395ZM78.187 50.0395L71.587 66.1595H69.707L71.867 60.8795L67.447 50.0395H69.467L72.907 58.9195L76.307 50.0395H78.187ZM94.6686 51.1395C94.6686 52.2995 94.2686 53.2662 93.4686 54.0395C92.6819 54.7995 91.4753 55.1795 89.8486 55.1795H87.1686V60.9995H85.3486V47.0595H89.8486C91.4219 47.0595 92.6153 47.4395 93.4286 48.1995C94.2553 48.9595 94.6686 49.9395 94.6686 51.1395ZM89.8486 53.6795C90.8619 53.6795 91.6086 53.4595 92.0886 53.0195C92.5686 52.5795 92.8086 51.9528 92.8086 51.1395C92.8086 49.4195 91.8219 48.5595 89.8486 48.5595H87.1686V53.6795H89.8486ZM98.7506 51.8195C99.0706 51.1928 99.524 50.7062 100.111 50.3595C100.711 50.0128 101.437 49.8395 102.291 49.8395V51.7195H101.811C99.7706 51.7195 98.7506 52.8262 98.7506 55.0395V60.9995H96.9306V50.0395H98.7506V51.8195ZM109.172 61.1795C108.145 61.1795 107.212 60.9462 106.372 60.4795C105.545 60.0128 104.892 59.3528 104.412 58.4995C103.945 57.6328 103.712 56.6328 103.712 55.4995C103.712 54.3795 103.952 53.3928 104.432 52.5395C104.925 51.6728 105.592 51.0128 106.432 50.5595C107.272 50.0928 108.212 49.8595 109.252 49.8595C110.292 49.8595 111.232 50.0928 112.072 50.5595C112.912 51.0128 113.572 51.6662 114.052 52.5195C114.545 53.3728 114.792 54.3662 114.792 55.4995C114.792 56.6328 114.538 57.6328 114.032 58.4995C113.538 59.3528 112.865 60.0128 112.012 60.4795C111.158 60.9462 110.212 61.1795 109.172 61.1795ZM109.172 59.5795C109.825 59.5795 110.438 59.4262 111.012 59.1195C111.585 58.8128 112.045 58.3528 112.392 57.7395C112.752 57.1262 112.932 56.3795 112.932 55.4995C112.932 54.6195 112.758 53.8728 112.412 53.2595C112.065 52.6462 111.612 52.1928 111.052 51.8995C110.492 51.5928 109.885 51.4395 109.232 51.4395C108.565 51.4395 107.952 51.5928 107.392 51.8995C106.845 52.1928 106.405 52.6462 106.072 53.2595C105.738 53.8728 105.572 54.6195 105.572 55.4995C105.572 56.3928 105.732 57.1462 106.052 57.7595C106.385 58.3728 106.825 58.8328 107.372 59.1395C107.918 59.4328 108.518 59.5795 109.172 59.5795ZM116.505 55.4995C116.505 54.3662 116.731 53.3795 117.185 52.5395C117.638 51.6862 118.265 51.0262 119.065 50.5595C119.878 50.0928 120.805 49.8595 121.845 49.8595C123.191 49.8595 124.298 50.1862 125.165 50.8395C126.045 51.4928 126.625 52.3995 126.905 53.5595H124.945C124.758 52.8928 124.391 52.3662 123.845 51.9795C123.311 51.5928 122.645 51.3995 121.845 51.3995C120.805 51.3995 119.965 51.7595 119.325 52.4795C118.685 53.1862 118.365 54.1928 118.365 55.4995C118.365 56.8195 118.685 57.8395 119.325 58.5595C119.965 59.2795 120.805 59.6395 121.845 59.6395C122.645 59.6395 123.311 59.4528 123.845 59.0795C124.378 58.7062 124.745 58.1728 124.945 57.4795H126.905C126.611 58.5995 126.025 59.4995 125.145 60.1795C124.265 60.8462 123.165 61.1795 121.845 61.1795C120.805 61.1795 119.878 60.9462 119.065 60.4795C118.265 60.0128 117.638 59.3528 117.185 58.4995C116.731 57.6462 116.505 56.6462 116.505 55.4995ZM139.333 55.0995C139.333 55.4462 139.313 55.8128 139.273 56.1995H130.513C130.58 57.2795 130.946 58.1262 131.613 58.7395C132.293 59.3395 133.113 59.6395 134.073 59.6395C134.86 59.6395 135.513 59.4595 136.033 59.0995C136.566 58.7262 136.94 58.2328 137.153 57.6195H139.113C138.82 58.6728 138.233 59.5328 137.353 60.1995C136.473 60.8528 135.38 61.1795 134.073 61.1795C133.033 61.1795 132.1 60.9462 131.273 60.4795C130.46 60.0128 129.82 59.3528 129.353 58.4995C128.886 57.6328 128.653 56.6328 128.653 55.4995C128.653 54.3662 128.88 53.3728 129.333 52.5195C129.786 51.6662 130.42 51.0128 131.233 50.5595C132.06 50.0928 133.006 49.8595 134.073 49.8595C135.113 49.8595 136.033 50.0862 136.833 50.5395C137.633 50.9928 138.246 51.6195 138.673 52.4195C139.113 53.2062 139.333 54.0995 139.333 55.0995ZM137.453 54.7195C137.453 54.0262 137.3 53.4328 136.993 52.9395C136.686 52.4328 136.266 52.0528 135.733 51.7995C135.213 51.5328 134.633 51.3995 133.993 51.3995C133.073 51.3995 132.286 51.6928 131.633 52.2795C130.993 52.8662 130.626 53.6795 130.533 54.7195H137.453ZM145.615 61.1795C144.775 61.1795 144.022 61.0395 143.355 60.7595C142.689 60.4662 142.162 60.0662 141.775 59.5595C141.389 59.0395 141.175 58.4462 141.135 57.7795H143.015C143.069 58.3262 143.322 58.7728 143.775 59.1195C144.242 59.4662 144.849 59.6395 145.595 59.6395C146.289 59.6395 146.835 59.4862 147.235 59.1795C147.635 58.8728 147.835 58.4862 147.835 58.0195C147.835 57.5395 147.622 57.1862 147.195 56.9595C146.769 56.7195 146.109 56.4862 145.215 56.2595C144.402 56.0462 143.735 55.8328 143.215 55.6195C142.709 55.3928 142.269 55.0662 141.895 54.6395C141.535 54.1995 141.355 53.6262 141.355 52.9195C141.355 52.3595 141.522 51.8462 141.855 51.3795C142.189 50.9128 142.662 50.5462 143.275 50.2795C143.889 49.9995 144.589 49.8595 145.375 49.8595C146.589 49.8595 147.569 50.1662 148.315 50.7795C149.062 51.3928 149.462 52.2328 149.515 53.2995H147.695C147.655 52.7262 147.422 52.2662 146.995 51.9195C146.582 51.5728 146.022 51.3995 145.315 51.3995C144.662 51.3995 144.142 51.5395 143.755 51.8195C143.369 52.0995 143.175 52.4662 143.175 52.9195C143.175 53.2795 143.289 53.5795 143.515 53.8195C143.755 54.0462 144.049 54.2328 144.395 54.3795C144.755 54.5128 145.249 54.6662 145.875 54.8395C146.662 55.0528 147.302 55.2662 147.795 55.4795C148.289 55.6795 148.709 55.9862 149.055 56.3995C149.415 56.8128 149.602 57.3528 149.615 58.0195C149.615 58.6195 149.449 59.1595 149.115 59.6395C148.782 60.1195 148.309 60.4995 147.695 60.7795C147.095 61.0462 146.402 61.1795 145.615 61.1795ZM156.065 61.1795C155.225 61.1795 154.471 61.0395 153.805 60.7595C153.138 60.4662 152.611 60.0662 152.225 59.5595C151.838 59.0395 151.625 58.4462 151.585 57.7795H153.465C153.518 58.3262 153.771 58.7728 154.225 59.1195C154.691 59.4662 155.298 59.6395 156.045 59.6395C156.738 59.6395 157.285 59.4862 157.685 59.1795C158.085 58.8728 158.285 58.4862 158.285 58.0195C158.285 57.5395 158.071 57.1862 157.645 56.9595C157.218 56.7195 156.558 56.4862 155.665 56.2595C154.851 56.0462 154.185 55.8328 153.665 55.6195C153.158 55.3928 152.718 55.0662 152.345 54.6395C151.985 54.1995 151.805 53.6262 151.805 52.9195C151.805 52.3595 151.971 51.8462 152.305 51.3795C152.638 50.9128 153.111 50.5462 153.725 50.2795C154.338 49.9995 155.038 49.8595 155.825 49.8595C157.038 49.8595 158.018 50.1662 158.765 50.7795C159.511 51.3928 159.911 52.2328 159.965 53.2995H158.145C158.105 52.7262 157.871 52.2662 157.445 51.9195C157.031 51.5728 156.471 51.3995 155.765 51.3995C155.111 51.3995 154.591 51.5395 154.205 51.8195C153.818 52.0995 153.625 52.4662 153.625 52.9195C153.625 53.2795 153.738 53.5795 153.965 53.8195C154.205 54.0462 154.498 54.2328 154.845 54.3795C155.205 54.5128 155.698 54.6662 156.325 54.8395C157.111 55.0528 157.751 55.2662 158.245 55.4795C158.738 55.6795 159.158 55.9862 159.505 56.3995C159.865 56.8128 160.051 57.3528 160.065 58.0195C160.065 58.6195 159.898 59.1595 159.565 59.6395C159.231 60.1195 158.758 60.4995 158.145 60.7795C157.545 61.0462 156.851 61.1795 156.065 61.1795ZM163.574 48.2595C163.227 48.2595 162.934 48.1395 162.694 47.8995C162.454 47.6595 162.334 47.3662 162.334 47.0195C162.334 46.6728 162.454 46.3795 162.694 46.1395C162.934 45.8995 163.227 45.7795 163.574 45.7795C163.907 45.7795 164.187 45.8995 164.414 46.1395C164.654 46.3795 164.774 46.6728 164.774 47.0195C164.774 47.3662 164.654 47.6595 164.414 47.8995C164.187 48.1395 163.907 48.2595 163.574 48.2595ZM164.454 50.0395V60.9995H162.634V50.0395H164.454ZM172.896 49.8395C174.229 49.8395 175.309 50.2462 176.136 51.0595C176.962 51.8595 177.376 53.0195 177.376 54.5395V60.9995H175.576V54.7995C175.576 53.7062 175.302 52.8728 174.756 52.2995C174.209 51.7128 173.462 51.4195 172.516 51.4195C171.556 51.4195 170.789 51.7195 170.216 52.3195C169.656 52.9195 169.376 53.7928 169.376 54.9395V60.9995H167.556V50.0395H169.376V51.5995C169.736 51.0395 170.222 50.6062 170.836 50.2995C171.462 49.9928 172.149 49.8395 172.896 49.8395ZM184.869 49.8595C185.815 49.8595 186.642 50.0662 187.349 50.4795C188.069 50.8928 188.602 51.4128 188.949 52.0395V50.0395H190.789V61.2395C190.789 62.2395 190.575 63.1262 190.149 63.8995C189.722 64.6862 189.109 65.2995 188.309 65.7395C187.522 66.1795 186.602 66.3995 185.549 66.3995C184.109 66.3995 182.909 66.0595 181.949 65.3795C180.989 64.6995 180.422 63.7728 180.249 62.5995H182.049C182.249 63.2662 182.662 63.7995 183.289 64.1995C183.915 64.6128 184.669 64.8195 185.549 64.8195C186.549 64.8195 187.362 64.5062 187.989 63.8795C188.629 63.2528 188.949 62.3728 188.949 61.2395V58.9395C188.589 59.5795 188.055 60.1128 187.349 60.5395C186.642 60.9662 185.815 61.1795 184.869 61.1795C183.895 61.1795 183.009 60.9395 182.209 60.4595C181.422 59.9795 180.802 59.3062 180.349 58.4395C179.895 57.5728 179.669 56.5862 179.669 55.4795C179.669 54.3595 179.895 53.3795 180.349 52.5395C180.802 51.6862 181.422 51.0262 182.209 50.5595C183.009 50.0928 183.895 49.8595 184.869 49.8595ZM188.949 55.4995C188.949 54.6728 188.782 53.9528 188.449 53.3395C188.115 52.7262 187.662 52.2595 187.089 51.9395C186.529 51.6062 185.909 51.4395 185.229 51.4395C184.549 51.4395 183.929 51.5995 183.369 51.9195C182.809 52.2395 182.362 52.7062 182.029 53.3195C181.695 53.9328 181.529 54.6528 181.529 55.4795C181.529 56.3195 181.695 57.0528 182.029 57.6795C182.362 58.2928 182.809 58.7662 183.369 59.0995C183.929 59.4195 184.549 59.5795 185.229 59.5795C185.909 59.5795 186.529 59.4195 187.089 59.0995C187.662 58.7662 188.115 58.2928 188.449 57.6795C188.782 57.0528 188.949 56.3262 188.949 55.4995ZM195.744 58.4795L193.504 63.8595H192.284L193.744 58.4795H195.744ZM214.681 47.0595L209.421 60.9995H207.321L202.061 47.0595H204.001L208.381 59.0795L212.761 47.0595H214.681ZM226.677 55.0995C226.677 55.4462 226.657 55.8128 226.617 56.1995H217.857C217.923 57.2795 218.29 58.1262 218.957 58.7395C219.637 59.3395 220.457 59.6395 221.417 59.6395C222.203 59.6395 222.857 59.4595 223.377 59.0995C223.91 58.7262 224.283 58.2328 224.497 57.6195H226.457C226.163 58.6728 225.577 59.5328 224.697 60.1995C223.817 60.8528 222.723 61.1795 221.417 61.1795C220.377 61.1795 219.443 60.9462 218.617 60.4795C217.803 60.0128 217.163 59.3528 216.697 58.4995C216.23 57.6328 215.997 56.6328 215.997 55.4995C215.997 54.3662 216.223 53.3728 216.677 52.5195C217.13 51.6662 217.763 51.0128 218.577 50.5595C219.403 50.0928 220.35 49.8595 221.417 49.8595C222.457 49.8595 223.377 50.0862 224.177 50.5395C224.977 50.9928 225.59 51.6195 226.017 52.4195C226.457 53.2062 226.677 54.0995 226.677 55.0995ZM224.797 54.7195C224.797 54.0262 224.643 53.4328 224.337 52.9395C224.03 52.4328 223.61 52.0528 223.077 51.7995C222.557 51.5328 221.977 51.3995 221.337 51.3995C220.417 51.3995 219.63 51.6928 218.977 52.2795C218.337 52.8662 217.97 53.6795 217.877 54.7195H224.797ZM230.899 51.8195C231.219 51.1928 231.672 50.7062 232.259 50.3595C232.859 50.0128 233.586 49.8395 234.439 49.8395V51.7195H233.959C231.919 51.7195 230.899 52.8262 230.899 55.0395V60.9995H229.079V50.0395H230.899V51.8195ZM237.48 48.2595C237.133 48.2595 236.84 48.1395 236.6 47.8995C236.36 47.6595 236.24 47.3662 236.24 47.0195C236.24 46.6728 236.36 46.3795 236.6 46.1395C236.84 45.8995 237.133 45.7795 237.48 45.7795C237.813 45.7795 238.093 45.8995 238.32 46.1395C238.56 46.3795 238.68 46.6728 238.68 47.0195C238.68 47.3662 238.56 47.6595 238.32 47.8995C238.093 48.1395 237.813 48.2595 237.48 48.2595ZM238.36 50.0395V60.9995H236.54V50.0395H238.36ZM245.922 51.5395H243.622V60.9995H241.802V51.5395H240.382V50.0395H241.802V49.2595C241.802 48.0328 242.115 47.1395 242.742 46.5795C243.382 46.0062 244.402 45.7195 245.802 45.7195V47.2395C245.002 47.2395 244.435 47.3995 244.102 47.7195C243.782 48.0262 243.622 48.5395 243.622 49.2595V50.0395H245.922V51.5395ZM248.984 48.2595C248.637 48.2595 248.344 48.1395 248.104 47.8995C247.864 47.6595 247.744 47.3662 247.744 47.0195C247.744 46.6728 247.864 46.3795 248.104 46.1395C248.344 45.8995 248.637 45.7795 248.984 45.7795C249.317 45.7795 249.597 45.8995 249.824 46.1395C250.064 46.3795 250.184 46.6728 250.184 47.0195C250.184 47.3662 250.064 47.6595 249.824 47.8995C249.597 48.1395 249.317 48.2595 248.984 48.2595ZM249.864 50.0395V60.9995H248.044V50.0395H249.864ZM252.286 55.4995C252.286 54.3662 252.512 53.3795 252.966 52.5395C253.419 51.6862 254.046 51.0262 254.846 50.5595C255.659 50.0928 256.586 49.8595 257.626 49.8595C258.972 49.8595 260.079 50.1862 260.946 50.8395C261.826 51.4928 262.406 52.3995 262.686 53.5595H260.726C260.539 52.8928 260.172 52.3662 259.626 51.9795C259.092 51.5928 258.426 51.3995 257.626 51.3995C256.586 51.3995 255.746 51.7595 255.106 52.4795C254.466 53.1862 254.146 54.1928 254.146 55.4995C254.146 56.8195 254.466 57.8395 255.106 58.5595C255.746 59.2795 256.586 59.6395 257.626 59.6395C258.426 59.6395 259.092 59.4528 259.626 59.0795C260.159 58.7062 260.526 58.1728 260.726 57.4795H262.686C262.392 58.5995 261.806 59.4995 260.926 60.1795C260.046 60.8462 258.946 61.1795 257.626 61.1795C256.586 61.1795 255.659 60.9462 254.846 60.4795C254.046 60.0128 253.419 59.3528 252.966 58.4995C252.512 57.6462 252.286 56.6462 252.286 55.4995ZM264.434 55.4795C264.434 54.3595 264.661 53.3795 265.114 52.5395C265.568 51.6862 266.188 51.0262 266.974 50.5595C267.774 50.0928 268.661 49.8595 269.634 49.8595C270.594 49.8595 271.428 50.0662 272.134 50.4795C272.841 50.8928 273.368 51.4128 273.714 52.0395V50.0395H275.554V60.9995H273.714V58.9595C273.354 59.5995 272.814 60.1328 272.094 60.5595C271.388 60.9728 270.561 61.1795 269.614 61.1795C268.641 61.1795 267.761 60.9395 266.974 60.4595C266.188 59.9795 265.568 59.3062 265.114 58.4395C264.661 57.5728 264.434 56.5862 264.434 55.4795ZM273.714 55.4995C273.714 54.6728 273.548 53.9528 273.214 53.3395C272.881 52.7262 272.428 52.2595 271.854 51.9395C271.294 51.6062 270.674 51.4395 269.994 51.4395C269.314 51.4395 268.694 51.5995 268.134 51.9195C267.574 52.2395 267.128 52.7062 266.794 53.3195C266.461 53.9328 266.294 54.6528 266.294 55.4795C266.294 56.3195 266.461 57.0528 266.794 57.6795C267.128 58.2928 267.574 58.7662 268.134 59.0995C268.694 59.4195 269.314 59.5795 269.994 59.5795C270.674 59.5795 271.294 59.4195 271.854 59.0995C272.428 58.7662 272.881 58.2928 273.214 57.6795C273.548 57.0528 273.714 56.3262 273.714 55.4995ZM280.85 51.5395V57.9995C280.85 58.5328 280.963 58.9128 281.19 59.1395C281.417 59.3528 281.81 59.4595 282.37 59.4595H283.71V60.9995H282.07C281.057 60.9995 280.297 60.7662 279.79 60.2995C279.283 59.8328 279.03 59.0662 279.03 57.9995V51.5395H277.61V50.0395H279.03V47.2795H280.85V50.0395H283.71V51.5395H280.85ZM286.855 48.2595C286.508 48.2595 286.215 48.1395 285.975 47.8995C285.735 47.6595 285.615 47.3662 285.615 47.0195C285.615 46.6728 285.735 46.3795 285.975 46.1395C286.215 45.8995 286.508 45.7795 286.855 45.7795C287.188 45.7795 287.468 45.8995 287.695 46.1395C287.935 46.3795 288.055 46.6728 288.055 47.0195C288.055 47.3662 287.935 47.6595 287.695 47.8995C287.468 48.1395 287.188 48.2595 286.855 48.2595ZM287.735 50.0395V60.9995H285.915V50.0395H287.735ZM295.617 61.1795C294.59 61.1795 293.657 60.9462 292.817 60.4795C291.99 60.0128 291.337 59.3528 290.857 58.4995C290.39 57.6328 290.157 56.6328 290.157 55.4995C290.157 54.3795 290.397 53.3928 290.877 52.5395C291.37 51.6728 292.037 51.0128 292.877 50.5595C293.717 50.0928 294.657 49.8595 295.697 49.8595C296.737 49.8595 297.677 50.0928 298.517 50.5595C299.357 51.0128 300.017 51.6662 300.497 52.5195C300.99 53.3728 301.237 54.3662 301.237 55.4995C301.237 56.6328 300.984 57.6328 300.477 58.4995C299.984 59.3528 299.31 60.0128 298.457 60.4795C297.604 60.9462 296.657 61.1795 295.617 61.1795ZM295.617 59.5795C296.27 59.5795 296.884 59.4262 297.457 59.1195C298.03 58.8128 298.49 58.3528 298.837 57.7395C299.197 57.1262 299.377 56.3795 299.377 55.4995C299.377 54.6195 299.204 53.8728 298.857 53.2595C298.51 52.6462 298.057 52.1928 297.497 51.8995C296.937 51.5928 296.33 51.4395 295.677 51.4395C295.01 51.4395 294.397 51.5928 293.837 51.8995C293.29 52.1928 292.85 52.6462 292.517 53.2595C292.184 53.8728 292.017 54.6195 292.017 55.4995C292.017 56.3928 292.177 57.1462 292.497 57.7595C292.83 58.3728 293.27 58.8328 293.817 59.1395C294.364 59.4328 294.964 59.5795 295.617 59.5795ZM308.97 49.8395C310.303 49.8395 311.383 50.2462 312.21 51.0595C313.037 51.8595 313.45 53.0195 313.45 54.5395V60.9995H311.65V54.7995C311.65 53.7062 311.377 52.8728 310.83 52.2995C310.283 51.7128 309.537 51.4195 308.59 51.4195C307.63 51.4195 306.863 51.7195 306.29 52.3195C305.73 52.9195 305.45 53.7928 305.45 54.9395V60.9995H303.63V50.0395H305.45V51.5995C305.81 51.0395 306.297 50.6062 306.91 50.2995C307.537 49.9928 308.223 49.8395 308.97 49.8395ZM318.303 58.4795L316.063 63.8595H314.843L316.303 58.4795H318.303ZM333.96 57.8995H327.88L326.76 60.9995H324.84L329.88 47.1395H331.98L337 60.9995H335.08L333.96 57.8995ZM333.44 56.4195L330.92 49.3795L328.4 56.4195H333.44ZM344.536 49.8395C345.87 49.8395 346.95 50.2462 347.776 51.0595C348.603 51.8595 349.016 53.0195 349.016 54.5395V60.9995H347.216V54.7995C347.216 53.7062 346.943 52.8728 346.396 52.2995C345.85 51.7128 345.103 51.4195 344.156 51.4195C343.196 51.4195 342.43 51.7195 341.856 52.3195C341.296 52.9195 341.016 53.7928 341.016 54.9395V60.9995H339.196V50.0395H341.016V51.5995C341.376 51.0395 341.863 50.6062 342.476 50.2995C343.103 49.9928 343.79 49.8395 344.536 49.8395ZM351.309 55.4795C351.309 54.3595 351.536 53.3795 351.989 52.5395C352.443 51.6862 353.063 51.0262 353.849 50.5595C354.649 50.0928 355.543 49.8595 356.529 49.8595C357.383 49.8595 358.176 50.0595 358.909 50.4595C359.643 50.8462 360.203 51.3595 360.589 51.9995V46.1995H362.429V60.9995H360.589V58.9395C360.229 59.5928 359.696 60.1328 358.989 60.5595C358.283 60.9728 357.456 61.1795 356.509 61.1795C355.536 61.1795 354.649 60.9395 353.849 60.4595C353.063 59.9795 352.443 59.3062 351.989 58.4395C351.536 57.5728 351.309 56.5862 351.309 55.4795ZM360.589 55.4995C360.589 54.6728 360.423 53.9528 360.089 53.3395C359.756 52.7262 359.303 52.2595 358.729 51.9395C358.169 51.6062 357.549 51.4395 356.869 51.4395C356.189 51.4395 355.569 51.5995 355.009 51.9195C354.449 52.2395 354.003 52.7062 353.669 53.3195C353.336 53.9328 353.169 54.6528 353.169 55.4795C353.169 56.3195 353.336 57.0528 353.669 57.6795C354.003 58.2928 354.449 58.7662 355.009 59.0995C355.569 59.4195 356.189 59.5795 356.869 59.5795C357.549 59.5795 358.169 59.4195 358.729 59.0995C359.303 58.7662 359.756 58.2928 360.089 57.6795C360.423 57.0528 360.589 56.3262 360.589 55.4995ZM372.617 47.0595V55.8795C372.617 57.1195 372.917 58.0395 373.517 58.6395C374.13 59.2395 374.977 59.5395 376.057 59.5395C377.124 59.5395 377.957 59.2395 378.557 58.6395C379.17 58.0395 379.477 57.1195 379.477 55.8795V47.0595H381.297V55.8595C381.297 57.0195 381.064 57.9995 380.597 58.7995C380.13 59.5862 379.497 60.1728 378.697 60.5595C377.91 60.9462 377.024 61.1395 376.037 61.1395C375.05 61.1395 374.157 60.9462 373.357 60.5595C372.57 60.1728 371.944 59.5862 371.477 58.7995C371.024 57.9995 370.797 57.0195 370.797 55.8595V47.0595H372.617ZM388.213 61.1795C387.373 61.1795 386.62 61.0395 385.953 60.7595C385.286 60.4662 384.76 60.0662 384.373 59.5595C383.986 59.0395 383.773 58.4462 383.733 57.7795H385.613C385.666 58.3262 385.92 58.7728 386.373 59.1195C386.84 59.4662 387.446 59.6395 388.193 59.6395C388.886 59.6395 389.433 59.4862 389.833 59.1795C390.233 58.8728 390.433 58.4862 390.433 58.0195C390.433 57.5395 390.22 57.1862 389.793 56.9595C389.366 56.7195 388.706 56.4862 387.813 56.2595C387 56.0462 386.333 55.8328 385.813 55.6195C385.306 55.3928 384.866 55.0662 384.493 54.6395C384.133 54.1995 383.953 53.6262 383.953 52.9195C383.953 52.3595 384.12 51.8462 384.453 51.3795C384.786 50.9128 385.26 50.5462 385.873 50.2795C386.486 49.9995 387.186 49.8595 387.973 49.8595C389.186 49.8595 390.166 50.1662 390.913 50.7795C391.66 51.3928 392.06 52.2328 392.113 53.2995H390.293C390.253 52.7262 390.02 52.2662 389.593 51.9195C389.18 51.5728 388.62 51.3995 387.913 51.3995C387.26 51.3995 386.74 51.5395 386.353 51.8195C385.966 52.0995 385.773 52.4662 385.773 52.9195C385.773 53.2795 385.886 53.5795 386.113 53.8195C386.353 54.0462 386.646 54.2328 386.993 54.3795C387.353 54.5128 387.846 54.6662 388.473 54.8395C389.26 55.0528 389.9 55.2662 390.393 55.4795C390.886 55.6795 391.306 55.9862 391.653 56.3995C392.013 56.8128 392.2 57.3528 392.213 58.0195C392.213 58.6195 392.046 59.1595 391.713 59.6395C391.38 60.1195 390.906 60.4995 390.293 60.7795C389.693 61.0462 389 61.1795 388.213 61.1795ZM404.782 55.0995C404.782 55.4462 404.762 55.8128 404.722 56.1995H395.962C396.029 57.2795 396.396 58.1262 397.062 58.7395C397.742 59.3395 398.562 59.6395 399.522 59.6395C400.309 59.6395 400.962 59.4595 401.482 59.0995C402.016 58.7262 402.389 58.2328 402.602 57.6195H404.562C404.269 58.6728 403.682 59.5328 402.802 60.1995C401.922 60.8528 400.829 61.1795 399.522 61.1795C398.482 61.1795 397.549 60.9462 396.722 60.4795C395.909 60.0128 395.269 59.3528 394.802 58.4995C394.336 57.6328 394.102 56.6328 394.102 55.4995C394.102 54.3662 394.329 53.3728 394.782 52.5195C395.236 51.6662 395.869 51.0128 396.682 50.5595C397.509 50.0928 398.456 49.8595 399.522 49.8595C400.562 49.8595 401.482 50.0862 402.282 50.5395C403.082 50.9928 403.696 51.6195 404.122 52.4195C404.562 53.2062 404.782 54.0995 404.782 55.0995ZM402.902 54.7195C402.902 54.0262 402.749 53.4328 402.442 52.9395C402.136 52.4328 401.716 52.0528 401.182 51.7995C400.662 51.5328 400.082 51.3995 399.442 51.3995C398.522 51.3995 397.736 51.6928 397.082 52.2795C396.442 52.8662 396.076 53.6795 395.982 54.7195H402.902ZM409.005 51.8195C409.325 51.1928 409.778 50.7062 410.365 50.3595C410.965 50.0128 411.691 49.8395 412.545 49.8395V51.7195H412.065C410.025 51.7195 409.005 52.8262 409.005 55.0395V60.9995H407.185V50.0395H409.005V51.8195ZM15.68 77.1595V90.9995H13.86V80.6795L9.26 90.9995H7.98L3.36 80.6595V90.9995H1.54V77.1595H3.5L8.62 88.5995L13.74 77.1595H15.68ZM23.5466 91.1795C22.5199 91.1795 21.5866 90.9462 20.7466 90.4795C19.9199 90.0128 19.2666 89.3528 18.7866 88.4995C18.3199 87.6328 18.0866 86.6328 18.0866 85.4995C18.0866 84.3795 18.3266 83.3928 18.8066 82.5395C19.2999 81.6728 19.9666 81.0128 20.8066 80.5595C21.6466 80.0928 22.5866 79.8595 23.6266 79.8595C24.6666 79.8595 25.6066 80.0928 26.4466 80.5595C27.2866 81.0128 27.9466 81.6662 28.4266 82.5195C28.9199 83.3728 29.1666 84.3662 29.1666 85.4995C29.1666 86.6328 28.9132 87.6328 28.4066 88.4995C27.9132 89.3528 27.2399 90.0128 26.3866 90.4795C25.5332 90.9462 24.5866 91.1795 23.5466 91.1795ZM23.5466 89.5795C24.1999 89.5795 24.8132 89.4262 25.3866 89.1195C25.9599 88.8128 26.4199 88.3528 26.7666 87.7395C27.1266 87.1262 27.3066 86.3795 27.3066 85.4995C27.3066 84.6195 27.1332 83.8728 26.7866 83.2595C26.4399 82.6462 25.9866 82.1928 25.4266 81.8995C24.8666 81.5928 24.2599 81.4395 23.6066 81.4395C22.9399 81.4395 22.3266 81.5928 21.7666 81.8995C21.2199 82.1928 20.7799 82.6462 20.4466 83.2595C20.1132 83.8728 19.9466 84.6195 19.9466 85.4995C19.9466 86.3928 20.1066 87.1462 20.4266 87.7595C20.7599 88.3728 21.1999 88.8328 21.7466 89.1395C22.2932 89.4328 22.8932 89.5795 23.5466 89.5795ZM36.8995 79.8395C38.2329 79.8395 39.3129 80.2462 40.1395 81.0595C40.9662 81.8595 41.3795 83.0195 41.3795 84.5395V90.9995H39.5795V84.7995C39.5795 83.7062 39.3062 82.8728 38.7595 82.2995C38.2129 81.7128 37.4662 81.4195 36.5195 81.4195C35.5595 81.4195 34.7929 81.7195 34.2195 82.3195C33.6595 82.9195 33.3795 83.7928 33.3795 84.9395V90.9995H31.5595V80.0395H33.3795V81.5995C33.7395 81.0395 34.2262 80.6062 34.8395 80.2995C35.4662 79.9928 36.1529 79.8395 36.8995 79.8395ZM45.2925 78.2595C44.9458 78.2595 44.6525 78.1395 44.4125 77.8995C44.1725 77.6595 44.0525 77.3662 44.0525 77.0195C44.0525 76.6728 44.1725 76.3795 44.4125 76.1395C44.6525 75.8995 44.9458 75.7795 45.2925 75.7795C45.6258 75.7795 45.9058 75.8995 46.1325 76.1395C46.3725 76.3795 46.4925 76.6728 46.4925 77.0195C46.4925 77.3662 46.3725 77.6595 46.1325 77.8995C45.9058 78.1395 45.6258 78.2595 45.2925 78.2595ZM46.1725 80.0395V90.9995H44.3525V80.0395H46.1725ZM51.4944 81.5395V87.9995C51.4944 88.5328 51.6077 88.9128 51.8344 89.1395C52.061 89.3528 52.4544 89.4595 53.0144 89.4595H54.3544V90.9995H52.7144C51.701 90.9995 50.941 90.7662 50.4344 90.2995C49.9277 89.8328 49.6744 89.0662 49.6744 87.9995V81.5395H48.2544V80.0395H49.6744V77.2795H51.4944V80.0395H54.3544V81.5395H51.4944ZM61.3395 91.1795C60.3129 91.1795 59.3795 90.9462 58.5395 90.4795C57.7129 90.0128 57.0595 89.3528 56.5795 88.4995C56.1129 87.6328 55.8795 86.6328 55.8795 85.4995C55.8795 84.3795 56.1195 83.3928 56.5995 82.5395C57.0929 81.6728 57.7595 81.0128 58.5995 80.5595C59.4395 80.0928 60.3795 79.8595 61.4195 79.8595C62.4595 79.8595 63.3995 80.0928 64.2395 80.5595C65.0795 81.0128 65.7395 81.6662 66.2195 82.5195C66.7129 83.3728 66.9595 84.3662 66.9595 85.4995C66.9595 86.6328 66.7062 87.6328 66.1995 88.4995C65.7062 89.3528 65.0329 90.0128 64.1795 90.4795C63.3262 90.9462 62.3795 91.1795 61.3395 91.1795ZM61.3395 89.5795C61.9929 89.5795 62.6062 89.4262 63.1795 89.1195C63.7529 88.8128 64.2129 88.3528 64.5595 87.7395C64.9195 87.1262 65.0995 86.3795 65.0995 85.4995C65.0995 84.6195 64.9262 83.8728 64.5795 83.2595C64.2329 82.6462 63.7795 82.1928 63.2195 81.8995C62.6595 81.5928 62.0529 81.4395 61.3995 81.4395C60.7329 81.4395 60.1195 81.5928 59.5595 81.8995C59.0129 82.1928 58.5729 82.6462 58.2395 83.2595C57.9062 83.8728 57.7395 84.6195 57.7395 85.4995C57.7395 86.3928 57.8995 87.1462 58.2195 87.7595C58.5529 88.3728 58.9929 88.8328 59.5395 89.1395C60.0862 89.4328 60.6862 89.5795 61.3395 89.5795ZM71.1725 81.8195C71.4925 81.1928 71.9458 80.7062 72.5325 80.3595C73.1325 80.0128 73.8592 79.8395 74.7125 79.8395V81.7195H74.2325C72.1925 81.7195 71.1725 82.8262 71.1725 85.0395V90.9995H69.3525V80.0395H71.1725V81.8195ZM77.7534 78.2595C77.4068 78.2595 77.1134 78.1395 76.8734 77.8995C76.6334 77.6595 76.5134 77.3662 76.5134 77.0195C76.5134 76.6728 76.6334 76.3795 76.8734 76.1395C77.1134 75.8995 77.4068 75.7795 77.7534 75.7795C78.0868 75.7795 78.3668 75.8995 78.5934 76.1395C78.8334 76.3795 78.9534 76.6728 78.9534 77.0195C78.9534 77.3662 78.8334 77.6595 78.5934 77.8995C78.3668 78.1395 78.0868 78.2595 77.7534 78.2595ZM78.6334 80.0395V90.9995H76.8134V80.0395H78.6334ZM87.0753 79.8395C88.4086 79.8395 89.4886 80.2462 90.3153 81.0595C91.142 81.8595 91.5553 83.0195 91.5553 84.5395V90.9995H89.7553V84.7995C89.7553 83.7062 89.482 82.8728 88.9353 82.2995C88.3886 81.7128 87.642 81.4195 86.6953 81.4195C85.7353 81.4195 84.9686 81.7195 84.3953 82.3195C83.8353 82.9195 83.5553 83.7928 83.5553 84.9395V90.9995H81.7353V80.0395H83.5553V81.5995C83.9153 81.0395 84.402 80.6062 85.0153 80.2995C85.642 79.9928 86.3286 79.8395 87.0753 79.8395ZM99.0483 79.8595C99.9949 79.8595 100.822 80.0662 101.528 80.4795C102.248 80.8928 102.782 81.4128 103.128 82.0395V80.0395H104.968V91.2395C104.968 92.2395 104.755 93.1262 104.328 93.8995C103.902 94.6862 103.288 95.2995 102.488 95.7395C101.702 96.1795 100.782 96.3995 99.7283 96.3995C98.2883 96.3995 97.0883 96.0595 96.1283 95.3795C95.1683 94.6995 94.6016 93.7728 94.4283 92.5995H96.2283C96.4283 93.2662 96.8416 93.7995 97.4683 94.1995C98.0949 94.6128 98.8483 94.8195 99.7283 94.8195C100.728 94.8195 101.542 94.5062 102.168 93.8795C102.808 93.2528 103.128 92.3728 103.128 91.2395V88.9395C102.768 89.5795 102.235 90.1128 101.528 90.5395C100.822 90.9662 99.9949 91.1795 99.0483 91.1795C98.0749 91.1795 97.1883 90.9395 96.3883 90.4595C95.6016 89.9795 94.9816 89.3062 94.5283 88.4395C94.0749 87.5728 93.8483 86.5862 93.8483 85.4795C93.8483 84.3595 94.0749 83.3795 94.5283 82.5395C94.9816 81.6862 95.6016 81.0262 96.3883 80.5595C97.1883 80.0928 98.0749 79.8595 99.0483 79.8595ZM103.128 85.4995C103.128 84.6728 102.962 83.9528 102.628 83.3395C102.295 82.7262 101.842 82.2595 101.268 81.9395C100.708 81.6062 100.088 81.4395 99.4083 81.4395C98.7283 81.4395 98.1083 81.5995 97.5483 81.9195C96.9883 82.2395 96.5416 82.7062 96.2083 83.3195C95.8749 83.9328 95.7083 84.6528 95.7083 85.4795C95.7083 86.3195 95.8749 87.0528 96.2083 87.6795C96.5416 88.2928 96.9883 88.7662 97.5483 89.0995C98.1083 89.4195 98.7283 89.5795 99.4083 89.5795C100.088 89.5795 100.708 89.4195 101.268 89.0995C101.842 88.7662 102.295 88.2928 102.628 87.6795C102.962 87.0528 103.128 86.3262 103.128 85.4995Z" fill="black"/>
</svg>
