<svg width="7" height="11" viewBox="0 0 7 11" fill="none" xmlns="http://www.w3.org/2000/svg">
<path d="M3.07914 10.5938V9.37984C2.55591 9.29328 2.1082 9.08073 1.73602 8.74219C1.36383 8.40365 1.09961 7.99161 0.943359 7.50609L1.81117 7.14547C1.90648 7.50443 2.12539 7.83036 2.46789 8.12328C2.81049 8.41609 3.17409 8.5625 3.55867 8.5625C3.98898 8.5625 4.35841 8.44734 4.66695 8.21703C4.97539 7.98661 5.12961 7.67469 5.12961 7.28125C5.12961 6.92865 4.99742 6.63417 4.73305 6.39781C4.46857 6.16146 4.04951 5.94312 3.47586 5.74281C2.70742 5.46312 2.13669 5.16385 1.76367 4.845C1.39065 4.52604 1.20414 4.09854 1.20414 3.5625C1.20414 3.08979 1.37544 2.67292 1.71805 2.31188C2.06055 1.95094 2.51425 1.71917 3.07914 1.61656V0.40625H3.89164V1.61656C4.59758 1.72156 5.07112 1.97297 5.31227 2.37078C5.55352 2.76859 5.69133 2.96193 5.7257 2.95078L4.93258 3.29562C4.83716 3.05687 4.65643 2.84896 4.39039 2.67188C4.12445 2.49479 3.83841 2.40625 3.53227 2.40625C3.1557 2.40625 2.82456 2.51302 2.53883 2.72656C2.2532 2.9401 2.11039 3.20833 2.11039 3.53125C2.11039 3.82208 2.2306 4.07391 2.47102 4.28672C2.71133 4.49943 3.19768 4.73557 3.93008 4.99516C4.67925 5.25078 5.21753 5.55229 5.54492 5.89969C5.87221 6.24698 6.03586 6.71151 6.03586 7.29328C6.03586 7.83088 5.84216 8.2988 5.45477 8.69703C5.06737 9.09536 4.54633 9.33458 3.89164 9.41469V10.5938H3.07914Z" fill="#666666"/>
</svg>
