<svg width="14" height="14" viewBox="0 0 14 14" fill="none" xmlns="http://www.w3.org/2000/svg">
<path d="M6.99999 10.157L3.44235 6.59938L4.32054 5.69554L6.37502 7.75002V0.75H7.62497V7.75002L9.67945 5.69554L10.5576 6.59938L6.99999 10.157ZM2.25643 13.25C1.83549 13.25 1.47918 13.1041 1.18752 12.8125C0.895849 12.5208 0.750015 12.1645 0.750015 11.7435V9.48396H1.99999V11.7435C1.99999 11.8077 2.0267 11.8664 2.08012 11.9199C2.13355 11.9733 2.19232 12 2.25643 12H11.7436C11.8077 12 11.8664 11.9733 11.9199 11.9199C11.9733 11.8664 12 11.8077 12 11.7435V9.48396H13.25V11.7435C13.25 12.1645 13.1041 12.5208 12.8125 12.8125C12.5208 13.1041 12.1645 13.25 11.7436 13.25H2.25643Z" fill="#121212"/>
</svg>
