<svg width="18" height="16" viewBox="0 0 18 16" fill="none" xmlns="http://www.w3.org/2000/svg">
<path d="M2.7046 15.9C2.22173 15.9 1.81358 15.7417 1.48014 15.425C1.1467 15.1084 0.97998 14.7308 0.97998 14.2923V1.7078C0.97998 1.26933 1.1467 0.891764 1.48014 0.575098C1.81358 0.258431 2.22173 0.100098 2.7046 0.100098H16.2044C16.6873 0.100098 17.0954 0.258431 17.4289 0.575098C17.7623 0.891764 17.929 1.26933 17.929 1.7078V14.2923C17.929 14.7308 17.7623 15.1084 17.4289 15.425C17.0954 15.7417 16.6873 15.9 16.2044 15.9H2.7046ZM2.7046 14.6001H16.2044C16.2869 14.6001 16.3626 14.568 16.4314 14.5039C16.5001 14.4398 16.5345 14.3693 16.5345 14.2923V1.7078C16.5345 1.63087 16.5001 1.56034 16.4314 1.49622C16.3626 1.43212 16.2869 1.40007 16.2044 1.40007H2.7046C2.62208 1.40007 2.54642 1.43212 2.47764 1.49622C2.40888 1.56034 2.3745 1.63087 2.3745 1.7078V14.2923C2.3745 14.3693 2.40888 14.4398 2.47764 14.5039C2.54642 14.568 2.62208 14.6001 2.7046 14.6001ZM4.46637 12.55H14.5251L11.1585 8.36547L8.46842 11.6193L6.80569 9.66165L4.46637 12.55Z" fill="black"/>
</svg>
