<svg width="18" height="18" viewBox="0 0 18 18" fill="none" xmlns="http://www.w3.org/2000/svg">
<path d="M10.371 2.35575C10.4018 2.36236 10.4325 2.36897 10.4642 2.37579C11.1851 2.53347 12.2247 2.79351 12.6913 3.41044C12.7915 3.61551 12.8014 3.86926 12.7387 4.08816C12.6425 4.30337 12.4849 4.4477 12.2738 4.54862C11.8806 4.62728 11.6131 4.49107 11.2675 4.31132C10.6925 4.01671 9.99907 3.81881 9.35148 3.79716C9.31642 3.7958 9.31642 3.7958 9.28066 3.79441C7.92609 3.7482 6.61268 4.16093 5.58977 5.06278C5.5555 5.09197 5.52124 5.12115 5.48594 5.15122C4.46982 6.03264 3.89666 7.3577 3.7968 8.68388C3.71189 10.1332 4.23117 11.4707 5.17717 12.5501C6.01386 13.4801 7.29962 14.1136 8.54976 14.2001C8.5823 14.2012 8.61483 14.2023 8.64836 14.2034C8.67173 14.2043 8.69511 14.2052 8.71919 14.2062C9.73595 14.2408 10.766 14.0285 11.6438 13.4984C11.8066 13.4127 11.9842 13.4132 12.164 13.43C12.3959 13.5047 12.5803 13.6256 12.7045 13.8387C12.8075 14.0683 12.7968 14.3152 12.7089 14.5484C12.5307 14.8925 12.112 15.0328 11.7773 15.1878C11.7538 15.1987 11.7304 15.2097 11.7062 15.2209C11.2764 15.4183 10.8318 15.5418 10.371 15.6448C10.3299 15.6543 10.3299 15.6543 10.2879 15.6641C9.45965 15.8479 8.45427 15.8339 7.62883 15.6448C7.59807 15.6382 7.56732 15.6316 7.53563 15.6248C6.51875 15.4024 5.59031 14.9611 4.78117 14.3089C4.76055 14.2923 4.73993 14.2758 4.71869 14.2587C4.27405 13.899 3.89238 13.5014 3.5507 13.0433C3.52872 13.0141 3.50674 12.9849 3.4841 12.9548C2.74855 11.9419 2.25415 10.6578 2.24154 9.39799C2.24103 9.35518 2.24103 9.35518 2.2405 9.31151C2.23445 8.68019 2.2401 8.07041 2.39055 7.45341C2.40157 7.40671 2.40157 7.40671 2.41281 7.35906C2.781 5.83888 3.70342 4.4801 4.95695 3.55107C4.99348 3.52392 5.03001 3.49677 5.06764 3.46881C5.84143 2.91429 6.70104 2.55836 7.62883 2.35575C7.65601 2.3495 7.6832 2.34325 7.71121 2.3368C8.53971 2.15273 9.54522 2.16662 10.371 2.35575Z" fill="#FF3D77"/>
<path d="M14.7305 6.11701C14.883 6.24049 15.0189 6.37823 15.1561 6.51829C15.1959 6.55827 15.2358 6.59821 15.2757 6.63812C15.359 6.72155 15.4419 6.80531 15.5245 6.88937C15.6297 6.99628 15.7355 7.10249 15.8415 7.20847C15.9239 7.29085 16.0059 7.3735 16.0879 7.45624C16.1268 7.49545 16.1657 7.53461 16.2048 7.5737C16.6217 7.99242 16.9554 8.38539 16.9629 8.99982C16.9542 9.65701 16.559 10.0709 16.1161 10.5147C16.0772 10.554 16.0382 10.5933 15.9993 10.6326C15.9182 10.7143 15.8369 10.7958 15.7555 10.8772C15.6518 10.9808 15.5489 11.0852 15.4461 11.1898C15.3661 11.271 15.2856 11.3516 15.205 11.4322C15.1669 11.4705 15.1289 11.5089 15.0911 11.5475C14.8435 11.8 14.6044 12.0158 14.2361 12.0408C13.9664 12.0066 13.782 11.912 13.6122 11.6992C13.5118 11.5491 13.488 11.4416 13.4846 11.2586C13.4832 11.2175 13.4818 11.1763 13.4804 11.1339C13.5205 10.8681 13.7056 10.677 13.8929 10.4951C13.923 10.4652 13.923 10.4652 13.9536 10.4348C14.0168 10.3722 14.0803 10.31 14.1438 10.2479C14.1871 10.2051 14.2303 10.1624 14.2735 10.1196C14.3787 10.0156 14.4842 9.91191 14.5898 9.80842C14.5606 9.80833 14.5313 9.80825 14.5011 9.80816C13.7884 9.80608 13.0757 9.80343 12.3629 9.80013C12.0183 9.79855 11.6736 9.79716 11.3289 9.79624C11.0284 9.79543 10.728 9.79425 10.4275 9.79264C10.2685 9.7918 10.1094 9.79114 9.95037 9.79092C9.80055 9.79071 9.65074 9.79001 9.50092 9.78893C9.44604 9.78862 9.39117 9.78849 9.3363 9.78855C9.01669 9.7888 8.75831 9.78245 8.48145 9.60627C8.30893 9.43375 8.23381 9.24921 8.21777 9.00861C8.22126 8.77462 8.30677 8.56805 8.47266 8.40217C8.68005 8.25873 8.84528 8.22216 9.09384 8.22082C9.11736 8.22065 9.14088 8.22048 9.16511 8.2203C9.24387 8.21976 9.32262 8.21946 9.40138 8.21917C9.45786 8.21883 9.51433 8.21848 9.57081 8.21811C9.72413 8.21716 9.87746 8.21642 10.0308 8.21572C10.191 8.21495 10.3512 8.21399 10.5115 8.21305C10.8149 8.21129 11.1183 8.20971 11.4218 8.2082C11.7672 8.20646 12.1126 8.20453 12.4581 8.20258C13.1687 8.19858 13.8793 8.19482 14.5898 8.19123C14.5459 8.14816 14.5459 8.14816 14.5012 8.10421C14.3922 7.99716 14.2836 7.88976 14.1751 7.78225C14.1281 7.73585 14.0811 7.68954 14.034 7.64334C13.9661 7.57674 13.8986 7.5098 13.8311 7.44279C13.8101 7.42234 13.7891 7.4019 13.7675 7.38084C13.5787 7.1921 13.4849 7.02769 13.4824 6.75422C13.4885 6.49372 13.5499 6.35371 13.727 6.16906C14.0279 5.89356 14.3968 5.93048 14.7305 6.11701Z" fill="#FF3D77"/>
</svg>
