<svg width="24" height="24" viewBox="0 0 24 24" fill="none" xmlns="http://www.w3.org/2000/svg">
<path d="M22.0819 14.0821C21.4762 16.0593 20.2624 17.7951 18.6131 19.0424C17.1651 20.1322 15.442 20.7969 13.6373 20.9618C11.8325 21.1268 10.0175 20.7854 8.39594 19.9761C6.7744 19.1668 5.41051 17.9215 4.45737 16.3802C3.50422 14.8388 2.99955 13.0622 2.99998 11.2499C2.99347 9.13461 3.68113 7.07556 4.95749 5.38868C6.20486 3.73942 7.94064 2.5256 9.9178 1.91993C10.0481 1.8798 10.1869 1.87596 10.3192 1.90882C10.4516 1.94167 10.5724 2.00998 10.6688 2.10639C10.7653 2.2028 10.8336 2.32367 10.8664 2.456C10.8993 2.58834 10.8954 2.72712 10.8553 2.85743C10.423 4.28752 10.3867 5.80811 10.7504 7.25718C11.1141 8.70624 11.8641 10.0295 12.9206 11.0859C13.977 12.1423 15.3002 12.8924 16.7493 13.2561C18.1984 13.6198 19.719 13.5835 21.149 13.1512C21.2794 13.1111 21.4181 13.1072 21.5505 13.1401C21.6828 13.1729 21.8037 13.2412 21.9001 13.3376C21.9965 13.4341 22.0648 13.5549 22.0977 13.6873C22.1305 13.8196 22.1267 13.9584 22.0865 14.0887L22.0819 14.0821Z" fill="white"/>
</svg>
