<svg width="220" height="230" viewBox="0 0 220 230" fill="none" xmlns="http://www.w3.org/2000/svg">
<g clip-path="url(#clip0_19962_6680)">
<path d="M201.776 196.729L191.699 206.007L199.707 192.569C193.398 181.127 183.078 171.238 183.078 171.238C183.078 171.238 161.669 191.75 161.669 207.873C161.669 223.996 171.254 229.626 183.078 229.626C194.902 229.626 204.487 223.996 204.487 207.873C204.487 204.284 203.425 200.478 201.776 196.729Z" fill="#F2F2F2"/>
<path d="M189.107 206.509V207.303C189.06 216.541 187.502 223.749 184.445 228.824C184.401 228.899 184.354 228.97 184.311 229.045L183.969 228.836L183.642 228.631C187.034 223.151 188.234 215.404 188.277 207.347C188.281 207.087 188.285 206.823 188.281 206.56C188.269 203.149 188.06 199.698 187.726 196.346C187.702 196.086 187.675 195.823 187.647 195.559C187.183 191.137 186.514 186.911 185.83 183.241C185.782 182.981 185.731 182.721 185.68 182.466C184.496 176.257 183.288 171.76 183.013 170.765C182.981 170.643 182.962 170.576 182.958 170.56L183.331 170.454L183.335 170.45L183.713 170.344C183.717 170.359 183.784 170.584 183.894 171.001C184.315 172.559 185.409 176.788 186.483 182.367C186.53 182.619 186.581 182.879 186.628 183.138C187.187 186.117 187.734 189.445 188.167 192.939C188.277 193.816 188.375 194.682 188.462 195.536C188.493 195.799 188.521 196.063 188.544 196.322C188.906 199.946 189.094 203.341 189.107 206.509Z" fill="white"/>
<path d="M186.483 182.369C186.219 182.404 185.952 182.44 185.68 182.467C184.943 182.543 184.202 182.581 183.461 182.581C180.303 182.585 177.184 181.881 174.333 180.52C174.168 180.728 174.003 180.937 173.834 181.149C176.832 182.613 180.125 183.372 183.461 183.368C184.252 183.368 185.043 183.326 185.83 183.242C186.097 183.215 186.365 183.179 186.628 183.14C188.804 182.828 190.92 182.187 192.904 181.24C192.735 181.023 192.569 180.811 192.408 180.602C190.531 181.48 188.534 182.075 186.483 182.369Z" fill="white"/>
<path d="M188.462 195.536C188.19 195.551 187.919 195.559 187.647 195.559C187.565 195.563 187.478 195.563 187.396 195.563C183.973 195.563 180.601 194.736 177.568 193.151C174.535 191.566 171.929 189.272 169.974 186.463C169.817 186.695 169.659 186.927 169.506 187.163C171.544 190.005 174.229 192.321 177.34 193.919C180.451 195.516 183.898 196.35 187.396 196.35C187.506 196.35 187.616 196.35 187.726 196.346C188.001 196.342 188.273 196.334 188.544 196.322C192.745 196.107 196.795 194.687 200.21 192.231C200.084 191.999 199.958 191.766 199.828 191.534C196.509 193.946 192.559 195.336 188.462 195.536Z" fill="white"/>
<path d="M189.107 206.509C188.832 206.533 188.556 206.549 188.281 206.56C187.986 206.572 187.691 206.58 187.396 206.58C182.797 206.575 178.323 205.08 174.645 202.32C170.967 199.559 168.282 195.682 166.992 191.268C166.815 191.586 166.638 191.901 166.469 192.22C167.922 196.624 170.726 200.457 174.483 203.177C178.24 205.896 182.758 207.362 187.396 207.367C187.691 207.367 187.986 207.363 188.277 207.347C188.556 207.339 188.832 207.324 189.107 207.304C194.67 206.869 199.859 204.336 203.625 200.218C203.542 199.927 203.448 199.64 203.353 199.349C199.716 203.497 194.606 206.066 189.107 206.509Z" fill="white"/>
<path d="M165.537 50.2135L55.9304 36.2394C55.6351 36.2016 55.3377 36.1823 55.04 36.1817C54.7466 36.1811 54.4535 36.1997 54.1625 36.2371C53.8719 36.2744 53.5842 36.3307 53.301 36.4057C53.0145 36.4822 52.7332 36.5771 52.4589 36.6898C52.1902 36.8001 51.9285 36.9266 51.6751 37.0687C51.4183 37.2118 51.1702 37.3699 50.932 37.5423C50.6884 37.7192 50.455 37.9097 50.233 38.113C50.0038 38.3222 49.7859 38.5435 49.5804 38.776C49.3695 39.0155 49.1709 39.2655 48.9856 39.5253C48.7983 39.7883 48.6226 40.0619 48.4584 40.346C48.2943 40.6311 48.1419 40.9276 48.0014 41.2354C47.8609 41.5433 47.7327 41.8615 47.6169 42.1902C47.4969 42.5299 47.3917 42.8772 47.3014 43.2321C47.2111 43.587 47.1357 43.9481 47.0751 44.3153C47.0157 44.6821 46.9702 45.055 46.9387 45.4339C46.9071 45.8128 46.8913 46.1962 46.8913 46.5843C46.8926 46.972 46.9083 47.3584 46.9387 47.7436C46.969 48.1288 47.0144 48.5109 47.0751 48.8898C47.1363 49.2702 47.2121 49.6469 47.3024 50.0198C47.3927 50.3926 47.4978 50.7613 47.6178 51.1256C47.7337 51.4777 47.8618 51.8217 48.0024 52.1576C48.1429 52.4939 48.2952 52.821 48.4594 53.1389C48.6236 53.4568 48.7993 53.7656 48.9865 54.0653C49.1734 54.3662 49.3717 54.6557 49.5813 54.9338C49.791 55.212 50.0085 55.4774 50.234 55.73C50.4594 55.981 50.6924 56.2178 50.933 56.4404C51.1736 56.663 51.4213 56.8709 51.6761 57.0641C51.9281 57.2554 52.1897 57.4337 52.4599 57.5983C52.732 57.7643 53.0131 57.915 53.3019 58.0497C53.5822 58.1802 53.8698 58.2943 54.1634 58.3911C54.451 58.486 54.744 58.5634 55.041 58.6227C55.335 58.6813 55.6324 58.7216 55.9314 58.7435L165.538 66.761C165.857 66.7842 166.178 66.7522 166.486 66.6663C166.642 66.6227 166.795 66.5663 166.943 66.4977C167.097 66.4261 167.245 66.3429 167.386 66.249C167.53 66.1539 167.667 66.0495 167.796 65.9365C167.933 65.8179 168.062 65.6914 168.183 65.5576C168.311 65.4162 168.432 65.2683 168.544 65.1143C168.661 64.9558 168.773 64.7869 168.88 64.6076C168.987 64.4282 169.089 64.2412 169.185 64.0463C169.28 63.8515 169.37 63.6491 169.453 63.4392C169.537 63.2295 169.614 63.0126 169.685 62.7885C169.756 62.5643 169.821 62.3335 169.879 62.0961C169.941 61.8504 169.994 61.6004 170.039 61.3459C170.083 61.0914 170.121 60.8331 170.153 60.5711C170.183 60.309 170.206 60.0435 170.221 59.7745C170.236 59.5055 170.244 59.2335 170.244 58.9585C170.243 58.6838 170.236 58.4103 170.221 58.1382C170.207 57.866 170.184 57.5959 170.153 57.3279C170.122 57.0598 170.084 56.794 170.039 56.5303C169.993 56.2667 169.94 56.0059 169.879 55.7479C169.821 55.4985 169.756 55.2548 169.685 55.0167C169.615 54.7818 169.537 54.5504 169.453 54.3224C169.369 54.0944 169.279 53.8734 169.185 53.6594C169.089 53.4456 168.988 53.2382 168.88 53.0371C168.772 52.8359 168.66 52.6446 168.544 52.463C168.428 52.2815 168.308 52.1094 168.183 51.9468C168.058 51.7842 167.929 51.632 167.796 51.4902C167.667 51.3513 167.53 51.2195 167.386 51.0953C167.246 50.9736 167.097 50.8608 166.943 50.7576C166.797 50.6601 166.644 50.5731 166.486 50.4971C166.334 50.4245 166.177 50.3637 166.017 50.3153C165.86 50.2683 165.7 50.2342 165.537 50.2135Z" fill="#1E7944"/>
<path d="M165.537 81.7308L55.9304 79.1057C55.3358 79.091 54.7418 79.1516 54.1625 79.2861C53.8702 79.3542 53.5825 79.4403 53.301 79.5442C53.0131 79.6503 52.7319 79.7737 52.4589 79.9136C52.1893 80.0518 51.9277 80.2048 51.6751 80.3721C51.4177 80.5425 51.1697 80.7267 50.932 80.9238C50.6882 81.1261 50.4549 81.3408 50.233 81.567C50.0073 81.7968 49.7897 82.0412 49.5804 82.3001C49.3711 82.5596 49.1728 82.83 48.9855 83.1113C48.7983 83.3927 48.6226 83.6844 48.4584 83.9866C48.2943 84.2887 48.1419 84.601 48.0014 84.9233C47.8609 85.2457 47.7327 85.5772 47.6168 85.9179C47.4969 86.2706 47.3917 86.6289 47.3014 86.993C47.2111 87.357 47.1357 87.7258 47.075 88.0993C47.0157 88.4728 46.9702 88.8506 46.9387 89.2326C46.9071 89.6147 46.8913 89.9997 46.8913 90.3877C46.8926 90.7758 46.9083 91.1607 46.9387 91.5424C46.969 91.9241 47.0144 92.3016 47.075 92.6747C47.1363 93.0461 47.2121 93.4134 47.3024 93.7768C47.3927 94.1402 47.4978 94.498 47.6178 94.85C47.7336 95.1916 47.8618 95.5231 48.0023 95.8446C48.1429 96.166 48.2952 96.4773 48.4594 96.7785C48.6236 97.0797 48.7993 97.3703 48.9865 97.6504C49.1734 97.9295 49.3717 98.1979 49.5813 98.4555C49.791 98.7131 50.0085 98.9561 50.234 99.1844C50.4558 99.4092 50.6891 99.6225 50.933 99.8233C51.1706 100.019 51.4187 100.201 51.6761 100.37C51.9287 100.536 52.1903 100.687 52.4599 100.824C52.7329 100.962 53.0141 101.083 53.3019 101.188C53.5835 101.29 53.8713 101.374 54.1634 101.44C54.4526 101.506 54.7457 101.553 55.041 101.582C55.3369 101.611 55.6343 101.62 55.9314 101.611L165.537 98.2765C165.698 98.2716 165.859 98.253 166.017 98.2211C166.176 98.1887 166.333 98.1432 166.486 98.0852C166.643 98.0249 166.796 97.9527 166.943 97.8692C167.097 97.7813 167.245 97.6828 167.386 97.5746C167.53 97.4644 167.667 97.3458 167.796 97.2194C167.933 97.0868 168.062 96.9471 168.183 96.8008C168.307 96.6517 168.428 96.4915 168.544 96.3201C168.661 96.1486 168.773 95.9682 168.88 95.7787C168.987 95.588 169.089 95.3904 169.185 95.1858C169.28 94.9812 169.37 94.7696 169.453 94.5512C169.537 94.3292 169.614 94.1033 169.685 93.8734C169.756 93.6436 169.821 93.4068 169.879 93.1631C169.941 92.9136 169.994 92.6593 170.038 92.4001C170.083 92.1409 170.121 91.8786 170.153 91.6134C170.183 91.3473 170.206 91.0789 170.221 90.8083C170.236 90.5377 170.244 90.2649 170.244 89.9899C170.243 89.7175 170.235 89.4453 170.221 89.1734C170.207 88.9016 170.184 88.6332 170.153 88.3683C170.122 88.1025 170.084 87.8406 170.038 87.5826C169.993 87.3247 169.94 87.0694 169.879 86.8168C169.821 86.5731 169.756 86.3356 169.685 86.1045C169.614 85.8734 169.536 85.6489 169.453 85.4311C169.37 85.2132 169.281 85.0021 169.185 84.7979C169.089 84.5936 168.988 84.3967 168.881 84.2073C168.773 84.0175 168.661 83.8376 168.545 83.6674C168.429 83.4972 168.308 83.3376 168.183 83.1886C168.062 83.043 167.933 82.9041 167.797 82.7723C167.667 82.6468 167.53 82.5291 167.387 82.4199C167.246 82.3126 167.098 82.2151 166.943 82.1282C166.796 82.0459 166.643 81.9749 166.486 81.916C166.333 81.8589 166.176 81.8144 166.017 81.7829C165.859 81.752 165.698 81.7346 165.537 81.7308Z" fill="#E4E4E4"/>
<path d="M165.537 111.277L55.9304 119.293C55.6314 119.315 55.3341 119.355 55.04 119.414C54.7431 119.473 54.45 119.55 54.1625 119.645C53.8689 119.742 53.5812 119.856 53.301 119.987C53.0121 120.122 52.731 120.272 52.4589 120.438C52.1887 120.603 51.9271 120.781 51.6751 120.972C51.42 121.167 51.1723 121.375 50.932 121.596C50.6918 121.818 50.4588 122.055 50.233 122.307C50.0073 122.558 49.7897 122.824 49.5804 123.103C49.3711 123.383 49.1728 123.673 48.9856 123.972C48.7983 124.272 48.6226 124.581 48.4584 124.899C48.2943 125.217 48.1419 125.544 48.0014 125.88C47.8609 126.216 47.7327 126.56 47.6169 126.912C47.4969 127.276 47.3917 127.644 47.3014 128.018C47.2111 128.391 47.1357 128.767 47.0751 129.146C47.0157 129.526 46.9702 129.908 46.9387 130.293C46.9071 130.678 46.8913 131.064 46.8913 131.452C46.8926 131.84 46.9083 132.224 46.9387 132.603C46.969 132.981 47.0144 133.355 47.0751 133.722C47.1363 134.09 47.2121 134.451 47.3024 134.805C47.3927 135.16 47.4978 135.507 47.6178 135.847C47.7337 136.176 47.8618 136.494 48.0024 136.802C48.1429 137.11 48.2952 137.406 48.4594 137.691C48.6236 137.977 48.7993 138.25 48.9865 138.512C49.1719 138.772 49.3704 139.022 49.5813 139.261C49.7869 139.494 50.0047 139.715 50.234 139.924C50.456 140.128 50.6894 140.318 50.933 140.495C51.1711 140.668 51.4193 140.826 51.6761 140.969C51.9294 141.111 52.1912 141.237 52.4599 141.348C52.7342 141.46 53.0154 141.555 53.3019 141.632C53.5851 141.707 53.8729 141.763 54.1634 141.8C54.4544 141.838 54.7476 141.856 55.041 141.856C55.3387 141.855 55.6361 141.836 55.9314 141.798L165.537 127.827C165.7 127.807 165.86 127.772 166.017 127.725C166.177 127.677 166.334 127.616 166.486 127.544C166.644 127.468 166.797 127.381 166.943 127.283C167.097 127.18 167.246 127.067 167.386 126.945C167.53 126.821 167.667 126.689 167.796 126.55C167.928 126.408 168.057 126.256 168.183 126.094C168.307 125.932 168.428 125.76 168.544 125.578C168.661 125.396 168.773 125.204 168.88 125.004C168.987 124.804 169.089 124.597 169.185 124.381C169.28 124.166 169.37 123.945 169.453 123.718C169.537 123.491 169.614 123.258 169.685 123.02C169.756 122.782 169.821 122.538 169.879 122.289C169.941 122.03 169.994 121.769 170.039 121.506C170.083 121.242 170.121 120.976 170.153 120.708C170.183 120.44 170.206 120.17 170.221 119.898C170.236 119.626 170.244 119.352 170.244 119.077C170.243 118.804 170.235 118.532 170.221 118.263C170.207 117.994 170.184 117.729 170.152 117.467C170.122 117.204 170.084 116.945 170.038 116.691C169.993 116.436 169.94 116.186 169.879 115.94C169.821 115.703 169.756 115.472 169.685 115.248C169.615 115.024 169.538 114.807 169.454 114.597C169.369 114.387 169.28 114.185 169.185 113.99C169.089 113.797 168.987 113.61 168.879 113.43C168.771 113.25 168.66 113.081 168.543 112.924C168.431 112.77 168.31 112.622 168.182 112.48C168.061 112.347 167.932 112.22 167.796 112.101C167.666 111.988 167.529 111.884 167.385 111.789C167.244 111.695 167.096 111.612 166.942 111.54C166.794 111.472 166.641 111.415 166.485 111.372C166.177 111.286 165.856 111.254 165.537 111.277Z" fill="#E4E4E4"/>
<path d="M105.796 112.746C106.49 113.901 107.584 114.76 108.87 115.161C110.156 115.562 111.545 115.477 112.772 114.921C113.999 114.366 114.98 113.38 115.528 112.149C116.076 110.918 116.153 109.529 115.744 108.246L136.987 64.6037L126.819 58.4395L108.473 104.796C108.403 104.824 108.334 104.852 108.266 104.882C108.198 104.912 108.13 104.943 108.063 104.976C107.995 105.008 107.928 105.042 107.862 105.078C107.795 105.114 107.729 105.152 107.664 105.191C106.414 105.946 105.516 107.165 105.165 108.582C104.815 109.998 105.041 111.496 105.795 112.746L105.796 112.746Z" fill="#E4897B"/>
<path d="M132.932 81.4317L117.841 77.5638C117.841 77.5638 118.334 76.4499 119.134 74.6047C119.935 72.7594 121.054 70.1863 122.313 67.2649C123.571 64.3434 124.968 61.0792 126.332 57.8526C127.696 54.626 129.022 51.438 130.139 48.6747C131.257 45.9115 132.526 44.2566 133.801 43.329C134.857 42.5267 136.187 42.1732 137.502 42.3454C138.524 42.4976 139.5 42.8694 140.365 43.4353C140.774 43.6899 141.159 43.9819 141.514 44.3076L145.013 50.6707L132.932 81.4317Z" fill="#CCCCCC"/>
<path d="M12.158 77.976C11.7925 78.003 11.4289 78.0504 11.0687 78.1181C10.7062 78.1859 10.3478 78.2739 9.99506 78.3814C9.63694 78.4908 9.28501 78.6195 8.94082 78.7669C8.58855 78.9178 8.24441 79.0869 7.9098 79.2737C7.58238 79.4578 7.26239 79.6579 6.94981 79.8742C6.63723 80.0905 6.33365 80.3229 6.03907 80.5713C5.74481 80.8192 5.45923 81.0835 5.18233 81.3641C4.90543 81.6448 4.63865 81.9408 4.38196 82.2521C4.12527 82.5635 3.88199 82.886 3.65213 83.2197C3.42227 83.5534 3.20663 83.8973 3.0052 84.2512C2.80565 84.6058 2.61905 84.9699 2.44539 85.3438C2.27174 85.7176 2.11388 86.1001 1.9718 86.4913C1.82372 86.897 1.69411 87.307 1.58297 87.7212C1.47183 88.1355 1.37916 88.5532 1.30497 88.9744C1.23045 89.3956 1.17457 89.8196 1.13732 90.2465C1.10006 90.6733 1.08144 91.1019 1.08145 91.5323C1.08145 91.9626 1.10007 92.3875 1.13732 92.8068C1.17456 93.226 1.23044 93.6389 1.30497 94.0452C1.37917 94.4516 1.47184 94.8507 1.58297 95.2425C1.69411 95.6343 1.82325 96.0181 1.97038 96.3938C2.11372 96.7566 2.27159 97.1075 2.44398 97.4466C2.61438 97.7823 2.80152 98.1091 3.00472 98.426C3.20473 98.7369 3.42067 99.0372 3.65166 99.3258C3.88045 99.6127 4.12422 99.8873 4.38195 100.148C4.63542 100.405 4.90261 100.648 5.18233 100.876C5.45625 101.099 5.74243 101.307 6.03954 101.498C6.62589 101.875 7.25356 102.184 7.91027 102.418C8.58347 102.659 9.28306 102.818 9.9941 102.892C10.3507 102.929 10.7093 102.945 11.0678 102.939C11.432 102.934 11.7957 102.909 12.157 102.862C12.5216 102.816 12.8834 102.749 13.2406 102.663C13.599 102.576 13.9523 102.47 14.2991 102.345C14.6499 102.219 14.9937 102.074 15.3292 101.911C15.671 101.745 16.0042 101.562 16.3275 101.362C16.6423 101.166 16.9489 100.955 17.2473 100.731C17.5456 100.506 17.8347 100.266 18.1144 100.012C18.3942 99.7572 18.6643 99.4888 18.9248 99.2065C19.1852 98.9242 19.4356 98.6281 19.6759 98.3181C19.9177 98.0083 20.1454 97.6893 20.3588 97.3609C20.5723 97.0325 20.7721 96.6955 20.9584 96.3498C21.1447 96.004 21.3171 95.6503 21.4756 95.2884C21.6341 94.9266 21.7785 94.5572 21.9089 94.1802C22.0441 93.79 22.1623 93.3964 22.2637 92.9995C22.365 92.6026 22.4496 92.2029 22.5175 91.8004C22.5851 91.3975 22.6359 90.9926 22.67 90.5856C22.7041 90.1786 22.7212 89.7699 22.7212 89.3594C22.7208 88.949 22.7038 88.5436 22.67 88.1432C22.6362 87.7429 22.5854 87.3482 22.5175 86.9592C22.4499 86.5709 22.3653 86.1882 22.2637 85.8112C22.162 85.4342 22.0438 85.0644 21.9089 84.7016C21.7779 84.3505 21.6335 84.01 21.4756 83.68C21.3155 83.351 21.1423 83.0318 20.9561 82.7224C20.5873 82.1109 20.1584 81.5377 19.6759 81.0113C19.4391 80.7524 19.189 80.5059 18.9267 80.273C18.6683 80.0443 18.3978 79.8298 18.1164 79.6303C17.8376 79.4327 17.5481 79.2507 17.2492 79.0852C16.9505 78.9197 16.6428 78.7711 16.3276 78.64C15.6766 78.3689 14.9959 78.1757 14.2996 78.0646C13.9491 78.0087 13.5957 77.9734 13.2411 77.9589C12.8799 77.9443 12.5181 77.9503 12.1575 77.977" fill="#E4E4E4"/>
<path d="M12.158 122.494C11.7925 122.521 11.4289 122.568 11.0687 122.636C10.7062 122.704 10.3478 122.791 9.99506 122.899C9.63694 123.008 9.28501 123.137 8.94082 123.285C8.58855 123.435 8.24441 123.604 7.9098 123.791C7.58238 123.975 7.26239 124.176 6.94981 124.392C6.63723 124.608 6.33365 124.84 6.03907 125.089C5.74481 125.337 5.45923 125.601 5.18233 125.882C4.90543 126.162 4.63865 126.458 4.38196 126.77C4.12527 127.081 3.88199 127.404 3.65213 127.737C3.42227 128.071 3.20663 128.415 3.0052 128.769C2.80565 129.123 2.61905 129.488 2.44539 129.861C2.27174 130.235 2.11388 130.618 1.9718 131.009C1.82372 131.415 1.69411 131.825 1.58297 132.239C1.47183 132.653 1.37916 133.071 1.30497 133.492C1.23045 133.913 1.17457 134.337 1.13732 134.764C1.10006 135.191 1.08144 135.62 1.08145 136.05C1.08145 136.48 1.10007 136.905 1.13732 137.324C1.17456 137.744 1.23044 138.156 1.30497 138.563C1.37917 138.969 1.47184 139.368 1.58297 139.76C1.69411 140.152 1.82325 140.536 1.97038 140.911C2.11372 141.274 2.27159 141.625 2.44398 141.964C2.61438 142.3 2.80152 142.627 3.00472 142.944C3.20473 143.254 3.42067 143.555 3.65166 143.843C3.88045 144.13 4.12422 144.405 4.38195 144.666C4.63542 144.923 4.90261 145.166 5.18233 145.394C5.45625 145.617 5.74243 145.824 6.03954 146.015C6.62589 146.393 7.25356 146.702 7.91027 146.936C8.58347 147.177 9.28306 147.336 9.9941 147.41C10.3507 147.446 10.7092 147.462 11.0678 147.457C11.432 147.452 11.7957 147.426 12.157 147.38C12.5216 147.333 12.8834 147.267 13.2406 147.18C13.599 147.094 13.9523 146.988 14.2991 146.863C14.6499 146.736 14.9937 146.591 15.3292 146.428C15.671 146.263 16.0042 146.079 16.3275 145.88C16.6423 145.684 16.9489 145.473 17.2473 145.248C17.5456 145.023 17.8347 144.784 18.1144 144.529C18.3942 144.275 18.6643 144.006 18.9248 143.724C19.1852 143.442 19.4356 143.146 19.6759 142.836C19.9177 142.526 20.1454 142.207 20.3588 141.878C20.5723 141.55 20.7721 141.213 20.9584 140.867C21.1447 140.522 21.3171 140.168 21.4756 139.806C21.6341 139.444 21.7785 139.075 21.9089 138.698C22.0441 138.308 22.1623 137.914 22.2637 137.517C22.365 137.12 22.4496 136.721 22.5175 136.318C22.5851 135.915 22.6359 135.51 22.67 135.103C22.7041 134.696 22.7212 134.287 22.7212 133.877C22.7208 133.467 22.7038 133.061 22.67 132.661C22.6362 132.26 22.5854 131.866 22.5175 131.477C22.4499 131.088 22.3653 130.706 22.2637 130.329C22.162 129.952 22.0438 129.582 21.9089 129.219C21.7779 128.868 21.6335 128.528 21.4756 128.198C21.3155 127.869 21.1423 127.549 20.9561 127.24C20.5873 126.628 20.1584 126.055 19.6759 125.529C19.4391 125.27 19.189 125.024 18.9267 124.791C18.6683 124.562 18.3978 124.347 18.1164 124.148C17.8376 123.95 17.5481 123.768 17.2492 123.603C16.9505 123.437 16.6428 123.289 16.3276 123.158C15.6766 122.886 14.9959 122.693 14.2996 122.582C13.9491 122.526 13.5957 122.491 13.2411 122.477C12.8799 122.462 12.5181 122.468 12.1575 122.495" fill="#E4E4E4"/>
<path d="M12.1599 29.7482C11.7964 29.7393 11.4327 29.7512 11.0706 29.7837C10.71 29.8161 10.3515 29.8692 9.99696 29.9428C9.64042 30.0173 9.28842 30.1122 8.94272 30.227C8.59171 30.3432 8.2475 30.479 7.9117 30.6338C7.58303 30.7852 7.26258 30.9539 6.95172 31.1391C6.63778 31.3262 6.33379 31.5295 6.04098 31.7482C5.74344 31.9704 5.45734 32.2075 5.18377 32.4586C4.90561 32.714 4.63835 32.9847 4.38197 33.2708C4.12528 33.5572 3.882 33.8562 3.65214 34.1678C3.42228 34.4794 3.20664 34.8024 3.00521 35.1368C2.80471 35.4756 2.61764 35.8227 2.44399 36.1782C2.27034 36.5337 2.11248 36.9009 1.97039 37.2798C1.82326 37.6704 1.69412 38.0674 1.58298 38.4709C1.47184 38.8744 1.37917 39.2831 1.30498 39.6971C1.23047 40.1122 1.17459 40.5309 1.13733 40.9531C1.10007 41.3752 1.08145 41.8014 1.08146 42.2318C1.08146 42.6615 1.10008 43.0877 1.13733 43.5105C1.17457 43.9332 1.23045 44.3514 1.30498 44.765C1.37918 45.1787 1.47185 45.5867 1.58298 45.9893C1.69412 46.3919 1.82326 46.7881 1.97039 47.178C2.11373 47.5547 2.27159 47.9209 2.44399 48.2768C2.61764 48.6313 2.80518 48.9753 3.0066 49.3088C3.20802 49.6422 3.42368 49.9638 3.65355 50.2735C3.88309 50.5842 4.12635 50.8816 4.38337 51.1657C4.64038 51.4499 4.90717 51.7183 5.18375 51.9709C5.45589 52.221 5.74057 52.4572 6.03669 52.6784C6.32955 52.8951 6.63354 53.0964 6.94743 53.2813C7.25835 53.4646 7.5788 53.6312 7.90742 53.7805C8.2433 53.9331 8.58752 54.0668 8.93845 54.1807C9.62899 54.4041 10.343 54.5471 11.0663 54.6069C11.7906 54.667 12.5194 54.6449 13.2387 54.5411C13.5953 54.4895 13.9488 54.4177 14.2972 54.3261C14.6466 54.234 14.9905 54.1224 15.3273 53.9917C15.6681 53.8596 16.0014 53.7089 16.3256 53.5404C16.6419 53.3761 16.9495 53.1957 17.2473 53C17.5468 52.8029 17.8362 52.591 18.1144 52.3649C18.3942 52.1376 18.6643 51.8954 18.9248 51.6384C19.1852 51.3814 19.4356 51.1095 19.6759 50.8228C19.9177 50.5362 20.1454 50.2391 20.3588 49.9315C20.5723 49.624 20.7721 49.3064 20.9584 48.9786C21.1453 48.6509 21.3177 48.3139 21.4756 47.9675C21.6334 47.6212 21.7779 47.2664 21.9089 46.9033C22.0441 46.5264 22.1623 46.1443 22.2637 45.7572C22.365 45.3701 22.4496 44.9786 22.5175 44.5827C22.5851 44.1852 22.6359 43.7845 22.67 43.3807C22.7041 42.9769 22.7212 42.5697 22.7212 42.1593C22.7208 41.7492 22.7038 41.3422 22.67 40.9384C22.6362 40.5345 22.5854 40.135 22.5175 39.7397C22.4499 39.3441 22.3653 38.9529 22.2637 38.5661C22.162 38.1793 22.0438 37.7979 21.9089 37.4219C21.7779 37.0585 21.6335 36.7041 21.4756 36.3587C21.3177 36.0132 21.1445 35.6768 20.9561 35.3494C20.7698 35.0248 20.5699 34.7091 20.3564 34.4022C20.143 34.0953 19.9161 33.7998 19.6759 33.5156C19.4372 33.2318 19.1875 32.962 18.9267 32.7063C18.6659 32.4505 18.3957 32.2101 18.1163 31.985C17.8382 31.7602 17.549 31.5497 17.2496 31.3541C16.9518 31.1602 16.6442 30.9817 16.328 30.8195C16.0036 30.6529 15.6704 30.5042 15.3297 30.3743C14.9927 30.2457 14.6488 30.1363 14.2996 30.0465C13.951 29.957 13.5976 29.8874 13.2411 29.8382C12.8818 29.7886 12.5201 29.7595 12.1575 29.751M12.1575 28.5661C13.7484 28.6096 15.3088 29.0135 16.7211 29.7472C18.1246 30.4811 19.3686 31.486 20.3811 32.7039C21.4395 33.9731 22.2637 35.4204 22.8154 36.9781C23.9968 40.3311 23.9968 43.9871 22.8154 47.34C22.2631 48.9023 21.439 50.3546 20.3811 51.6299C19.3684 52.8535 18.1246 53.8656 16.7206 54.6083C15.3102 55.3509 13.7501 55.7648 12.157 55.8193C10.5542 55.8719 8.96077 55.5543 7.50059 54.8911C6.02651 54.2159 4.70777 53.2435 3.62702 52.0348C2.47938 50.7549 1.58116 49.2717 0.97866 47.6616C-0.32624 44.1565 -0.32624 40.299 0.97866 36.7939C1.58175 35.179 2.47979 33.6903 3.62702 32.4036C4.70744 31.1882 6.02584 30.2075 7.50059 29.5223C8.95963 28.8497 10.5539 28.5219 12.1599 28.5642L12.1575 28.5661Z" fill="#1E7944"/>
<path d="M12.159 45.5408L8.42841 37.769L9.31404 37.1922L12.3867 43.5768L25.2885 28.4121L26.0695 29.2442L12.159 45.5408Z" fill="#1E7944"/>
<path d="M147.928 198.977L138.693 198.941L141.671 223.073L147.928 223.104V198.977Z" fill="#E4897B"/>
<path d="M149.524 229.177L129.359 229.07V228.815C129.359 228.298 129.409 227.781 129.51 227.274C129.708 226.272 130.103 225.32 130.672 224.472C131.25 223.613 131.991 222.876 132.853 222.302C133.704 221.737 134.658 221.346 135.66 221.152C136.169 221.054 136.685 221.007 137.203 221.01L149.524 221.071V229.177Z" fill="#2F2E41"/>
<path d="M118.358 198.864L109.15 198.828L112.118 222.927L118.358 222.958V198.864Z" fill="#E4897B"/>
<path d="M119.95 229.02L99.8378 228.915V228.66C99.8376 228.143 99.8881 227.628 99.9884 227.121C100.186 226.121 100.58 225.17 101.148 224.323C101.724 223.465 102.463 222.728 103.323 222.155C104.172 221.591 105.123 221.201 106.123 221.007C106.63 220.91 107.146 220.862 107.662 220.865L119.95 220.926V229.02Z" fill="#2F2E41"/>
<path d="M117.967 100.232L102.482 158.022L108.15 213.417L120.7 213.764L117.968 163.744L133.624 138.783L137.02 214.104L148.404 213.299L154.737 148.538C156.888 143.481 158.466 138.2 159.44 132.791C160.206 128.546 160.578 124.24 160.553 119.926C160.54 117.022 160.317 114.123 159.885 111.251C159.731 110.181 159.522 109.119 159.259 108.07L154.642 103.39L117.967 100.232Z" fill="#2F2E41"/>
<path d="M138.484 109.898C135.88 109.898 133.436 109.814 131.221 109.649C128.957 109.494 126.706 109.198 124.479 108.762C122.584 108.408 120.738 107.827 118.981 107.031C117.567 106.42 116.337 105.45 115.415 104.216L115.309 104.063L119.542 76.5171L124.106 45.545C124.406 43.4954 125.45 41.6279 127.038 40.2979C128.626 38.9678 130.648 38.2682 132.718 38.3322L147.013 38.7702C148.085 38.803 149.14 39.0508 150.114 39.4987C151.088 39.9467 151.963 40.5857 152.686 41.378C153.409 42.1702 153.965 43.0995 154.322 44.1108C154.679 45.122 154.83 46.1947 154.765 47.2652L152.888 78.0672L159.81 108.45L159.32 108.518C159.122 108.545 158.363 108.645 157.173 108.779C155.618 108.954 154.029 109.111 152.453 109.247C150.222 109.439 148.039 109.591 145.965 109.697C143.334 109.831 140.812 109.896 138.484 109.898Z" fill="#CCCCCC"/>
<path d="M130.552 32.8571C130.548 32.8571 130.544 32.8571 130.54 32.8571C130.24 32.8569 129.943 32.7977 129.666 32.6827C129.389 32.5678 129.138 32.3994 128.926 32.1872C128.714 31.975 128.546 31.7232 128.431 31.446C128.317 31.1689 128.258 30.8719 128.258 30.572V17.8274C128.256 15.5441 128.713 13.2837 129.602 11.1805C131.342 7.07618 134.6 3.8019 138.695 2.04001C141.285 0.929099 144.11 0.477871 146.917 0.726732C149.724 0.975593 152.426 1.91677 154.78 3.46599C157.134 5.01522 159.068 7.12412 160.407 9.60384C161.746 12.0836 162.449 14.8567 162.454 17.6749V30.4389C162.454 30.7461 162.393 31.0502 162.273 31.3331C162.038 31.8849 161.599 32.3247 161.048 32.5606C160.765 32.6814 160.461 32.744 160.154 32.7449L130.55 32.8571H130.552Z" fill="#2F2E41"/>
<path d="M153.076 13.4583C154.269 15.6363 154.789 18.1188 154.571 20.5923C154.354 23.0658 153.408 25.4194 151.854 27.3557C150.299 29.2921 148.206 30.7244 145.838 31.4717C143.47 32.219 140.934 32.2479 138.549 31.5546C136.97 31.1009 135.497 30.3384 134.215 29.3113C132.933 28.2842 131.868 27.013 131.081 25.5711C129.891 23.3941 129.373 20.9136 129.591 18.4423C129.809 15.9711 130.754 13.6198 132.307 11.6848C133.859 9.74989 135.95 8.31796 138.315 7.56959C140.68 6.82122 143.214 6.78992 145.597 7.47964C147.178 7.93166 148.652 8.69295 149.936 9.71934C151.22 10.7457 152.287 12.0168 153.076 13.4588V13.4583Z" fill="#E4897B"/>
<path d="M124.216 18.8657C124.214 17.0598 124.576 15.2721 125.279 13.6087C126.655 10.3632 129.231 7.77427 132.469 6.38159C134.131 5.66967 135.919 5.29923 137.726 5.29231L140.277 5.27952C140.306 5.27936 140.334 5.27928 140.363 5.2793C142.129 5.28039 143.878 5.62936 145.51 6.3063C147.141 6.98324 148.623 7.9749 149.871 9.22463C151.12 10.4744 152.109 11.9577 152.784 13.59C153.459 15.2223 153.806 16.9715 153.805 18.7378V18.9931L148.409 19.0149L146.569 13.8744L146.201 19.0248L143.414 19.0371L142.486 16.4437L142.3 19.0404L124.218 19.1214L124.216 18.8657Z" fill="#2F2E41"/>
<path d="M102.492 45.6748C101.661 45.8779 100.885 46.2585 100.216 46.7903C99.6927 47.2041 99.2455 47.7055 98.894 48.2723C98.2007 49.3939 97.8953 50.7123 98.0246 52.0245C98.0899 52.6874 98.2697 53.334 98.556 53.9354C98.909 54.6849 99.4169 55.3511 100.046 55.8899C100.676 56.4286 101.412 56.8278 102.207 57.0609C103.002 57.2941 103.838 57.356 104.658 57.2425C105.479 57.129 106.266 56.8427 106.968 56.4026C107.02 56.3692 107.071 56.3353 107.122 56.3009C107.173 56.2665 107.222 56.2314 107.271 56.1956C107.321 56.1598 107.369 56.1233 107.416 56.0863C107.464 56.0494 107.511 56.0119 107.558 55.9738L137.334 66.5714C138.251 66.8973 139.248 66.9167 140.176 66.6268C141.104 66.3369 141.913 65.7533 142.481 64.9639L149.54 55.1899L141.005 49.4426L136.527 54.5305L109.276 49.1098C109.246 49.0391 109.216 48.9689 109.184 48.899C109.152 48.8291 109.119 48.7595 109.084 48.6902C109.049 48.6211 109.013 48.5524 108.975 48.484C108.938 48.4156 108.898 48.3477 108.857 48.2805C108.207 47.23 107.241 46.4122 106.097 45.9441C104.954 45.4761 103.692 45.3818 102.492 45.6748Z" fill="#E4897B"/>
<path d="M137.007 51.3248C137.898 50.2132 139.143 48.7699 140.409 47.3383C141.674 45.9068 142.958 44.488 143.926 43.4266C144.895 42.3652 145.547 41.6618 145.547 41.6618C146.441 40.31 147.775 39.3093 149.323 38.8298C150.871 38.3503 152.538 38.4214 154.039 39.0312C155.541 39.641 156.785 40.7518 157.561 42.1749C158.336 43.598 158.595 45.2456 158.294 46.838C158.121 47.7547 157.765 48.6271 157.247 49.4026C157.247 49.4026 156.276 50.6739 154.809 52.5713C153.343 54.4687 151.381 56.9945 149.402 59.5056C147.423 62.0166 145.425 64.5147 143.884 66.3587C142.343 68.2027 141.259 69.394 141.106 69.2919L135.732 53.3163C135.579 53.2143 136.116 52.4364 137.007 51.3248Z" fill="#CCCCCC"/>
<path d="M140.197 32.457C140.113 32.869 140.145 33.2965 140.292 33.6908C140.365 33.8926 140.467 34.0831 140.593 34.2567C140.701 34.4047 140.826 34.5393 140.966 34.6579C141.38 35.0078 141.905 35.1987 142.448 35.1963C142.481 35.196 142.515 35.1951 142.549 35.1935C142.583 35.1919 142.616 35.1896 142.65 35.1864C142.684 35.1836 142.718 35.1798 142.752 35.175C142.786 35.1703 142.82 35.1649 142.854 35.1589L144.769 34.8108L147.407 29.175V34.3372L156.115 32.7696V10.8633L141.517 10.9334L141.878 11.3525C143.076 12.7589 143.862 14.4685 144.151 16.2931C144.434 18.1412 144.399 20.0242 144.046 21.8603C143.703 23.7181 143.183 25.5388 142.492 27.2972C141.888 28.8549 141.194 30.3766 140.415 31.8546C140.315 32.0442 140.241 32.247 140.197 32.457Z" fill="#2F2E41"/>
<path d="M39.0851 229.838H219.526C219.652 229.838 219.772 229.788 219.861 229.699C219.95 229.61 220 229.49 220 229.364C220 229.239 219.95 229.118 219.861 229.029C219.772 228.941 219.652 228.891 219.526 228.891H39.0851C38.9594 228.891 38.839 228.941 38.7502 229.029C38.6613 229.118 38.6115 229.239 38.6115 229.364C38.6115 229.49 38.6613 229.61 38.7502 229.699C38.839 229.788 38.9594 229.838 39.0851 229.838Z" fill="#CACACA"/>
</g>
<defs>
<clipPath id="clip0_19962_6680">
<rect width="220" height="229.177" fill="white" transform="translate(0 0.660156)"/>
</clipPath>
</defs>
</svg>
