<svg width="279" height="276" viewBox="0 0 279 276" fill="none" xmlns="http://www.w3.org/2000/svg">
<path d="M39.7709 264.747C39.7709 263.795 39.9856 262.941 40.4149 262.185C40.8443 261.419 41.4276 260.822 42.1649 260.393C42.9116 259.963 43.7376 259.749 44.6429 259.749C45.7069 259.749 46.6356 260.005 47.4289 260.519C48.2223 261.032 48.8009 261.76 49.1649 262.703H47.6389C47.3683 262.115 46.9763 261.662 46.4629 261.345C45.9589 261.027 45.3523 260.869 44.6429 260.869C43.9616 260.869 43.3503 261.027 42.8089 261.345C42.2676 261.662 41.8429 262.115 41.5349 262.703C41.2269 263.281 41.0729 263.963 41.0729 264.747C41.0729 265.521 41.2269 266.203 41.5349 266.791C41.8429 267.369 42.2676 267.817 42.8089 268.135C43.3503 268.452 43.9616 268.611 44.6429 268.611C45.3523 268.611 45.9589 268.457 46.4629 268.149C46.9763 267.831 47.3683 267.379 47.6389 266.791H49.1649C48.8009 267.724 48.2223 268.447 47.4289 268.961C46.6356 269.465 45.7069 269.717 44.6429 269.717C43.7376 269.717 42.9116 269.507 42.1649 269.087C41.4276 268.657 40.8443 268.065 40.4149 267.309C39.9856 266.553 39.7709 265.699 39.7709 264.747ZM57.8654 261.961V269.633H56.5914V268.499C56.3487 268.891 56.0081 269.199 55.5694 269.423C55.1401 269.637 54.6641 269.745 54.1414 269.745C53.5441 269.745 53.0074 269.623 52.5314 269.381C52.0554 269.129 51.6774 268.755 51.3974 268.261C51.1267 267.766 50.9914 267.164 50.9914 266.455V261.961H52.2514V266.287C52.2514 267.043 52.4427 267.626 52.8254 268.037C53.2081 268.438 53.7307 268.639 54.3934 268.639C55.0747 268.639 55.6114 268.429 56.0034 268.009C56.3954 267.589 56.5914 266.977 56.5914 266.175V261.961H57.8654ZM61.2905 263.207C61.5145 262.768 61.8318 262.427 62.2425 262.185C62.6625 261.942 63.1711 261.821 63.7685 261.821V263.137H63.4325C62.0045 263.137 61.2905 263.911 61.2905 265.461V269.633H60.0165V261.961H61.2905V263.207ZM66.5131 263.207C66.7371 262.768 67.0545 262.427 67.4651 262.185C67.8851 261.942 68.3938 261.821 68.9911 261.821V263.137H68.6551C67.2271 263.137 66.5131 263.911 66.5131 265.461V269.633H65.2391V261.961H66.5131V263.207ZM77.4618 265.503C77.4618 265.745 77.4478 266.002 77.4198 266.273H71.2878C71.3345 267.029 71.5911 267.621 72.0578 268.051C72.5338 268.471 73.1078 268.681 73.7798 268.681C74.3305 268.681 74.7878 268.555 75.1518 268.303C75.5251 268.041 75.7865 267.696 75.9358 267.267H77.3078C77.1025 268.004 76.6918 268.606 76.0758 269.073C75.4598 269.53 74.6945 269.759 73.7798 269.759C73.0518 269.759 72.3985 269.595 71.8198 269.269C71.2505 268.942 70.8025 268.48 70.4758 267.883C70.1491 267.276 69.9858 266.576 69.9858 265.783C69.9858 264.989 70.1445 264.294 70.4618 263.697C70.7791 263.099 71.2225 262.642 71.7918 262.325C72.3705 261.998 73.0331 261.835 73.7798 261.835C74.5078 261.835 75.1518 261.993 75.7118 262.311C76.2718 262.628 76.7011 263.067 76.9998 263.627C77.3078 264.177 77.4618 264.803 77.4618 265.503ZM76.1458 265.237C76.1458 264.751 76.0385 264.336 75.8238 263.991C75.6091 263.636 75.3151 263.37 74.9418 263.193C74.5778 263.006 74.1718 262.913 73.7238 262.913C73.0798 262.913 72.5291 263.118 72.0718 263.529C71.6238 263.939 71.3671 264.509 71.3018 265.237H76.1458ZM82.8814 261.821C83.8148 261.821 84.5708 262.105 85.1494 262.675C85.7281 263.235 86.0174 264.047 86.0174 265.111V269.633H84.7574V265.293C84.7574 264.527 84.5661 263.944 84.1834 263.543C83.8008 263.132 83.2781 262.927 82.6154 262.927C81.9434 262.927 81.4068 263.137 81.0054 263.557C80.6134 263.977 80.4174 264.588 80.4174 265.391V269.633H79.1434V261.961H80.4174V263.053C80.6694 262.661 81.0101 262.357 81.4394 262.143C81.8781 261.928 82.3588 261.821 82.8814 261.821ZM89.6525 263.011V267.533C89.6525 267.906 89.7318 268.172 89.8905 268.331C90.0492 268.48 90.3245 268.555 90.7165 268.555H91.6545V269.633H90.5065C89.7972 269.633 89.2652 269.469 88.9105 269.143C88.5558 268.816 88.3785 268.279 88.3785 267.533V263.011H87.3845V261.961H88.3785V260.029H89.6525V261.961H91.6545V263.011H89.6525ZM94.4721 259.273V269.633H93.1981V259.273H94.4721ZM103.251 261.961L98.6314 273.245H97.3154L98.8274 269.549L95.7334 261.961H97.1474L99.5554 268.177L101.935 261.961H103.251ZM112.003 261.821C112.936 261.821 113.692 262.105 114.271 262.675C114.849 263.235 115.139 264.047 115.139 265.111V269.633H113.879V265.293C113.879 264.527 113.687 263.944 113.305 263.543C112.922 263.132 112.399 262.927 111.737 262.927C111.065 262.927 110.528 263.137 110.127 263.557C109.735 263.977 109.539 264.588 109.539 265.391V269.633H108.265V261.961H109.539V263.053C109.791 262.661 110.131 262.357 110.561 262.143C110.999 261.928 111.48 261.821 112.003 261.821ZM120.566 269.759C119.847 269.759 119.194 269.595 118.606 269.269C118.027 268.942 117.57 268.48 117.234 267.883C116.907 267.276 116.744 266.576 116.744 265.783C116.744 264.999 116.912 264.308 117.248 263.711C117.593 263.104 118.06 262.642 118.648 262.325C119.236 261.998 119.894 261.835 120.622 261.835C121.35 261.835 122.008 261.998 122.596 262.325C123.184 262.642 123.646 263.099 123.982 263.697C124.327 264.294 124.5 264.989 124.5 265.783C124.5 266.576 124.322 267.276 123.968 267.883C123.622 268.48 123.151 268.942 122.554 269.269C121.956 269.595 121.294 269.759 120.566 269.759ZM120.566 268.639C121.023 268.639 121.452 268.531 121.854 268.317C122.255 268.102 122.577 267.78 122.82 267.351C123.072 266.921 123.198 266.399 123.198 265.783C123.198 265.167 123.076 264.644 122.834 264.215C122.591 263.785 122.274 263.468 121.882 263.263C121.49 263.048 121.065 262.941 120.608 262.941C120.141 262.941 119.712 263.048 119.32 263.263C118.937 263.468 118.629 263.785 118.396 264.215C118.162 264.644 118.046 265.167 118.046 265.783C118.046 266.408 118.158 266.935 118.382 267.365C118.615 267.794 118.923 268.116 119.306 268.331C119.688 268.536 120.108 268.639 120.566 268.639ZM133.645 261.821C134.578 261.821 135.334 262.105 135.913 262.675C136.492 263.235 136.781 264.047 136.781 265.111V269.633H135.521V265.293C135.521 264.527 135.33 263.944 134.947 263.543C134.564 263.132 134.042 262.927 133.379 262.927C132.707 262.927 132.17 263.137 131.769 263.557C131.377 263.977 131.181 264.588 131.181 265.391V269.633H129.907V261.961H131.181V263.053C131.433 262.661 131.774 262.357 132.203 262.143C132.642 261.928 133.122 261.821 133.645 261.821ZM142.208 269.759C141.49 269.759 140.836 269.595 140.248 269.269C139.67 268.942 139.212 268.48 138.876 267.883C138.55 267.276 138.386 266.576 138.386 265.783C138.386 264.999 138.554 264.308 138.89 263.711C139.236 263.104 139.702 262.642 140.29 262.325C140.878 261.998 141.536 261.835 142.264 261.835C142.992 261.835 143.65 261.998 144.238 262.325C144.826 262.642 145.288 263.099 145.624 263.697C145.97 264.294 146.142 264.989 146.142 265.783C146.142 266.576 145.965 267.276 145.61 267.883C145.265 268.48 144.794 268.942 144.196 269.269C143.599 269.595 142.936 269.759 142.208 269.759ZM142.208 268.639C142.666 268.639 143.095 268.531 143.496 268.317C143.898 268.102 144.22 267.78 144.462 267.351C144.714 266.921 144.84 266.399 144.84 265.783C144.84 265.167 144.719 264.644 144.476 264.215C144.234 263.785 143.916 263.468 143.524 263.263C143.132 263.048 142.708 262.941 142.25 262.941C141.784 262.941 141.354 263.048 140.962 263.263C140.58 263.468 140.272 263.785 140.038 264.215C139.805 264.644 139.688 265.167 139.688 265.783C139.688 266.408 139.8 266.935 140.024 267.365C140.258 267.794 140.566 268.116 140.948 268.331C141.331 268.536 141.751 268.639 142.208 268.639ZM149.371 263.011V267.533C149.371 267.906 149.451 268.172 149.609 268.331C149.768 268.48 150.043 268.555 150.435 268.555H151.373V269.633H150.225C149.516 269.633 148.984 269.469 148.629 269.143C148.275 268.816 148.097 268.279 148.097 267.533V263.011H147.103V261.961H148.097V260.029H149.371V261.961H151.373V263.011H149.371ZM159.917 265.503C159.917 265.745 159.903 266.002 159.875 266.273H153.743C153.79 267.029 154.046 267.621 154.513 268.051C154.989 268.471 155.563 268.681 156.235 268.681C156.786 268.681 157.243 268.555 157.607 268.303C157.98 268.041 158.242 267.696 158.391 267.267H159.763C159.558 268.004 159.147 268.606 158.531 269.073C157.915 269.53 157.15 269.759 156.235 269.759C155.507 269.759 154.854 269.595 154.275 269.269C153.706 268.942 153.258 268.48 152.931 267.883C152.604 267.276 152.441 266.576 152.441 265.783C152.441 264.989 152.6 264.294 152.917 263.697C153.234 263.099 153.678 262.642 154.247 262.325C154.826 261.998 155.488 261.835 156.235 261.835C156.963 261.835 157.607 261.993 158.167 262.311C158.727 262.628 159.156 263.067 159.455 263.627C159.763 264.177 159.917 264.803 159.917 265.503ZM158.601 265.237C158.601 264.751 158.494 264.336 158.279 263.991C158.064 263.636 157.77 263.37 157.397 263.193C157.033 263.006 156.627 262.913 156.179 262.913C155.535 262.913 154.984 263.118 154.527 263.529C154.079 263.939 153.822 264.509 153.757 265.237H158.601ZM164.315 269.759C163.727 269.759 163.199 269.661 162.733 269.465C162.266 269.259 161.897 268.979 161.627 268.625C161.356 268.261 161.207 267.845 161.179 267.379H162.495C162.532 267.761 162.709 268.074 163.027 268.317C163.353 268.559 163.778 268.681 164.301 268.681C164.786 268.681 165.169 268.573 165.449 268.359C165.729 268.144 165.869 267.873 165.869 267.547C165.869 267.211 165.719 266.963 165.421 266.805C165.122 266.637 164.66 266.473 164.035 266.315C163.465 266.165 162.999 266.016 162.635 265.867C162.28 265.708 161.972 265.479 161.711 265.181C161.459 264.873 161.333 264.471 161.333 263.977C161.333 263.585 161.449 263.225 161.683 262.899C161.916 262.572 162.247 262.315 162.677 262.129C163.106 261.933 163.596 261.835 164.147 261.835C164.996 261.835 165.682 262.049 166.205 262.479C166.727 262.908 167.007 263.496 167.045 264.243H165.771C165.743 263.841 165.579 263.519 165.281 263.277C164.991 263.034 164.599 262.913 164.105 262.913C163.647 262.913 163.283 263.011 163.013 263.207C162.742 263.403 162.607 263.659 162.607 263.977C162.607 264.229 162.686 264.439 162.845 264.607C163.013 264.765 163.218 264.896 163.461 264.999C163.713 265.092 164.058 265.199 164.497 265.321C165.047 265.47 165.495 265.619 165.841 265.769C166.186 265.909 166.48 266.123 166.723 266.413C166.975 266.702 167.105 267.08 167.115 267.547C167.115 267.967 166.998 268.345 166.765 268.681C166.531 269.017 166.2 269.283 165.771 269.479C165.351 269.665 164.865 269.759 164.315 269.759ZM174.199 263.011V267.533C174.199 267.906 174.279 268.172 174.437 268.331C174.596 268.48 174.871 268.555 175.263 268.555H176.201V269.633H175.053C174.344 269.633 173.812 269.469 173.457 269.143C173.103 268.816 172.925 268.279 172.925 267.533V263.011H171.931V261.961H172.925V260.029H174.199V261.961H176.201V263.011H174.199ZM181.091 269.759C180.372 269.759 179.719 269.595 179.131 269.269C178.552 268.942 178.095 268.48 177.759 267.883C177.432 267.276 177.269 266.576 177.269 265.783C177.269 264.999 177.437 264.308 177.773 263.711C178.118 263.104 178.585 262.642 179.173 262.325C179.761 261.998 180.419 261.835 181.147 261.835C181.875 261.835 182.533 261.998 183.121 262.325C183.709 262.642 184.171 263.099 184.507 263.697C184.852 264.294 185.025 264.989 185.025 265.783C185.025 266.576 184.848 267.276 184.493 267.883C184.148 268.48 183.676 268.942 183.079 269.269C182.482 269.595 181.819 269.759 181.091 269.759ZM181.091 268.639C181.548 268.639 181.978 268.531 182.379 268.317C182.78 268.102 183.102 267.78 183.345 267.351C183.597 266.921 183.723 266.399 183.723 265.783C183.723 265.167 183.602 264.644 183.359 264.215C183.116 263.785 182.799 263.468 182.407 263.263C182.015 263.048 181.59 262.941 181.133 262.941C180.666 262.941 180.237 263.048 179.845 263.263C179.462 263.468 179.154 263.785 178.921 264.215C178.688 264.644 178.571 265.167 178.571 265.783C178.571 266.408 178.683 266.935 178.907 267.365C179.14 267.794 179.448 268.116 179.831 268.331C180.214 268.536 180.634 268.639 181.091 268.639ZM189.956 265.769C189.956 264.985 190.115 264.299 190.432 263.711C190.75 263.113 191.184 262.651 191.734 262.325C192.294 261.998 192.92 261.835 193.61 261.835C194.208 261.835 194.763 261.975 195.276 262.255C195.79 262.525 196.182 262.885 196.452 263.333V259.273H197.74V269.633H196.452V268.191C196.2 268.648 195.827 269.026 195.332 269.325C194.838 269.614 194.259 269.759 193.596 269.759C192.915 269.759 192.294 269.591 191.734 269.255C191.184 268.919 190.75 268.447 190.432 267.841C190.115 267.234 189.956 266.543 189.956 265.769ZM196.452 265.783C196.452 265.204 196.336 264.7 196.102 264.271C195.869 263.841 195.552 263.515 195.15 263.291C194.758 263.057 194.324 262.941 193.848 262.941C193.372 262.941 192.938 263.053 192.546 263.277C192.154 263.501 191.842 263.827 191.608 264.257C191.375 264.686 191.258 265.19 191.258 265.769C191.258 266.357 191.375 266.87 191.608 267.309C191.842 267.738 192.154 268.069 192.546 268.303C192.938 268.527 193.372 268.639 193.848 268.639C194.324 268.639 194.758 268.527 195.15 268.303C195.552 268.069 195.869 267.738 196.102 267.309C196.336 266.87 196.452 266.361 196.452 265.783ZM200.551 260.715C200.309 260.715 200.103 260.631 199.935 260.463C199.767 260.295 199.683 260.089 199.683 259.847C199.683 259.604 199.767 259.399 199.935 259.231C200.103 259.063 200.309 258.979 200.551 258.979C200.785 258.979 200.981 259.063 201.139 259.231C201.307 259.399 201.391 259.604 201.391 259.847C201.391 260.089 201.307 260.295 201.139 260.463C200.981 260.631 200.785 260.715 200.551 260.715ZM201.167 261.961V269.633H199.893V261.961H201.167ZM206.055 269.759C205.467 269.759 204.939 269.661 204.473 269.465C204.006 269.259 203.637 268.979 203.367 268.625C203.096 268.261 202.947 267.845 202.919 267.379H204.235C204.272 267.761 204.449 268.074 204.767 268.317C205.093 268.559 205.518 268.681 206.041 268.681C206.526 268.681 206.909 268.573 207.189 268.359C207.469 268.144 207.609 267.873 207.609 267.547C207.609 267.211 207.459 266.963 207.161 266.805C206.862 266.637 206.4 266.473 205.775 266.315C205.205 266.165 204.739 266.016 204.375 265.867C204.02 265.708 203.712 265.479 203.451 265.181C203.199 264.873 203.073 264.471 203.073 263.977C203.073 263.585 203.189 263.225 203.423 262.899C203.656 262.572 203.987 262.315 204.417 262.129C204.846 261.933 205.336 261.835 205.887 261.835C206.736 261.835 207.422 262.049 207.945 262.479C208.467 262.908 208.747 263.496 208.785 264.243H207.511C207.483 263.841 207.319 263.519 207.021 263.277C206.731 263.034 206.339 262.913 205.845 262.913C205.387 262.913 205.023 263.011 204.753 263.207C204.482 263.403 204.347 263.659 204.347 263.977C204.347 264.229 204.426 264.439 204.585 264.607C204.753 264.765 204.958 264.896 205.201 264.999C205.453 265.092 205.798 265.199 206.237 265.321C206.787 265.47 207.235 265.619 207.581 265.769C207.926 265.909 208.22 266.123 208.463 266.413C208.715 266.702 208.845 267.08 208.855 267.547C208.855 267.967 208.738 268.345 208.505 268.681C208.271 269.017 207.94 269.283 207.511 269.479C207.091 269.665 206.605 269.759 206.055 269.759ZM211.927 263.375C212.179 262.936 212.553 262.572 213.047 262.283C213.551 261.984 214.135 261.835 214.797 261.835C215.479 261.835 216.095 261.998 216.645 262.325C217.205 262.651 217.644 263.113 217.961 263.711C218.279 264.299 218.437 264.985 218.437 265.769C218.437 266.543 218.279 267.234 217.961 267.841C217.644 268.447 217.205 268.919 216.645 269.255C216.095 269.591 215.479 269.759 214.797 269.759C214.144 269.759 213.565 269.614 213.061 269.325C212.567 269.026 212.189 268.657 211.927 268.219V273.273H210.653V261.961H211.927V263.375ZM217.135 265.769C217.135 265.19 217.019 264.686 216.785 264.257C216.552 263.827 216.235 263.501 215.833 263.277C215.441 263.053 215.007 262.941 214.531 262.941C214.065 262.941 213.631 263.057 213.229 263.291C212.837 263.515 212.52 263.846 212.277 264.285C212.044 264.714 211.927 265.213 211.927 265.783C211.927 266.361 212.044 266.87 212.277 267.309C212.52 267.738 212.837 268.069 213.229 268.303C213.631 268.527 214.065 268.639 214.531 268.639C215.007 268.639 215.441 268.527 215.833 268.303C216.235 268.069 216.552 267.738 216.785 267.309C217.019 266.87 217.135 266.357 217.135 265.769ZM221.388 259.273V269.633H220.114V259.273H221.388ZM223.083 265.769C223.083 264.985 223.242 264.299 223.559 263.711C223.877 263.113 224.311 262.651 224.861 262.325C225.421 261.998 226.042 261.835 226.723 261.835C227.395 261.835 227.979 261.979 228.473 262.269C228.968 262.558 229.337 262.922 229.579 263.361V261.961H230.867V269.633H229.579V268.205C229.327 268.653 228.949 269.026 228.445 269.325C227.951 269.614 227.372 269.759 226.709 269.759C226.028 269.759 225.412 269.591 224.861 269.255C224.311 268.919 223.877 268.447 223.559 267.841C223.242 267.234 223.083 266.543 223.083 265.769ZM229.579 265.783C229.579 265.204 229.463 264.7 229.229 264.271C228.996 263.841 228.679 263.515 228.277 263.291C227.885 263.057 227.451 262.941 226.975 262.941C226.499 262.941 226.065 263.053 225.673 263.277C225.281 263.501 224.969 263.827 224.735 264.257C224.502 264.686 224.385 265.19 224.385 265.769C224.385 266.357 224.502 266.87 224.735 267.309C224.969 267.738 225.281 268.069 225.673 268.303C226.065 268.527 226.499 268.639 226.975 268.639C227.451 268.639 227.885 268.527 228.277 268.303C228.679 268.069 228.996 267.738 229.229 267.309C229.463 266.87 229.579 266.361 229.579 265.783ZM239.628 261.961L235.008 273.245H233.692L235.204 269.549L232.11 261.961H233.524L235.932 268.177L238.312 261.961H239.628Z" fill="#666666"/>
<path d="M140 234.631C206.274 234.631 260 205.402 260 169.346C260 133.29 206.274 104.061 140 104.061C73.7258 104.061 20 133.29 20 169.346C20 205.402 73.7258 234.631 140 234.631Z" fill="#F5F5F5"/>
<path d="M47.5533 183.13L43.4263 180.746L43.3794 180.714C43.0765 180.485 42.8378 180.182 42.6861 179.834C42.5344 179.486 42.4749 179.104 42.5133 178.727V51.7197L126.305 3.33887L130.479 5.75974L46.7029 54.1249V181.142C46.6671 181.518 46.7263 181.897 46.8748 182.245C47.0234 182.592 47.2567 182.896 47.5533 183.13Z" fill="#EBEBEB"/>
<path d="M130.494 5.75977V132.767C130.435 133.852 130.12 134.908 129.576 135.849C129.032 136.789 128.274 137.589 127.364 138.182L49.8283 182.953C49.5285 183.164 49.1821 183.299 48.8187 183.347C48.4554 183.395 48.0858 183.355 47.7414 183.229L47.564 183.13C47.267 182.898 47.0334 182.594 46.8848 182.248C46.7362 181.901 46.6773 181.523 46.7135 181.148V54.125L130.494 5.75977Z" fill="#F0F0F0"/>
<path d="M126.299 3.33887L130.494 5.75974L46.7026 54.1406L42.5078 51.7197L126.299 3.33887Z" fill="#FAFAFA"/>
<path d="M46.963 184.424L45.9978 183.871L45.9508 183.84C45.6491 183.608 45.4112 183.304 45.2597 182.955C45.1081 182.607 45.0479 182.225 45.0847 181.847V53.9163L130.973 4.35107L132.017 4.94064L46.0917 54.5006V182.436C46.0579 182.814 46.12 183.195 46.2723 183.542C46.4246 183.889 46.6622 184.193 46.963 184.424Z" fill="#1E7944"/>
<path opacity="0.1" d="M46.963 184.424L45.9978 183.871L45.9508 183.84C45.6491 183.608 45.4112 183.304 45.2597 182.955C45.1081 182.607 45.0479 182.225 45.0847 181.847V53.9163L130.973 4.35107L132.017 4.94064L46.0917 54.5006V182.436C46.0579 182.814 46.12 183.195 46.2723 183.542C46.4246 183.889 46.6622 184.193 46.963 184.424Z" fill="black"/>
<path d="M132.002 4.91968V132.85C131.942 133.935 131.628 134.991 131.084 135.932C130.54 136.873 129.782 137.672 128.872 138.266L49.2228 184.247C48.923 184.457 48.5766 184.593 48.2133 184.641C47.8499 184.689 47.4803 184.649 47.1359 184.523L46.9585 184.424C46.6616 184.192 46.428 183.888 46.2793 183.542C46.1307 183.195 46.0718 182.817 46.1081 182.441V54.5058L132.002 4.91968Z" fill="#1E7944"/>
<path opacity="0.05" d="M132.002 4.91968V132.85C131.942 133.935 131.628 134.991 131.084 135.932C130.54 136.873 129.782 137.672 128.872 138.266L49.2228 184.247C48.923 184.457 48.5766 184.593 48.2133 184.641C47.8499 184.689 47.4803 184.649 47.1359 184.523L46.9585 184.424C46.6616 184.192 46.428 183.888 46.2793 183.542C46.1307 183.195 46.0718 182.817 46.1081 182.441V54.5058L132.002 4.91968Z" fill="black"/>
<path d="M130.975 4.32495L132.002 4.91973L46.1138 54.5058L45.0859 53.911L130.975 4.32495Z" fill="#1E7944"/>
<path opacity="0.4" d="M130.975 4.32495L132.002 4.91973L46.1138 54.5058L45.0859 53.911L130.975 4.32495Z" fill="white"/>
<path d="M48.6075 185.368L47.658 184.815L47.611 184.784C47.3093 184.554 47.0714 184.251 46.9198 183.903C46.7682 183.555 46.708 183.174 46.7449 182.796V54.8606L132.634 5.29541L133.677 5.88498L47.7884 55.4502V183.386C47.7485 183.758 47.8026 184.135 47.9456 184.481C48.0887 184.828 48.3163 185.133 48.6075 185.368Z" fill="#1E7944"/>
<path opacity="0.1" d="M48.6075 185.368L47.658 184.815L47.611 184.784C47.3093 184.554 47.0714 184.251 46.9198 183.903C46.7682 183.555 46.708 183.174 46.7449 182.796V54.8606L132.634 5.29541L133.677 5.88498L47.7884 55.4502V183.386C47.7485 183.758 47.8026 184.135 47.9456 184.481C48.0887 184.828 48.3163 185.133 48.6075 185.368Z" fill="black"/>
<path d="M133.646 5.86401V133.8C133.587 134.884 133.272 135.939 132.728 136.879C132.184 137.819 131.426 138.618 130.516 139.21L50.883 185.191C50.5841 185.404 50.2376 185.54 49.8738 185.589C49.5101 185.637 49.14 185.595 48.796 185.467L48.6186 185.374C48.3216 185.14 48.0881 184.836 47.9395 184.488C47.7909 184.141 47.732 183.762 47.7682 183.386V55.4501L133.646 5.86401Z" fill="#1E7944"/>
<path d="M132.617 5.27441L133.645 5.86398L47.7563 55.4501L46.7285 54.8605L132.617 5.27441Z" fill="#1E7944"/>
<path opacity="0.4" d="M132.617 5.27441L133.645 5.86398L47.7563 55.4501L46.7285 54.8605L132.617 5.27441Z" fill="white"/>
<path d="M53.836 186.762L49.709 184.377L49.662 184.346C49.36 184.116 49.1218 183.813 48.9702 183.465C48.8185 183.117 48.7586 182.736 48.796 182.358V55.3511L132.587 6.97021L136.761 9.39108L52.9855 57.7772V184.774C52.9503 185.15 53.0096 185.528 53.1582 185.876C53.3067 186.223 53.5397 186.527 53.836 186.762Z" fill="#EBEBEB"/>
<path d="M136.775 9.39111V136.398C136.715 137.483 136.4 138.539 135.856 139.48C135.313 140.42 134.555 141.22 133.645 141.814L56.109 186.579C55.81 186.791 55.4638 186.928 55.1003 186.977C54.7368 187.026 54.3667 186.986 54.0221 186.861L53.8447 186.762C53.5484 186.527 53.3154 186.223 53.1669 185.876C53.0184 185.528 52.959 185.15 52.9943 184.774V57.7772L136.775 9.39111Z" fill="#F5F5F5"/>
<path d="M132.586 6.97021L136.776 9.39108L52.9845 57.7667L48.7949 55.3511L132.586 6.97021Z" fill="#FAFAFA"/>
<g style="mix-blend-mode:multiply">
<path d="M59.2666 58.9772C60.4249 58.3093 61.3536 58.8467 61.3536 60.1876C61.3149 60.9134 61.1059 61.62 60.7433 62.2499C60.3807 62.8799 59.8748 63.4156 59.2666 63.8137C58.1136 64.4815 57.1797 63.9389 57.1797 62.6033C57.2188 61.8775 57.428 61.1711 57.7906 60.5412C58.1531 59.9113 58.6587 59.3755 59.2666 58.9772Z" fill="#E0E0E0"/>
</g>
<path d="M53.3967 42.2658C51.1167 40.951 48.9306 40.758 47.2454 41.7441C45.5602 42.7302 44.6367 44.7023 44.6367 47.3423C44.6459 48.3425 44.7684 49.3385 45.0019 50.311L46.4002 49.5023C46.2585 48.7911 46.1869 48.0676 46.1863 47.3423C46.1863 45.2554 46.8385 43.7684 48.0228 43.0797C49.2072 42.391 50.8454 42.558 52.6298 43.6015C56.6106 45.8971 59.8506 51.5058 59.8506 56.1232C59.8793 57.1176 59.6775 58.105 59.2611 59.0084C58.9847 59.5756 58.5497 60.0505 58.0089 60.3754L57.8837 60.4432C57.5357 60.9956 57.3114 61.6168 57.2263 62.2641C57.7773 62.1793 58.3079 61.9935 58.7915 61.7163C59.8278 61.0971 60.6003 60.1185 60.9619 58.9667C61.2721 58.0514 61.4222 57.0895 61.4054 56.1232C61.3637 51.0206 57.7793 44.8067 53.3967 42.2658Z" fill="#455A64"/>
<g style="mix-blend-mode:multiply">
<path d="M69.4405 53.0814C70.5987 52.4136 71.5274 52.951 71.5274 54.2919C71.4888 55.0177 71.2797 55.7242 70.9171 56.3542C70.5545 56.9842 70.0487 57.5199 69.4405 57.9179C68.2874 58.5858 67.3535 58.0431 67.3535 56.7075C67.3934 55.9819 67.603 55.2759 67.9655 54.6461C68.3279 54.0163 68.8332 53.4804 69.4405 53.0814Z" fill="#E0E0E0"/>
</g>
<path d="M63.5452 36.3857C61.2704 35.0709 59.0843 34.8779 57.3939 35.864C55.7034 36.85 54.7852 38.8274 54.7852 41.4622C54.7943 42.4624 54.9168 43.4583 55.1504 44.4309L56.5278 43.617C56.3886 42.9053 56.317 42.1821 56.3138 41.457C56.3138 39.37 56.966 37.8831 58.1556 37.1944C59.3452 36.5057 60.973 36.6727 62.7573 37.7161C66.7382 40.0118 69.9782 45.6205 69.9782 50.2379C70.0099 51.2325 69.808 52.2207 69.3886 53.1231C69.1108 53.6893 68.6762 54.1637 68.1365 54.49L68.0112 54.5579C67.6633 55.1103 67.439 55.7315 67.3538 56.3787C67.9033 56.3028 68.434 56.1259 68.9191 55.857C69.9544 55.2378 70.728 54.2619 71.0947 53.1127C71.3998 52.1943 71.5497 51.2316 71.5382 50.264C71.5434 45.1457 67.9591 38.9318 63.5452 36.3857Z" fill="#455A64"/>
<g style="mix-blend-mode:multiply">
<path d="M79.6202 47.2274C80.7732 46.5596 81.7071 47.1022 81.7071 48.4379C81.6721 49.1681 81.4647 49.8797 81.102 50.5145C80.7393 51.1492 80.2315 51.6891 79.6202 52.0901C78.4619 52.7579 77.5332 52.2153 77.5332 50.8848C77.5674 50.1537 77.7744 49.4411 78.1372 48.8053C78.4999 48.1696 79.0081 47.6289 79.6202 47.2274Z" fill="#E0E0E0"/>
</g>
<path d="M73.7437 30.5161C71.4637 29.2013 69.2776 29.0082 67.5872 29.9943C65.8968 30.9804 64.9785 32.9578 64.9785 35.5926C64.9873 36.5928 65.1099 37.5888 65.3437 38.5613L66.742 37.7526C66.6029 37.0409 66.5312 36.3177 66.5281 35.5926C66.5281 33.5056 67.1803 32.0187 68.3698 31.33C69.5594 30.6413 71.1872 30.8082 72.9716 31.8517C76.9524 34.1474 80.1924 39.7561 80.1924 44.3735C80.2241 45.3681 80.0222 46.3562 79.6029 47.2587C79.325 47.8249 78.8904 48.2993 78.3507 48.6256L78.2307 48.6935C77.8798 49.2449 77.6537 49.8664 77.5681 50.5143C78.1172 50.437 78.6476 50.2602 79.1333 49.9926C80.167 49.3728 80.9388 48.3969 81.3037 47.2482C81.6088 46.3299 81.7587 45.3672 81.7472 44.3995C81.7159 39.2709 78.1316 33.0569 73.7437 30.5161Z" fill="#455A64"/>
<g style="mix-blend-mode:multiply">
<path d="M89.794 41.3527C90.947 40.6849 91.8809 41.2275 91.8809 42.5631C91.8459 43.2934 91.6386 44.005 91.2758 44.6397C90.9131 45.2745 90.4053 45.8144 89.794 46.2153C88.6357 46.8831 87.707 46.3457 87.707 45.0101C87.7413 44.2789 87.9482 43.5663 88.311 42.9306C88.6737 42.2949 89.182 41.7541 89.794 41.3527Z" fill="#E0E0E0"/>
</g>
<path d="M83.8987 24.6413C81.6187 23.3265 79.4326 23.1335 77.7474 24.1196C76.0622 25.1057 75.1387 27.0831 75.1387 29.7178C75.1467 30.7184 75.271 31.7147 75.5091 32.6865L76.8761 31.8674C76.7367 31.1558 76.6651 30.4325 76.6621 29.7074C76.6621 27.6204 77.3143 26.1335 78.5039 25.4448C79.6935 24.7561 81.3213 24.9231 83.1056 25.9665C87.0865 28.2622 90.3265 33.8709 90.3265 38.4883C90.3591 39.4841 90.159 40.4738 89.7422 41.3787C89.4609 41.9428 89.0247 42.4152 88.4848 42.7404L88.3648 42.8083C88.0139 43.3597 87.7878 43.9812 87.7022 44.6291C88.2513 44.5518 88.7817 44.375 89.2674 44.1074C90.3011 43.4876 91.0729 42.5117 91.4378 41.3631C91.7454 40.4453 91.8953 39.4822 91.8813 38.5144C91.8917 33.3961 88.3074 27.1822 83.8987 24.6413Z" fill="#455A64"/>
<g style="mix-blend-mode:multiply">
<path d="M99.9678 35.4779C101.121 34.8101 102.055 35.3527 102.055 36.6884C102.02 37.4186 101.812 38.1302 101.45 38.765C101.087 39.3997 100.579 39.9396 99.9678 40.3405C98.8096 41.0084 97.8809 40.471 97.8809 39.1353C97.9151 38.4042 98.1221 37.6916 98.4848 37.0558C98.8476 36.4201 99.3558 35.8794 99.9678 35.4779Z" fill="#E0E0E0"/>
</g>
<path d="M94.092 18.7666C91.812 17.4518 89.6259 17.2587 87.9407 18.2448C86.2555 19.2309 85.332 21.2083 85.332 23.8431C85.3401 24.8437 85.4644 25.8399 85.7025 26.8118L87.1007 26.0031C86.9571 25.292 86.8837 24.5685 86.8816 23.8431C86.8816 21.7561 87.539 20.2692 88.7233 19.5805C89.9077 18.8918 91.5459 19.0587 93.3303 20.1022C97.3112 22.3979 100.546 28.0066 100.546 32.6239C100.579 33.6198 100.378 34.6094 99.9616 35.5144C99.6788 36.0788 99.2431 36.5524 98.7042 36.8813L98.5842 36.9439C98.2356 37.4965 98.0096 38.1174 97.9216 38.7648C98.4702 38.6853 99.0002 38.5086 99.4868 38.2431C100.521 37.6209 101.292 36.6434 101.657 35.4935C101.965 34.5758 102.115 33.6126 102.101 32.6448C102.064 27.5161 98.4799 21.3074 94.092 18.7666Z" fill="#455A64"/>
<g style="mix-blend-mode:multiply">
<path d="M110.142 29.6032C111.3 28.9354 112.229 29.478 112.229 30.8136C112.194 31.544 111.987 32.2559 111.625 32.8908C111.262 33.5257 110.754 34.0655 110.142 34.4658C108.983 35.1336 108.055 34.5962 108.055 33.2606C108.088 32.5293 108.295 31.8166 108.658 31.1808C109.021 30.545 109.529 30.0043 110.142 29.6032Z" fill="#E0E0E0"/>
</g>
<path d="M104.246 12.9074C101.966 11.5926 99.7802 11.4048 98.095 12.3857C96.4098 13.3665 95.4863 15.3492 95.4863 17.9839C95.4926 18.9843 95.6151 19.9806 95.8515 20.9526L97.2237 20.1179C97.0801 19.4068 97.0067 18.6833 97.0046 17.9579C97.0046 15.8709 97.662 14.3839 98.8463 13.6952C100.031 13.0065 101.669 13.1996 103.453 14.217C107.434 16.5126 110.669 22.1213 110.669 26.7387C110.702 27.7346 110.502 28.7244 110.085 29.6292C109.804 30.1934 109.37 30.6671 108.832 30.9961L108.707 31.0587C108.359 31.6113 108.133 32.2322 108.045 32.8796C108.594 32.8024 109.124 32.6256 109.61 32.3579C110.65 31.7373 111.428 30.7574 111.796 29.6031C112.103 28.6854 112.253 27.7222 112.239 26.7544C112.239 21.6518 108.655 15.4326 104.246 12.9074Z" fill="#455A64"/>
<g style="mix-blend-mode:multiply">
<path d="M120.315 23.7284C121.474 23.0606 122.402 23.6032 122.402 24.9389C122.368 25.6693 122.161 26.3812 121.798 27.0161C121.436 27.651 120.927 28.1907 120.315 28.591C119.157 29.2589 118.229 28.7215 118.229 27.3858C118.262 26.6546 118.469 25.9418 118.832 25.306C119.195 24.6702 119.703 24.1295 120.315 23.7284Z" fill="#E0E0E0"/>
</g>
<path d="M114.44 7.01704C112.16 5.70225 109.974 5.51443 108.288 6.4953C106.603 7.47617 105.68 9.45878 105.68 12.0936C105.686 13.0939 105.808 14.0902 106.045 15.0623L107.443 14.2536C107.3 13.5425 107.226 12.819 107.224 12.0936C107.224 10.0066 107.881 8.51965 109.066 7.83095C110.25 7.14226 111.888 7.34052 113.673 8.35269C117.654 10.6483 120.894 16.257 120.894 20.8744C120.925 21.8707 120.723 22.8606 120.304 23.7649C120.023 24.3291 119.589 24.8028 119.052 25.1318L118.927 25.1944C118.572 25.7386 118.337 26.3523 118.238 26.9944C118.787 26.9172 119.318 26.7404 119.803 26.4727C120.837 25.8505 121.608 24.873 121.974 23.7231C122.281 22.8054 122.431 21.8422 122.417 20.8744C122.412 15.777 118.828 9.56312 114.44 7.01704Z" fill="#455A64"/>
<g style="mix-blend-mode:multiply">
<path d="M130.489 17.8537C131.648 17.1858 132.576 17.7285 132.576 19.0641C132.542 19.7945 132.335 20.5064 131.972 21.1413C131.609 21.7762 131.101 22.316 130.489 22.7163C129.331 23.3841 128.402 22.8467 128.402 21.5111C128.436 20.7798 128.643 20.067 129.006 19.4312C129.369 18.7955 129.877 18.2548 130.489 17.8537Z" fill="#E0E0E0"/>
</g>
<path d="M124.594 1.14228C122.314 -0.172501 120.128 -0.360327 118.443 0.620542C116.757 1.60141 115.834 3.58402 115.834 6.2188C115.84 7.2192 115.962 8.2155 116.199 9.1875L117.571 8.36837C117.428 7.65728 117.354 6.93381 117.352 6.20837C117.352 4.1475 118.01 2.63446 119.194 1.94576C120.378 1.25706 122.017 1.45533 123.801 2.4675C127.782 4.76315 131.022 10.3771 131.022 14.9892C131.05 15.9852 130.849 16.9744 130.432 17.8797C130.153 18.4449 129.719 18.919 129.18 19.2466L129.055 19.3145C128.705 19.864 128.48 20.4839 128.397 21.1301C128.947 21.0527 129.477 20.8759 129.963 20.6084C130.997 19.9866 131.768 19.009 132.133 17.8588C132.444 16.9418 132.594 15.9781 132.577 15.0101C132.587 9.90228 129.003 3.68837 124.594 1.14228Z" fill="#455A64"/>
<g opacity="0.3">
<path d="M59.4075 68.5718L130.364 27.6101C131.601 26.8953 132.602 27.4744 132.602 28.8988V33.417C132.561 34.1919 132.338 34.946 131.95 35.6179C131.561 36.2898 131.02 36.8604 130.369 37.2831L59.4127 78.2448C58.1762 78.9596 57.1797 78.3805 57.1797 76.9561V72.4379C57.2213 71.6638 57.4447 70.9104 57.8318 70.2387C58.2188 69.567 58.7586 68.996 59.4075 68.5718Z" stroke="#1E7944" stroke-width="0.456147" stroke-miterlimit="10"/>
<path d="M132.581 31.158L57.1738 74.6971" stroke="#1E7944" stroke-width="0.456147" stroke-miterlimit="10"/>
</g>
<g opacity="0.3">
<path d="M59.4069 83.0866L130.363 42.1249C131.6 41.4153 132.596 41.9892 132.596 43.4136V130.163C132.555 130.938 132.332 131.692 131.944 132.364C131.556 133.036 131.014 133.607 130.363 134.029L59.4069 174.991C58.1756 175.706 57.1738 175.127 57.1738 173.702V86.9527C57.2161 86.1781 57.4402 85.4244 57.8282 84.7527C58.2162 84.081 58.757 83.5102 59.4069 83.0866Z" stroke="#1E7944" stroke-width="0.456147" stroke-miterlimit="10"/>
<path d="M132.581 45.6726L57.1738 89.2117" stroke="#1E7944" stroke-width="0.456147" stroke-miterlimit="10"/>
<path d="M132.581 50.5093L57.1738 94.0484" stroke="#1E7944" stroke-width="0.456147" stroke-miterlimit="10"/>
<path d="M132.581 55.3457L57.1738 98.8848" stroke="#1E7944" stroke-width="0.456147" stroke-miterlimit="10"/>
<path d="M132.581 60.1821L57.1738 103.726" stroke="#1E7944" stroke-width="0.456147" stroke-miterlimit="10"/>
<path d="M132.581 65.0188L57.1738 108.563" stroke="#1E7944" stroke-width="0.456147" stroke-miterlimit="10"/>
<path d="M132.581 69.8552L57.1738 113.4" stroke="#1E7944" stroke-width="0.456147" stroke-miterlimit="10"/>
<path d="M132.581 74.6919L57.1738 118.236" stroke="#1E7944" stroke-width="0.456147" stroke-miterlimit="10"/>
<path d="M132.581 79.5334L57.1738 123.073" stroke="#1E7944" stroke-width="0.456147" stroke-miterlimit="10"/>
<path d="M132.581 84.3701L57.1738 127.909" stroke="#1E7944" stroke-width="0.456147" stroke-miterlimit="10"/>
<path d="M132.581 89.2065L57.1738 132.746" stroke="#1E7944" stroke-width="0.456147" stroke-miterlimit="10"/>
<path d="M132.581 94.0432L57.1738 137.582" stroke="#1E7944" stroke-width="0.456147" stroke-miterlimit="10"/>
<path d="M132.581 98.8796L57.1738 142.424" stroke="#1E7944" stroke-width="0.456147" stroke-miterlimit="10"/>
<path d="M132.581 103.716L57.1738 147.26" stroke="#1E7944" stroke-width="0.456147" stroke-miterlimit="10"/>
<path d="M132.581 108.553L57.1738 152.097" stroke="#1E7944" stroke-width="0.456147" stroke-miterlimit="10"/>
<path d="M132.581 113.395L57.1738 156.934" stroke="#1E7944" stroke-width="0.456147" stroke-miterlimit="10"/>
<path d="M132.581 118.231L57.1738 161.77" stroke="#1E7944" stroke-width="0.456147" stroke-miterlimit="10"/>
<path d="M132.581 123.067L57.1738 166.607" stroke="#1E7944" stroke-width="0.456147" stroke-miterlimit="10"/>
<path d="M132.581 127.904L57.1738 171.443" stroke="#1E7944" stroke-width="0.456147" stroke-miterlimit="10"/>
</g>
<path d="M60.3262 88.7059C60.2845 86.2589 60.2845 84.318 60.3262 83.9476C60.3302 83.6989 60.4004 83.4558 60.5297 83.2433C60.5297 83.2433 60.5297 83.2433 60.5662 83.212C60.6027 83.1807 60.7541 83.285 60.9575 83.7754C61.088 84.0207 61.2914 84.4537 61.4062 84.7302C61.521 85.0067 61.8445 85.6224 62.0793 86.1337C62.5071 87.078 62.841 87.7459 63.0288 88.0798L63.1332 88.2415V87.4433C63.1332 87.005 63.1332 85.9876 63.0914 85.205C63.0497 84.4224 63.0549 83.3633 63.0549 82.8624C63.0549 81.8502 63.0549 81.7928 63.2219 81.7041C63.3888 81.6154 63.4097 81.652 63.441 81.7824C63.4723 81.9128 63.4827 82.445 63.5036 83.1285C63.5245 83.812 63.5036 84.8659 63.5454 85.4398C63.5923 87.1824 63.5975 89.1807 63.5454 89.3528C63.4827 89.6398 63.321 89.7911 63.1958 89.6867C62.776 89.0245 62.4163 88.3261 62.121 87.5998C61.9436 87.2033 61.6932 86.6659 61.5523 86.4154L61.0619 85.4293C60.8636 85.0328 60.8114 84.9076 60.7958 84.9859C60.7801 85.0641 60.7958 88.2989 60.8323 89.572C60.8636 90.6154 60.8323 90.9598 60.7488 91.1372C60.6654 91.3146 60.5819 91.3302 60.5193 91.2728C60.4567 91.2154 60.3627 90.7093 60.3262 88.7059Z" fill="#455A64"/>
<path d="M64.5154 87.6832C64.4536 87.4255 64.4325 87.1596 64.4528 86.8954C64.4234 86.4335 64.4873 85.9703 64.6406 85.5336C64.7943 85.13 65.0052 84.7504 65.2667 84.4067C65.3579 84.2603 65.4858 84.1404 65.6378 84.0589C65.7898 83.9774 65.9605 83.9372 66.1328 83.9423C66.3158 83.9649 66.4864 84.0463 66.6191 84.1743C66.7518 84.3022 66.8393 84.4699 66.8685 84.6519C66.9387 85.1322 66.951 85.6191 66.905 86.1023C66.8153 86.8412 66.4767 87.5276 65.945 88.0484C65.7928 88.209 65.5969 88.3214 65.3815 88.3719C64.9641 88.4606 64.6511 88.2154 64.5154 87.6832ZM66.5189 85.5336C66.5379 85.3559 66.511 85.1762 66.4406 85.0119C66.4118 84.9086 66.3616 84.8125 66.2933 84.7298C66.225 84.6472 66.1401 84.5797 66.0441 84.5319C65.9763 84.5319 65.8928 84.5319 65.7206 84.6467C65.4386 84.804 65.2303 85.0666 65.1415 85.3771C64.8977 85.8602 64.8102 86.4072 64.8911 86.9423C64.9126 87.2125 65.0024 87.4728 65.1519 87.6989C65.345 87.9232 65.5641 87.871 65.945 87.5162C66.3576 86.9405 66.5602 86.2407 66.5189 85.5336Z" fill="#455A64"/>
<path d="M68.0678 84.3856V82.9039L67.9948 82.9665C67.8577 83.1216 67.6751 83.2293 67.473 83.2743C67.3113 83.2743 67.2278 83.2117 67.2643 83.0969C67.3374 82.8882 67.4261 82.7891 67.7235 82.5752C67.8372 82.5082 67.9423 82.4276 68.0365 82.3352C68.0528 82.1617 68.0528 81.987 68.0365 81.8134C68.0365 81.0048 68.0887 79.6743 68.1252 79.5074C68.1617 79.3404 68.1774 79.3456 68.2243 79.3195C68.2713 79.2934 68.2974 79.3195 68.3391 79.3613C68.3809 79.403 68.4643 79.7526 68.5009 81.01L68.5374 81.9439C68.5374 81.9439 68.6522 81.9439 68.8139 81.8447C69.1113 81.6987 69.2 81.7039 69.2417 81.8813C69.254 81.9168 69.2576 81.9548 69.2522 81.992C69.2467 82.0293 69.2324 82.0646 69.2104 82.0952C69.153 82.1839 69.1009 82.2256 68.8661 82.3613C68.7604 82.4255 68.6593 82.4969 68.5635 82.5752C68.4709 83.5935 68.4587 84.6175 68.527 85.6378C68.527 85.763 68.527 86.0239 68.5739 86.2065C68.5739 86.5091 68.5739 86.5456 68.527 86.6604C68.48 86.7752 68.3026 86.9004 68.2243 86.8587C68.1461 86.8169 68.0835 86.3004 68.0678 84.3856Z" fill="#455A64"/>
<path d="M69.6695 84.4589C69.6097 83.3685 69.9144 82.2892 70.5356 81.391C70.7599 81.0937 71.1356 80.7441 71.4382 80.7754C71.5071 80.7895 71.5724 80.8174 71.6302 80.8574C71.688 80.8973 71.7372 80.9486 71.7747 81.0081C71.8122 81.0675 71.8373 81.1339 71.8485 81.2033C71.8597 81.2727 71.8568 81.3437 71.8399 81.4119C71.6009 82.2262 71.1798 82.9756 70.6086 83.6032C70.2225 84.0624 70.1599 84.1824 70.1756 84.3545C70.2225 84.6363 70.3895 84.8763 70.5512 84.8397C71.1109 84.5973 71.5736 84.175 71.866 83.6397C71.9495 83.4832 71.9756 83.4571 72.0643 83.4206C72.153 83.3841 72.2156 83.4206 72.2156 83.4989C72.0849 83.8292 71.9093 84.14 71.6938 84.4224C71.2243 85.0745 70.8956 85.3511 70.5356 85.4137C69.9877 85.4971 69.7321 85.205 69.6695 84.4589ZM71.2347 82.038C71.3195 81.9097 71.3632 81.7587 71.3599 81.605C71.3599 81.4745 71.3599 81.4328 71.2973 81.4171C71.2738 81.4115 71.2493 81.4114 71.2258 81.4169C71.2023 81.4223 71.1803 81.4331 71.1617 81.4484C71.015 81.538 70.8902 81.6592 70.7964 81.8032C70.4378 82.3051 70.2215 82.8946 70.1704 83.5093C70.1704 83.5824 70.1704 83.5876 70.3217 83.4363C70.6762 83.005 70.9824 82.5361 71.2347 82.038Z" fill="#455A64"/>
<path d="M73.0867 83.7128C72.8624 83.6606 72.7998 83.5772 72.805 83.3841C72.8102 83.1911 72.805 83.2276 72.9146 83.165C73.0248 83.1062 73.1509 83.0842 73.2745 83.1024C73.5516 83.1337 73.8304 83.0612 74.0572 82.8989C74.1741 82.8463 74.2712 82.7577 74.3341 82.646C74.397 82.5342 74.4224 82.4053 74.4067 82.278C74.4067 82.0641 74.4067 82.038 74.3285 81.9076C74.1709 81.689 73.9724 81.5029 73.7441 81.3598C73.6396 81.3085 73.5474 81.2353 73.4736 81.1453C73.3998 81.0553 73.3461 80.9505 73.3163 80.838C73.2401 80.623 73.2178 80.3926 73.2515 80.167C73.2851 79.9414 73.3737 79.7275 73.5093 79.5441C73.5668 79.4626 73.6416 79.3949 73.7285 79.3459C74.0572 79.158 74.5789 79.1789 74.7354 79.4659C74.7608 79.5037 74.7743 79.5482 74.7743 79.5937C74.7743 79.6392 74.7608 79.6837 74.7354 79.7215C74.6728 79.9093 74.5372 79.9511 74.2763 79.8259C74.1772 79.7893 73.7545 79.6954 73.7545 80.1389C73.7545 80.5824 73.8537 80.6606 74.2763 80.8902C74.5418 81.0525 74.7458 81.2984 74.8563 81.5893C74.9668 81.8802 74.9775 82.1995 74.8867 82.4972C74.8074 82.7519 74.6727 82.986 74.4923 83.1826C74.3119 83.3793 74.0902 83.5336 73.8432 83.6346C73.6042 83.7343 73.3411 83.7615 73.0867 83.7128Z" fill="#455A64"/>
<path d="M75.6855 79.3718C75.703 79.1893 75.7562 79.012 75.8421 78.8501C75.9203 78.6622 76.0925 78.5161 76.1812 78.6205C76.2369 78.7023 76.2709 78.7969 76.28 78.8955C76.2892 78.994 76.2731 79.0933 76.2334 79.184C76.1981 79.2578 76.1486 79.3239 76.0877 79.3785C76.0269 79.4331 75.9558 79.4752 75.8786 79.5022C75.7847 79.5388 75.7064 79.4657 75.6855 79.3718ZM75.6855 82.2205C75.7023 82.0379 75.7556 81.8605 75.8421 81.6988C75.9203 81.5109 76.0925 81.3648 76.1812 81.4692C76.2369 81.551 76.2709 81.6456 76.28 81.7442C76.2892 81.8427 76.2731 81.942 76.2334 82.0327C76.1602 82.1791 76.033 82.2913 75.8786 82.3457C75.7847 82.3927 75.7064 82.2988 75.6855 82.2205Z" fill="#455A64"/>
<path d="M98.4028 83.2692C98.4028 83.1596 98.2098 83.1909 98.1471 83.217C97.6258 83.5231 97.1715 83.9313 96.8115 84.417L96.3576 84.9387C95.9611 85.3613 95.7211 85.3979 95.6376 85.0431C95.6376 85.0431 95.4967 84.9283 95.4498 84.9283C94.375 84.9283 93.9576 85.8674 93.2324 86.4935C92.9767 85.5909 92.0793 86.4466 91.6671 87.0152C90.8324 88.1892 89.1054 88.5335 88.1402 89.6239C88.1402 89.2744 88.0619 88.93 87.7124 88.9196C87.7246 88.6212 87.6364 88.3272 87.4619 88.0848C87.4413 88.0655 87.4162 88.0517 87.3889 88.0444C87.3616 88.0371 87.3329 88.0367 87.3054 88.0431C86.4706 88.2205 85.9854 89.3474 85.6984 90.13C85.7558 89.1231 85.808 88.1109 85.8184 87.1039C85.8184 86.9109 85.4689 86.9787 85.4637 87.1509C85.4063 88.7787 84.7854 89.9579 83.8411 91.2413C83.6035 91.5743 83.3363 91.8852 83.0428 92.17C82.6564 92.4767 82.2131 92.7037 81.7384 92.8379C81.5497 92.8886 81.3725 92.9754 81.2167 93.0935C81.0758 93.2168 80.9239 93.3268 80.7628 93.4222C80.6793 93.4639 80.5332 93.4222 80.4184 93.4639C80.0682 93.7056 79.7789 94.0253 79.5732 94.3979C79.2602 94.1474 79.0515 94.1787 78.6915 94.4657C78.4202 94.6692 78.1697 95.0813 77.9141 95.2483C77.2358 95.6448 77.6167 95.1752 77.2671 94.81C76.8132 94.33 76.3228 94.7735 75.9315 95.1022C75.4562 95.4905 75.082 95.9882 74.8411 96.5526C74.7471 96.0987 74.528 95.7179 74.0584 95.7961C73.3541 95.9057 72.9158 97.1996 72.6445 97.6952C72.3515 98.374 71.8878 98.9654 71.2984 99.4118C70.9885 99.6415 70.6325 99.8017 70.255 99.8813C70.1454 99.8813 70.088 99.8031 69.9628 99.8552C69.7742 99.9481 69.5987 100.066 69.4411 100.205C69.0811 100.44 69.5819 100.622 68.8724 100.414C68.4132 100.278 68.4654 100.106 68.2567 99.7509C68.2098 99.6779 68.095 99.6935 68.0324 99.7196C67.725 99.9017 67.4684 100.158 67.2863 100.466C66.9941 100.852 66.3054 102.161 65.7889 102.198C64.928 102.26 64.9071 100.069 64.8915 99.5579C64.8602 98.5144 64.9906 97.4709 65.0271 96.4274C65.0271 96.3126 64.7819 96.3126 64.7663 96.4274C64.5194 97.842 64.1707 99.237 63.7228 100.601C63.2741 101.9 62.5802 103.111 62.5176 104.509C62.5176 104.593 62.6898 104.629 62.695 104.551C62.7993 103.095 63.5611 101.801 64.0254 100.445C64.2654 99.7457 64.4637 99.0152 64.6358 98.2848C64.568 99.0241 64.568 99.7681 64.6358 100.507C64.6984 101.029 64.6932 102.412 65.3871 102.563C65.9089 102.678 66.5037 101.906 66.7645 101.593C66.9576 101.363 67.4115 100.455 67.7089 100.34C68.2984 100.116 68.1732 100.81 68.4967 101.05C68.8202 101.29 69.0184 101.17 69.3263 100.94C69.728 100.643 69.5611 100.351 70.2811 100.205C70.4532 100.174 70.6358 100.294 70.8445 100.205C71.4714 99.8928 72.0096 99.4281 72.4098 98.8535C72.7474 98.2923 73.0455 97.7083 73.3019 97.1057C73.3854 96.9439 73.6515 96.2866 73.8758 96.2448L74.5645 96.9961C74.5645 97.2466 74.5645 97.4918 74.5645 97.7422C74.5645 97.9926 74.9089 97.8622 74.9193 97.6952C74.9871 96.7405 75.4932 95.2431 76.615 95.2118C77.2724 95.2118 77.0324 95.5092 77.4445 95.9005C77.483 95.9357 77.5333 95.9552 77.5854 95.9552C77.6375 95.9552 77.6878 95.9357 77.7263 95.9005C78.055 95.577 78.8793 94.2153 79.4324 94.7422C79.4557 94.7599 79.4823 94.7727 79.5108 94.7797C79.5392 94.7866 79.5687 94.7877 79.5976 94.7828C79.6264 94.7779 79.654 94.7672 79.6785 94.7512C79.703 94.7353 79.724 94.7144 79.7402 94.69C79.8758 94.5179 80.4602 93.5057 80.6897 93.8083C80.7576 93.897 80.9089 93.8552 80.9715 93.8083C81.2587 93.5216 81.592 93.2853 81.9576 93.1092C82.0828 93.0466 82.2341 93.0413 82.3697 92.9839C82.9805 92.6766 83.5043 92.221 83.8932 91.6587C84.5227 90.9245 85.0284 90.0928 85.3906 89.1961C85.3489 90.0309 85.2967 90.8657 85.2393 91.7005C85.0152 93.0271 84.9313 94.3737 84.9889 95.7179C84.9889 95.9213 85.3489 95.8274 85.3541 95.65C85.4115 94.3092 85.5106 92.9683 85.5993 91.6274C85.6515 91.4083 85.7037 91.1892 85.7715 90.97C85.9698 90.3179 86.1628 89.4048 86.695 88.9248C87.1071 88.5752 87.3367 88.7683 87.3576 89.1022C87.2841 89.2003 87.2323 89.3129 87.2053 89.4325C87.1783 89.552 87.1769 89.6759 87.2011 89.7961C87.2271 89.9422 87.4828 89.8587 87.5297 89.7961C87.552 89.7559 87.5712 89.714 87.5871 89.6709C87.7645 89.5874 87.8271 89.6396 87.7645 89.8274C87.7019 90.0152 87.7645 90.1509 87.728 90.3074C87.6915 90.4639 88.0306 90.3961 88.0776 90.3074C88.5367 89.3683 90.0445 88.5126 90.9732 88.0848C91.1846 88.0234 91.384 87.9263 91.5628 87.7979C91.615 87.7457 92.8097 85.9196 92.9193 86.8431C92.9193 86.9631 93.0863 86.9892 93.175 86.9266C93.6967 86.5718 93.9367 85.8831 94.5158 85.6066C95.9193 84.8813 94.9958 85.6639 95.7784 85.7944C96.2689 85.8726 98.0845 83.6344 98.0689 83.5509C98.1002 83.7179 98.4341 83.6135 98.4028 83.4413V83.2692Z" fill="#455A64"/>
<path d="M116.563 71.9527C116.196 72.5801 115.743 73.1527 115.217 73.6536C114.982 74.2849 114.408 74.4675 113.5 74.1753C113.445 74.0976 113.378 74.029 113.302 73.9719C113.218 73.9719 113.072 73.904 112.963 73.904C112.284 73.9353 111.919 75.7406 111.361 74.9736C111.304 74.8953 111.168 74.9319 111.105 74.9736C110.702 75.2213 110.367 75.5656 110.13 75.9753C110.036 76.1371 109.984 76.4397 109.874 76.544L109.796 76.6223C109.738 76.6269 109.681 76.6429 109.629 76.6693C109.587 76.6693 109.321 76.5858 109.222 76.6066C109.024 76.6536 108.898 76.8571 108.789 77.0084C108.6 77.3555 108.435 77.7145 108.293 78.0832C108.26 78.1377 108.232 78.1954 108.21 78.2553C108.229 78.1838 108.226 78.1078 108.2 78.0384C108.173 77.969 108.126 77.9098 108.064 77.8693C107.542 77.5249 107.067 78.3388 106.744 78.9127C106.634 78.3336 106.446 77.7232 105.763 78.0049C104.938 78.3388 104.657 79.0484 104.401 79.7945C104.401 78.751 104.26 77.2275 103.394 77.384C102.82 77.4936 102.23 78.5579 101.975 78.9858C101.615 79.5806 101.453 80.4675 100.994 80.9684C100.895 81.0727 101.14 81.1458 101.218 81.0727C101.86 80.4571 102.147 79.2466 102.679 78.5214C102.898 78.2188 103.248 77.5823 103.764 78.031C103.91 78.1614 103.869 78.751 103.895 78.9753C103.973 79.5806 103.973 80.1806 104.036 80.7858C104.036 80.984 104.349 80.8797 104.406 80.7597C104.589 80.384 104.667 79.998 104.834 79.6119C104.919 79.2331 105.133 78.8956 105.439 78.6571C106.123 78.6571 106.457 78.9232 106.441 79.4971C106.477 79.6745 106.712 79.6067 106.796 79.4971C107.015 79.2206 107.714 77.8067 107.938 78.6258C107.964 78.7301 108.053 78.7458 108.152 78.7301C108.674 78.6414 109.076 76.4867 109.556 77.1649C109.613 77.2432 109.754 77.2119 109.811 77.1649C110.333 76.7945 110.615 74.8901 111.377 75.7614C111.397 75.782 111.423 75.7967 111.452 75.804C111.48 75.8113 111.51 75.811 111.538 75.8032C111.977 75.6727 112.06 75.2814 112.342 74.9736C112.624 74.6658 112.451 74.671 112.864 74.5406C113.615 74.3006 112.952 74.5406 113.411 74.6084C113.724 74.6606 113.813 74.791 114.163 74.7649C114.587 74.7164 114.98 74.5163 115.269 74.2014C115.603 73.8206 115.837 73.3458 116.171 72.9493C116.452 72.6683 116.679 72.3397 116.844 71.9788C116.891 71.864 116.615 71.864 116.563 71.9527Z" fill="#455A64"/>
<path d="M127.974 66.7771C127.715 66.7756 127.463 66.858 127.254 67.0119C126.639 67.3511 126.06 67.8258 125.454 68.1911C125.141 68.3789 124.881 68.6606 124.583 68.8432C123.821 69.3128 123.607 68.7389 123.112 68.2015C123.084 68.1849 123.053 68.1762 123.021 68.1762C122.988 68.1762 122.957 68.1849 122.929 68.2015C122.288 68.3632 122.308 68.8641 121.813 69.1772C121.484 69.3806 121.5 69.4224 121.239 69.0467C121.077 68.8224 121.072 68.5771 120.868 68.3632C120.801 68.2902 120.686 68.3215 120.613 68.3632C120.028 68.718 119.689 69.3441 119.225 69.8345C118.761 70.325 118.181 71.4363 117.446 71.6919C117.315 71.7389 117.446 71.8693 117.534 71.8432C118.056 71.7285 118.307 71.3215 118.656 70.9041C119.006 70.4867 119.355 70.1319 119.7 69.7458C119.877 69.5528 120.221 68.9528 120.378 68.9006C121.098 68.6867 120.842 70.3771 121.787 69.7511C122.042 69.5789 122.079 69.1928 122.308 69.0154C123.013 68.4937 122.961 68.8798 123.352 69.1458C123.743 69.4119 123.811 69.7145 124.27 69.605C124.395 69.5789 124.468 69.4432 124.578 69.3911C124.658 69.3053 124.728 69.2108 124.787 69.1093C125.185 68.7304 125.658 68.4374 126.174 68.2485C126.722 67.878 127.254 67.2363 127.917 67.0954C128.089 67.038 128.209 66.7667 127.974 66.7771Z" fill="#455A64"/>
<path d="M85.0346 101.3C84.7946 102.224 83.4016 103.445 82.6503 102.276C82.3216 101.754 82.5094 100.638 82.5094 100.043V97.2778C82.5094 96.5944 82.5094 95.9057 82.5094 95.1909C82.5094 94.9352 82.1025 95.0343 82.1025 95.243V96.5735C82.1025 98.7752 81.9199 100.852 80.8816 102.923C80.6665 103.479 80.3807 104.005 80.0312 104.488C79.3633 105.219 78.7529 105.13 78.346 104.801C78.4346 104.634 78.5129 104.467 78.5964 104.321C78.7581 104.05 79.2277 103.56 79.0816 103.184C78.8781 102.662 77.9286 102.693 77.6625 103.142C77.5368 103.41 77.4898 103.708 77.5267 104.002C77.5636 104.296 77.6831 104.573 77.8712 104.801C77.5425 105.255 77.1303 105.73 76.6294 105.245C76.583 105.212 76.5261 105.198 76.4699 105.206C76.4138 105.214 76.3627 105.243 76.3268 105.287C76.066 105.6 75.9407 105.991 75.7007 106.299C75.3773 106.711 75.3512 107.342 74.6886 107.342C74.5574 107.353 74.4269 107.314 74.3233 107.233C73.9946 106.961 74.412 106.346 74.4746 106.022C74.6002 105.565 74.5441 105.077 74.3181 104.66C74.2926 104.622 74.2533 104.596 74.2086 104.586C74.1639 104.576 74.1171 104.584 74.0781 104.608C73.633 104.815 73.2724 105.168 73.0568 105.609C72.8411 106.049 72.7836 106.551 72.8938 107.029C72.9512 107.217 73.2068 107.478 73.1025 107.624C72.9981 107.77 72.5807 107.786 72.4346 107.728C72.1732 107.628 71.944 107.459 71.772 107.238C71.3129 106.716 70.5303 108.803 70.379 109.074C70.019 109.753 69.7686 110.384 69.1007 110.807C68.9821 110.89 68.8385 110.931 68.6938 110.921C68.3807 110.864 68.4799 110.525 68.4225 110.306C68.4225 110.41 68.386 109.784 68.4225 109.82C68.4225 109.737 68.2764 109.737 68.219 109.753C67.8381 109.852 67.8173 110.087 67.5825 110.436C67.4729 110.603 67.3007 110.906 67.1755 111.062C67.1223 111.194 67.0419 111.314 66.9394 111.413C66.8369 111.512 66.7147 111.588 66.5807 111.636H66.2938C65.9442 111.887 65.6781 112.273 65.3233 112.507C64.7442 112.888 64.2433 113.139 64.1755 112.215C64.173 111.918 64.1468 111.621 64.0973 111.328C64.066 111.187 63.8364 111.255 63.779 111.328C63.4148 111.837 63.1118 112.387 62.8764 112.967C62.7303 113.332 61.7181 115.773 61.3112 114.114C61.1912 113.593 61.8329 112.643 62.0573 112.179C62.4746 111.287 62.5164 111.041 63.8364 110.906C63.9981 110.906 64.4781 110.947 64.5773 110.947C64.6764 110.947 64.6764 110.801 64.5773 110.796C63.7164 110.796 63.1686 110.332 62.4277 111C61.906 111.453 61.7494 112.184 61.4729 112.768C61.1414 113.27 60.9604 113.857 60.9512 114.459C61.0138 115.038 61.3529 115.445 61.9581 115.137C62.3129 114.954 62.5425 114.417 62.7146 114.093C63.1007 113.342 63.3773 112.586 63.7946 111.866C63.8312 112.424 63.7946 112.951 64.2277 113.389C64.2527 113.414 64.2844 113.43 64.3187 113.437C64.353 113.443 64.3885 113.439 64.4207 113.426C64.9127 113.173 65.3661 112.852 65.7668 112.471C66.1477 112.173 66.7007 112.09 67.0451 111.772C67.3569 111.389 67.6279 110.974 67.8538 110.535C67.9492 110.417 68.038 110.293 68.1199 110.165C68.1026 110.356 68.1026 110.548 68.1199 110.739C68.292 111.459 68.8399 111.407 69.3668 111.026C69.801 110.655 70.1559 110.201 70.4103 109.69C70.786 109.069 71.0416 108.125 71.5373 107.556C71.6184 107.736 71.7422 107.892 71.898 108.013C72.0537 108.133 72.2367 108.214 72.4308 108.247C72.6249 108.281 72.8242 108.266 73.0113 108.205C73.1985 108.144 73.3677 108.037 73.5042 107.895C73.5042 107.895 73.5564 107.838 73.5825 107.817C73.8967 107.916 74.2322 107.928 74.5524 107.849C74.8725 107.771 75.1651 107.607 75.3981 107.373C75.6393 107.122 75.8383 106.833 75.9877 106.518C76.0764 106.32 76.1755 106.116 76.2746 105.923C76.4312 105.638 76.5929 105.617 76.7599 105.86C77.172 105.86 77.2138 106.017 77.6155 105.772C77.8539 105.61 78.0477 105.391 78.179 105.135C78.3094 105.261 78.4643 105.358 78.6339 105.421C78.8036 105.484 78.9844 105.511 79.1651 105.5C80.459 105.354 81.2207 103.168 81.6433 102.208C81.8171 101.802 81.9618 101.383 82.0764 100.956C82.0451 101.603 82.0764 102.307 82.4625 102.73C83.6312 103.967 85.1338 102.521 85.452 101.311C85.5147 101.04 85.092 101.081 85.0346 101.3ZM73.2486 106.163C73.3529 105.553 74.2399 104.634 74.1042 105.756C74.0671 105.991 74.0113 106.223 73.9373 106.45C73.8957 106.615 73.838 106.776 73.7651 106.93C73.7534 106.964 73.7395 106.997 73.7233 107.029C73.259 107.071 73.1129 106.93 73.2486 106.163ZM77.819 103.586C77.8161 103.512 77.8336 103.439 77.8695 103.374C77.9054 103.31 77.9583 103.257 78.0225 103.22C78.0824 103.205 78.1452 103.205 78.2051 103.22C78.2906 103.22 78.3743 103.245 78.4451 103.293C78.4873 103.329 78.5213 103.372 78.5447 103.422C78.5681 103.471 78.5804 103.526 78.5807 103.58C78.5893 103.759 78.5275 103.933 78.4086 104.066L78.132 104.462L78.0799 104.535C78.0799 104.535 77.8973 104.144 77.8816 104.097C77.8384 103.966 77.8155 103.828 77.8138 103.69C77.8115 103.655 77.8132 103.62 77.819 103.586Z" fill="#455A64"/>
<path d="M107.136 87.3022H107.006C106.973 87.3074 106.943 87.3221 106.919 87.3443C106.895 87.3666 106.878 87.3955 106.87 87.4274C106.563 88.1339 106.136 88.7817 105.607 89.3422C104.256 90.6726 104.308 88.7109 104.235 88.0222C104.235 87.8813 104.047 87.8918 103.959 87.9492C103.381 88.3489 102.936 88.9121 102.68 89.5665C102.602 89.7231 102.159 90.7457 102.065 90.7144C102.195 90.7613 101.997 89.8118 101.913 89.6709C101.83 89.53 101.778 89.6083 101.726 89.6292C101.107 89.9127 100.558 90.3304 100.121 90.852C99.6831 91.3736 99.367 91.986 99.1952 92.6448C99.0439 92.5092 98.8508 92.4883 98.5587 92.6448C98.2665 92.8013 97.9847 93.5735 97.7447 93.61C97.7447 93.61 97.4578 93.2448 97.3378 93.2135C96.7065 93.0413 95.9447 93.9909 95.5743 94.3509C94.5987 95.3161 95.11 93.897 94.2334 93.8292C94.1977 93.8235 94.1611 93.8273 94.1273 93.8401C94.0934 93.8529 94.0635 93.8743 94.0404 93.9022C93.6457 94.6278 93.2011 95.3251 92.71 95.9892C92.2456 96.5683 91.87 96.7926 91.6665 95.8744C91.5361 95.2431 92.0734 94.5596 92.1569 93.9231C92.1569 93.777 91.9274 93.7822 91.8647 93.8709C90.7587 95.4361 90.0126 97.1057 88.6561 98.4935C88.5569 98.5926 88.8021 98.6552 88.8804 98.577C90.0282 97.4552 90.7326 96.13 91.5674 94.8152C91.2961 95.6448 91.0039 96.7091 91.6561 96.97C92.3082 97.2309 92.9343 96.1509 93.19 95.7909C93.4287 95.3098 93.7172 94.8552 94.0508 94.4344C94.3847 94.137 94.1656 94.1422 94.51 94.5439C94.6404 94.6952 94.6613 94.9509 94.8439 95.0657C94.9288 95.1424 95.0366 95.1891 95.1507 95.1985C95.2648 95.208 95.3788 95.1796 95.4752 95.1178C95.7726 94.9405 97.0404 92.6135 97.4369 93.9178C97.463 93.9961 97.5726 94.0118 97.6404 93.9857C97.9378 93.8761 98.83 92.4205 99.1117 93.2239C99.1587 93.37 99.4404 93.3022 99.4456 93.1613C99.4926 92.1178 100.061 91.4552 100.729 90.7457C101.011 90.4483 101.293 89.8639 101.726 90.37C101.736 90.5885 101.758 90.8063 101.793 91.0222C101.825 91.1265 101.966 91.1109 102.039 91.0796C102.967 90.657 103.082 89.1491 103.875 88.3926C103.912 89.1961 103.875 90.3439 104.981 90.1509C105.408 90.0313 105.77 89.7481 105.988 89.3631C106.239 89.0187 106.468 88.6691 106.724 88.3196C106.76 88.2674 107.178 87.5161 107.204 87.5057C107.397 87.4639 107.293 87.2813 107.136 87.3022Z" fill="#455A64"/>
<path d="M124.657 77.8589C124.515 77.8436 124.372 77.859 124.237 77.904C124.102 77.949 123.978 78.0226 123.874 78.1197C123.665 78.2867 123.551 78.5476 123.352 78.7249C122.309 79.6432 121.787 78.6362 121.678 77.6815C121.652 77.4832 121.385 77.5876 121.318 77.6815C120.89 78.3336 121.067 79.0589 120.535 79.7684C120.118 80.2902 118.578 82.1945 118.292 80.598C118.26 80.431 118.041 80.478 117.958 80.5719C117.556 81.0102 117.311 81.5476 116.914 82.0067C116.69 82.2728 116.048 83.0136 115.824 83.0032C115.224 82.9667 115.218 82.0536 115.182 81.6832C115.182 81.5163 114.947 81.5632 114.864 81.6415C114.665 81.8293 112.985 85.3406 112.521 84.9806C112.396 84.8867 112.119 85.0641 112.271 85.1841C113.158 85.878 114.238 83.3997 114.827 82.2832C114.827 82.8884 114.874 83.5093 115.688 83.3528C116.794 83.1441 117.352 81.871 117.984 81.0206C118.234 81.7041 118.808 81.9023 119.497 81.4015C120.103 80.8939 120.623 80.2913 121.036 79.6171C121.229 79.2387 121.353 78.8287 121.401 78.4067C121.558 78.9754 121.86 79.4867 122.565 79.5076C123.53 79.5389 123.686 78.1719 124.589 78.1145C124.766 78.1249 124.876 77.8693 124.657 77.8589Z" fill="#455A64"/>
<path d="M76.7918 114.464C77.1257 114.067 77.3657 113.749 77.9135 113.744C77.9659 113.741 78.0181 113.751 78.0648 113.775C78.103 113.794 78.1354 113.823 78.1587 113.859C78.2554 114.023 78.3876 114.163 78.5456 114.27C78.7035 114.376 78.8833 114.446 79.0718 114.474C79.5935 114.511 80.5066 113.671 81.1587 112.789C81.6805 112.993 82.5935 112.267 82.9953 111.897C83.2092 111.699 82.9014 111.511 82.7135 111.688C82.6071 111.909 82.4414 112.095 82.235 112.227C82.0286 112.359 81.7897 112.431 81.5448 112.434C81.5135 112.434 81.4718 112.434 81.4718 112.398C81.5135 112.043 82.2805 111.141 81.6753 110.885C81.07 110.629 80.7361 111.652 80.7674 112.043C80.77 112.224 80.8109 112.401 80.8874 112.565C80.7414 112.805 80.5848 113.045 80.4127 113.274C80.224 113.459 80.0255 113.633 79.8179 113.796C79.7187 113.91 79.5933 113.998 79.4527 114.052C79.2188 114.082 78.9816 114.033 78.7796 113.911C78.43 113.64 79.0405 113.248 79.2179 113.034C79.4715 112.738 79.6855 112.41 79.8544 112.059C80.0892 111.537 80.1987 110.848 79.4422 110.822C78.3987 110.822 77.8509 112.299 78.044 113.394C77.8297 113.415 77.6201 113.47 77.4231 113.556C77.0724 113.78 76.7692 114.071 76.5309 114.412C76.1031 114.934 75.8996 115.221 75.9309 114.339C75.9309 114.172 75.6648 114.208 75.6127 114.339C75.2786 115.254 74.8204 116.12 74.2509 116.911C73.8961 117.318 73.3535 117.777 72.9413 117.579C73.367 116.943 73.6762 116.236 73.8544 115.492C73.9744 114.97 74.3761 113.337 73.3848 113.259C72.5866 113.196 72.3413 114.861 72.2266 115.346C72.0377 116.095 72.0963 116.886 72.3935 117.6L72.4666 117.709C72.2888 117.967 72.0899 118.21 71.8718 118.434C71.5014 118.805 70.99 119.363 70.4109 119.358C70.3566 119.363 70.3019 119.355 70.2512 119.335C70.2005 119.315 70.1551 119.284 70.1187 119.243C69.8787 118.941 70.4579 118.356 70.5831 118.08C70.7767 117.643 70.8436 117.16 70.7761 116.687C70.7713 116.655 70.7555 116.627 70.7317 116.606C70.7079 116.585 70.6774 116.573 70.6457 116.572H70.4996C70.4605 116.569 70.4213 116.576 70.3856 116.592C70.35 116.609 70.3192 116.634 70.2961 116.666C69.8143 117.361 69.5708 118.194 69.6022 119.04L69.2213 119.457C68.8927 119.827 68.2613 120.928 67.7813 120.01C67.7628 119.991 67.7399 119.976 67.7145 119.967C67.6891 119.958 67.662 119.955 67.6353 119.958C67.317 120.021 67.2805 120.141 67.0718 120.422C66.8631 120.704 66.6387 121.367 66.1222 120.897C66.1222 120.897 66.1222 120.234 66.0857 120.146C66.0492 120.057 65.8405 120.073 65.7779 120.146C65.2822 120.699 65.0579 121.581 64.5674 122.149C64.6493 121.746 64.7644 121.349 64.9118 120.965C64.9796 120.772 64.6353 120.782 64.5831 120.939C64.1709 122.066 63.7327 123.307 62.8718 124.163C62.736 124.38 62.5284 124.542 62.2852 124.621C62.042 124.7 61.7787 124.691 61.5413 124.596C61.3812 124.34 61.3074 124.039 61.3309 123.737C61.3544 123.436 61.4738 123.15 61.6718 122.921C61.8911 122.405 62.253 121.961 62.7153 121.643C63.1848 121.424 63.3883 121.471 63.3257 121.784C63.3257 121.914 63.5813 121.894 63.597 121.784C63.6648 121.137 63.0753 121.21 62.5848 121.424C61.7918 121.789 60.8318 123.287 60.8892 124.163C60.9361 124.925 61.7553 125.144 62.3918 124.909C63.2787 124.591 63.8631 123.636 64.2909 122.655C64.3263 122.664 64.3632 122.665 64.3991 122.659C64.435 122.652 64.4692 122.639 64.4996 122.619C65.1361 122.175 65.3761 121.32 65.7935 120.647C65.7935 121.142 65.7257 121.654 66.4248 121.523C66.8944 121.434 66.9466 121.069 67.2179 120.761C67.6822 120.24 67.3692 120.485 67.8231 120.761C68.4544 121.142 68.8666 120.386 69.2109 119.968L69.7327 119.405C69.7559 119.465 69.7856 119.523 69.8214 119.577C70.4057 120.287 71.157 119.577 71.6474 119.128C72.031 118.787 72.3804 118.41 72.6909 118.001C73.6822 118.909 75.0074 116.436 75.6335 115.116C75.6355 115.17 75.6508 115.223 75.678 115.269C75.7051 115.316 75.7433 115.355 75.7892 115.383C75.8351 115.412 75.8872 115.428 75.9411 115.432C75.9949 115.435 76.0488 115.425 76.0979 115.403C76.3535 115.257 76.6405 114.647 76.7918 114.464ZM70.2022 118.116C70.1709 118.194 70.1344 118.267 70.0979 118.341C70.0092 118.513 69.9622 118.57 69.9466 118.341C69.9446 117.993 70.012 117.649 70.1448 117.328C70.1759 117.198 70.2471 117.082 70.3483 116.994C70.39 116.963 70.4631 116.947 70.484 116.994C70.4883 117.008 70.4883 117.023 70.484 117.036C70.4945 117.142 70.4945 117.249 70.484 117.354C70.4533 117.537 70.3934 117.713 70.3066 117.876L70.2022 118.116ZM72.644 117.193C72.5348 116.899 72.4868 116.587 72.5031 116.274C72.4805 115.496 72.6154 114.72 72.8996 113.994C72.9148 113.946 72.9377 113.9 72.9674 113.859C73.0111 113.809 73.07 113.775 73.1351 113.761C73.2001 113.748 73.2677 113.757 73.3274 113.786C73.3878 113.815 73.4413 113.856 73.4845 113.908C73.5277 113.959 73.5595 114.019 73.5779 114.083C73.6146 114.212 73.6305 114.346 73.6248 114.48C73.6379 114.935 73.5762 115.39 73.4422 115.826C73.2917 116.202 73.1174 116.568 72.9205 116.921C72.8527 117.052 72.7796 117.177 72.7066 117.297L72.644 117.193ZM78.4979 113.175C78.4735 113.156 78.4539 113.131 78.4405 113.102C78.4301 113.056 78.4301 113.008 78.4405 112.961C78.4329 112.58 78.4839 112.2 78.5918 111.834C78.717 111.48 78.9622 111.114 79.3848 111.135C79.4438 111.135 79.5018 111.151 79.5518 111.182C79.9535 111.454 79.5518 112.069 79.3796 112.346C79.2487 112.532 79.1021 112.706 78.9413 112.867C78.8527 112.998 78.6335 113.301 78.4979 113.201V113.175Z" fill="#455A64"/>
<path d="M84.5025 111.307C84.2938 111.307 84.179 111.631 84.4399 111.631C84.7008 111.631 84.7686 111.307 84.5025 111.307Z" fill="black"/>
<path d="M169.953 138.386C169.902 138.252 169.874 138.111 169.869 137.968V138.866C169.867 138.918 169.867 138.97 169.869 139.022V139.059C169.864 139.113 169.864 139.167 169.869 139.221V139.299C169.877 139.343 169.888 139.386 169.901 139.429L169.979 139.633C170.01 139.701 170.047 139.768 170.083 139.836C170.398 140.337 170.841 140.744 171.367 141.015C172.526 141.588 173.803 141.88 175.096 141.866C176.389 141.853 177.66 141.534 178.807 140.937C179.078 140.783 179.329 140.595 179.553 140.379C179.597 140.345 179.637 140.306 179.673 140.264C179.698 140.242 179.721 140.218 179.741 140.191C179.783 140.145 179.823 140.096 179.861 140.045C179.993 139.878 180.102 139.694 180.184 139.497C180.204 139.455 180.22 139.412 180.231 139.367L180.268 139.236C180.285 139.166 180.297 139.094 180.304 139.022C180.304 138.965 180.304 138.913 180.304 138.861C180.302 138.84 180.302 138.819 180.304 138.798V137.754C180.31 137.931 180.289 138.107 180.241 138.276C179.971 137.57 179.441 136.993 178.76 136.664C177.601 136.09 176.324 135.798 175.031 135.81C173.738 135.823 172.467 136.14 171.32 136.737C170.673 137.095 170.185 137.684 169.953 138.386ZM180.388 138.61C180.385 138.586 180.385 138.561 180.388 138.537C180.386 138.562 180.388 138.586 180.393 138.61H180.388Z" fill="#1E7944"/>
<path d="M168.82 30.125L179.349 29.9998V31.0432L180.392 137.781C180.399 137.957 180.378 138.133 180.33 138.302C180.075 139.02 179.554 139.613 178.874 139.956C177.728 140.554 176.456 140.872 175.163 140.885C173.87 140.898 172.592 140.604 171.434 140.029C170.908 139.761 170.464 139.356 170.151 138.855C170.065 138.721 170 138.576 169.958 138.422C169.907 138.289 169.879 138.148 169.874 138.005C169.872 137.981 169.872 137.956 169.874 137.932V137.895L168.82 30.125Z" fill="#F0F0F0"/>
<path d="M170.387 32.2484C168.3 31.0849 168.3 29.1597 170.345 27.9492C171.492 27.3539 172.764 27.037 174.056 27.0243C175.349 27.0116 176.626 27.3035 177.785 27.8762C179.872 29.0397 179.872 30.9649 177.832 32.1753C176.684 32.7707 175.412 33.0876 174.118 33.1003C172.825 33.113 171.547 32.8211 170.387 32.2484Z" fill="#1E7944"/>
<path d="M171.075 22.5493C171.059 22.592 171.045 22.6355 171.033 22.6797L168.946 29.4258V29.478C168.932 29.5172 168.919 29.5573 168.91 29.598V29.671C168.696 30.584 169.191 31.544 170.417 32.2327C171.577 32.8055 172.855 33.0974 174.149 33.0847C175.442 33.072 176.714 32.7551 177.863 32.1597C179.047 31.4554 179.532 30.5162 179.334 29.6188V29.5667C179.31 29.4779 179.28 29.3908 179.245 29.3058V29.2484L177.038 22.5597C176.883 22.1647 176.585 21.8425 176.204 21.6571C175.541 21.3281 174.81 21.1605 174.07 21.1677C173.33 21.175 172.602 21.3569 171.946 21.6988C171.563 21.8683 171.254 22.1702 171.075 22.5493Z" fill="#E0E0E0"/>
<path d="M172.984 110.426C172.981 110.431 172.98 110.436 172.98 110.441C172.98 110.447 172.981 110.452 172.984 110.457V110.598C173.011 110.745 173.072 110.883 173.163 111.002C173.254 111.121 173.371 111.217 173.506 111.281C173.919 111.485 174.374 111.588 174.834 111.584C175.294 111.579 175.747 111.467 176.156 111.255C176.288 111.189 176.403 111.094 176.493 110.978C176.583 110.861 176.646 110.726 176.678 110.582V110.4L175.911 26.8223L172.17 24.7354L172.984 110.426Z" fill="#455A64"/>
<path d="M175.973 32.8849L175.911 26.8223L172.17 24.7354L172.253 32.9475C173.484 33.1878 174.752 33.1665 175.973 32.8849Z" fill="#37474F"/>
<path d="M172.258 19.6901L170.37 25.7893C170.348 25.8434 170.33 25.8992 170.317 25.9562C170.151 26.6084 170.505 27.2971 171.361 27.7927C172.18 28.1981 173.083 28.4042 173.997 28.3942C174.911 28.3842 175.81 28.1585 176.62 27.7354C177.455 27.2449 177.804 26.5823 177.664 25.9562C177.664 25.9562 177.664 25.9249 177.664 25.9145L177.611 25.7423L175.582 19.6067C175.496 19.38 175.329 19.1937 175.112 19.0849C174.741 18.8957 174.331 18.7971 173.915 18.7971C173.499 18.7971 173.088 18.8957 172.718 19.0849C172.603 19.148 172.503 19.2345 172.424 19.3387C172.345 19.443 172.288 19.5627 172.258 19.6901Z" fill="#1E7944"/>
<path opacity="0.1" d="M172.258 19.6901L170.37 25.7893C170.348 25.8434 170.33 25.8992 170.317 25.9562C170.151 26.6084 170.505 27.2971 171.361 27.7927C172.18 28.1981 173.083 28.4042 173.997 28.3942C174.911 28.3842 175.81 28.1585 176.62 27.7354C177.455 27.2449 177.804 26.5823 177.664 25.9562C177.664 25.9562 177.664 25.9249 177.664 25.9145L177.611 25.7423L175.582 19.6067C175.496 19.38 175.329 19.1937 175.112 19.0849C174.741 18.8957 174.331 18.7971 173.915 18.7971C173.499 18.7971 173.088 18.8957 172.718 19.0849C172.603 19.148 172.503 19.2345 172.424 19.3387C172.345 19.443 172.288 19.5627 172.258 19.6901Z" fill="black"/>
<path d="M172.729 19.1213C173.1 18.9321 173.51 18.8335 173.926 18.8335C174.343 18.8335 174.753 18.9321 175.124 19.1213C175.34 19.2301 175.508 19.4164 175.593 19.643L176.637 22.7735C176.799 23.2587 176.559 23.7856 175.906 24.1717C175.316 24.4781 174.662 24.6415 173.997 24.6488C173.331 24.656 172.674 24.5069 172.077 24.2135C171.806 24.1077 171.581 23.9104 171.441 23.6558C171.301 23.4013 171.255 23.1057 171.31 22.8204L171.346 22.7004L172.254 19.69C172.29 19.5678 172.351 19.4544 172.433 19.3566C172.514 19.2588 172.615 19.1787 172.729 19.1213Z" fill="#1E7944"/>
<path opacity="0.1" d="M172.745 20.5039C172.077 20.1283 172.072 19.5074 172.745 19.1213C173.116 18.9321 173.526 18.8335 173.942 18.8335C174.359 18.8335 174.769 18.9321 175.14 19.1213C175.284 19.1705 175.409 19.2636 175.498 19.3876C175.587 19.5116 175.634 19.6602 175.634 19.8126C175.634 19.965 175.587 20.1136 175.498 20.2376C175.409 20.3616 175.284 20.4547 175.14 20.5039C174.769 20.6919 174.358 20.7898 173.942 20.7898C173.526 20.7898 173.116 20.6919 172.745 20.5039Z" fill="black"/>
<path d="M173.146 126.694C173.161 126.858 173.221 127.015 173.318 127.148C173.416 127.281 173.547 127.386 173.699 127.45C174.109 127.653 174.562 127.757 175.02 127.752C175.477 127.748 175.928 127.635 176.334 127.424C176.482 127.354 176.609 127.245 176.701 127.109C176.793 126.974 176.846 126.816 176.856 126.652L176.694 110.582C176.662 110.726 176.599 110.861 176.509 110.978C176.419 111.094 176.304 111.189 176.172 111.255C175.763 111.467 175.31 111.579 174.85 111.584C174.39 111.588 173.935 111.485 173.522 111.281C173.387 111.217 173.27 111.121 173.179 111.002C173.088 110.883 173.027 110.745 173 110.598L173.146 126.694Z" fill="#FAFAFA"/>
<path d="M173.683 125.927C174.091 125.721 174.542 125.613 175 125.613C175.458 125.613 175.909 125.721 176.317 125.927C176.475 125.981 176.612 126.084 176.709 126.22C176.806 126.356 176.858 126.519 176.858 126.686C176.858 126.853 176.806 127.015 176.709 127.152C176.612 127.288 176.475 127.39 176.317 127.445C175.911 127.656 175.461 127.768 175.003 127.773C174.545 127.777 174.093 127.674 173.683 127.471C173.523 127.417 173.384 127.315 173.286 127.178C173.188 127.042 173.135 126.877 173.135 126.709C173.135 126.541 173.188 126.377 173.286 126.24C173.384 126.103 173.523 126.001 173.683 125.947V125.927Z" fill="#F5F5F5"/>
<path d="M170.328 131.342V131.457L170.396 137.796C170.391 137.845 170.391 137.894 170.396 137.942V137.979C170.46 138.372 170.621 138.744 170.864 139.06C171.107 139.376 171.425 139.627 171.789 139.789C172.832 140.305 173.983 140.568 175.147 140.556C176.311 140.544 177.455 140.258 178.488 139.721C179.412 139.174 179.866 138.464 179.855 137.76L179.792 131.342C179.795 131.332 179.795 131.321 179.792 131.311V131.274C179.761 130.591 179.297 129.918 178.389 129.407C177.346 128.891 176.195 128.628 175.031 128.64C173.867 128.652 172.723 128.938 171.69 129.474C171.325 129.647 171.008 129.908 170.77 130.234C170.533 130.561 170.38 130.942 170.328 131.342Z" fill="#1E7944"/>
<path opacity="0.05" d="M170.328 131.342V131.457L170.396 137.796C170.391 137.845 170.391 137.894 170.396 137.942V137.979C170.46 138.372 170.621 138.744 170.864 139.06C171.107 139.376 171.425 139.627 171.789 139.789C172.832 140.305 173.983 140.568 175.147 140.556C176.311 140.544 177.455 140.258 178.488 139.721C179.412 139.174 179.866 138.464 179.855 137.76L179.792 131.342C179.795 131.332 179.795 131.321 179.792 131.311V131.274C179.761 130.591 179.297 129.918 178.389 129.407C177.346 128.891 176.195 128.628 175.031 128.64C173.867 128.652 172.723 128.938 171.69 129.474C171.325 129.647 171.008 129.908 170.77 130.234C170.533 130.561 170.38 130.942 170.328 131.342Z" fill="black"/>
<path opacity="0.1" d="M171.732 133.335C169.87 132.292 169.854 130.554 171.691 129.464C172.723 128.927 173.868 128.641 175.032 128.63C176.196 128.618 177.346 128.88 178.39 129.396C180.252 130.44 180.268 132.177 178.431 133.262C177.399 133.801 176.255 134.088 175.091 134.101C173.927 134.114 172.776 133.851 171.732 133.335Z" fill="black"/>
<path d="M173.084 17.1442V19.7946C173.088 19.8732 173.115 19.9491 173.16 20.0137C173.205 20.0782 173.267 20.1288 173.34 20.1598C173.53 20.2561 173.74 20.3062 173.953 20.3062C174.166 20.3062 174.376 20.2561 174.566 20.1598C174.635 20.1267 174.695 20.076 174.739 20.0129C174.782 19.9498 174.809 19.8764 174.816 19.7998L174.842 17.1546C174.838 17.003 174.794 16.8551 174.715 16.7256C174.636 16.5961 174.525 16.4895 174.392 16.4162C174.259 16.343 174.11 16.3057 173.958 16.308C173.806 16.3103 173.658 16.3521 173.527 16.4294C173.4 16.5025 173.293 16.6061 173.216 16.7308C173.138 16.8556 173.093 16.9976 173.084 17.1442Z" fill="#455A64"/>
<path d="M173.103 16.977C173.098 17.0273 173.098 17.078 173.103 17.1283C173.121 17.1958 173.154 17.2584 173.199 17.3117C173.244 17.3649 173.301 17.4074 173.364 17.4361C173.554 17.5324 173.764 17.5826 173.977 17.5826C174.19 17.5826 174.4 17.5324 174.59 17.4361C174.659 17.4049 174.717 17.356 174.76 17.2946C174.803 17.2332 174.829 17.1614 174.836 17.0866V17.0344C174.836 17.0188 174.836 17.0031 174.836 16.9874C174.819 16.8927 174.783 16.8023 174.731 16.7214C174.673 16.6226 174.596 16.5362 174.504 16.4673C174.413 16.3984 174.309 16.3481 174.198 16.3195C174.087 16.291 173.971 16.2845 173.858 16.3007C173.744 16.3168 173.635 16.3551 173.536 16.4135C173.428 16.4709 173.333 16.551 173.259 16.6482C173.184 16.7454 173.131 16.8575 173.103 16.977Z" fill="#263238"/>
<path d="M108.209 179.092L163.31 147.281L216.292 177.871L161.192 209.681L108.209 179.092Z" fill="#1E7944"/>
<path opacity="0.3" d="M108.209 179.092L163.31 147.281L216.292 177.871L161.192 209.681L108.209 179.092Z" fill="black"/>
<path d="M108.21 179.092L101.85 175.424L156.95 143.608L163.31 147.281L108.21 179.092Z" fill="#1E7944"/>
<path opacity="0.1" d="M108.21 179.092L101.85 175.424L156.95 143.608L163.31 147.281L108.21 179.092Z" fill="black"/>
<path d="M101.85 175.424V182.765L161.192 217.028V209.681L101.85 175.424Z" fill="#1E7944"/>
<path opacity="0.2" d="M101.85 175.424V182.765L161.192 217.028V209.681L101.85 175.424Z" fill="black"/>
<path d="M161.191 209.682L216.292 177.871V185.212L161.191 217.028V209.682Z" fill="#1E7944"/>
<path d="M206.014 167.003L163.31 147.281L108.209 179.108L161.192 203.582L208.873 176.035C211.785 174.349 214.612 171.506 214.435 167.77C212.776 168.6 210.105 168.908 206.014 167.003Z" fill="#1E7944"/>
<path opacity="0.3" d="M206.014 167.003L163.31 147.281L108.209 179.108L161.192 203.582L208.873 176.035C211.785 174.349 214.612 171.506 214.435 167.77C212.776 168.6 210.105 168.908 206.014 167.003Z" fill="white"/>
<g opacity="0.7">
<path d="M166.447 158.212C166.197 158.477 166.045 158.819 166.014 159.182C165.748 160.56 165.148 161.269 163.479 162.313C162.675 162.798 162.602 163.179 162.101 163.711C160.933 164.942 160.442 164.003 159.336 163.555C159.018 163.429 158.647 163.628 158.71 163.821C158.96 164.655 160.359 166.982 157.969 167.123C156.738 167.196 156.336 166.492 155.308 166.127C154.145 165.715 154.787 168.214 154.901 168.652C155 169.138 155.048 169.633 155.047 170.129C155.078 170.429 155.037 170.732 154.927 171.014C154.818 171.295 154.642 171.546 154.416 171.746C154.142 171.907 153.831 171.995 153.514 172.002C152.671 172.108 151.815 172.043 150.999 171.809C151.134 171.485 151.453 171.287 151.588 170.922C151.734 170.532 151.782 170.113 151.729 169.701C151.606 168.794 151.177 167.957 150.514 167.327C149.955 166.805 148.343 166.017 147.216 166.518C146.089 167.019 146.694 168.605 146.971 169.236C147.399 170.139 148.427 171.042 149.647 171.756C148.994 172.085 148.287 172.297 147.561 172.382C146.376 172.565 145.427 172.492 145.061 173.28C144.874 173.692 145.234 174.396 144.821 174.735C144.054 175.367 143.256 174.694 142.583 174.767C141.691 174.871 141.414 175.028 141.409 175.612C141.409 175.795 141.686 176.066 141.628 176.228L141.774 176.452C141.37 176.528 140.952 176.475 140.58 176.301C140.418 176.259 139.536 175.915 139.536 175.92C139.432 175.882 139.319 175.877 139.212 175.905C139.105 175.933 139.009 175.993 138.936 176.076C138.519 176.937 138.842 177.772 139.014 178.617C137.72 176.843 136.839 175.049 134.392 173.562C133.061 172.758 130.74 171.751 129.08 172.842C126.587 174.506 127.427 179.009 130.839 180.099C130.909 180.111 130.981 180.107 131.05 180.087C131.119 180.067 131.182 180.032 131.235 179.984L131.517 179.718C131.757 179.494 131.381 179.196 131.063 179.462C130.427 179.984 128.856 177.193 128.799 177C128.517 175.993 128.428 174.751 129.154 173.796C130.687 171.767 133.969 173.984 135.221 175.028C137.089 176.593 137.642 178.382 139.114 180.031C139.354 180.297 139.954 180.276 140.021 179.963C140.256 178.862 139.5 177.777 139.734 176.692C140.663 177.12 142.239 177.897 142.828 177.089C143.115 176.702 142.51 176.249 142.698 175.842C142.98 175.221 142.891 175.602 143.773 175.727C144.095 175.795 144.427 175.805 144.754 175.758C145.079 175.701 145.371 175.524 145.573 175.262C146.308 174.417 145.463 173.525 147.367 173.029C148.411 172.748 149.303 172.852 150.242 172.351L150.487 172.205L151.051 172.461C152.668 173.134 154.614 172.982 155.444 171.897C155.894 171.213 156.091 170.394 156.002 169.581C156.034 169.044 156.034 168.505 156.002 167.969C155.925 167.64 155.819 167.318 155.684 167.009C156.587 167.53 157.374 168.245 158.752 167.828C160.714 167.233 160.265 165.657 159.853 164.504C161.006 165.12 162.054 165.751 162.884 164.384C163.327 163.654 163.474 163.163 164.449 162.584C164.982 162.298 165.485 161.961 165.952 161.577C166.995 160.586 166.38 159.49 167.157 158.494C167.36 158.202 166.76 157.899 166.447 158.212ZM148.875 170.342C148.093 169.695 147.404 168.72 147.571 167.906C147.675 167.384 148.286 166.763 149.287 167.285C150.19 167.755 150.68 169.095 150.754 169.753C150.796 170.044 150.767 170.341 150.669 170.618C150.57 170.895 150.406 171.145 150.19 171.344C149.731 171.038 149.292 170.704 148.875 170.342Z" fill="#455A64"/>
<path d="M177.372 166.268C177.025 166.403 176.688 166.563 176.365 166.748C175.713 167.104 174.979 167.284 174.236 167.269L174.273 167.176C174.513 166.289 173.829 165.183 172.9 164.473C172.567 164.174 172.15 163.983 171.705 163.927C171.26 163.871 170.809 163.953 170.412 164.16C169.447 164.739 170.073 165.835 170.652 166.424C171.261 167.018 172.021 167.434 172.848 167.629C172.423 167.976 171.941 168.248 171.424 168.433C170.574 168.772 170.177 168.762 170.146 169.476C170.175 169.856 170.248 170.231 170.365 170.593C170.506 171.313 170.365 172.158 168.8 172.069C168.115 172.015 167.445 171.839 166.822 171.548C166.52 171.423 166.207 171.548 166.18 171.741C166.092 172.341 166.358 172.946 166.327 173.546C166.243 175.221 163.859 173.546 163.118 173.05C162.732 172.784 162.288 173.05 162.44 173.337C162.93 174.256 162.706 175.424 162.44 176.363C162.304 176.849 162.1 177.788 161.36 178.111C161.042 178.254 160.688 178.297 160.345 178.237C160.002 178.177 159.685 178.015 159.434 177.772C160.244 176.431 160.501 174.827 160.149 173.301C159.946 172.581 159.429 171.736 157.968 172.148C156.215 172.669 156.403 174.078 156.742 174.97C157.179 176.015 157.795 176.976 158.563 177.809C157.567 179.468 155.735 180.856 153.414 182.233C153.116 182.416 153.367 182.802 153.774 182.577C156.174 181.252 157.895 180.083 159.111 178.299C159.519 178.672 160.046 178.887 160.599 178.907C161.151 178.927 161.692 178.751 162.127 178.409C163.436 177.454 163.801 175.607 163.53 174.172C164.339 174.736 165.356 175.283 166.337 174.97C167.673 174.537 167.156 173.17 167.026 172.273C168.038 172.654 169.327 173.003 170.391 172.591C171.956 171.981 170.913 170.796 171.027 169.956C171.137 168.965 172.426 169.069 173.328 168.443C173.569 168.274 173.777 168.064 173.944 167.823C175.535 167.922 177.163 167.416 178.076 166.304C178.092 166.285 178.103 166.263 178.11 166.24C178.117 166.216 178.119 166.192 178.116 166.167C178.113 166.143 178.105 166.119 178.093 166.098C178.081 166.077 178.064 166.058 178.045 166.043L177.873 165.897C177.596 165.647 177.163 166.069 177.372 166.268ZM158.266 176.212C157.864 175.57 156.758 173.885 157.368 173.082C157.44 172.995 157.526 172.923 157.624 172.868C157.783 172.783 157.958 172.732 158.137 172.718C158.317 172.705 158.498 172.729 158.667 172.789C158.922 172.888 159.14 173.062 159.293 173.289C159.445 173.516 159.523 173.784 159.518 174.057C159.512 174.496 159.477 174.933 159.414 175.367C159.356 175.991 159.19 176.6 158.923 177.167C158.686 176.861 158.467 176.542 158.266 176.212ZM171.137 165.996C170.953 165.837 170.833 165.617 170.798 165.376C170.808 165.188 170.886 165.011 171.018 164.877C171.149 164.744 171.325 164.663 171.513 164.65C172.196 164.583 172.582 165.083 172.942 165.553C173.015 165.647 173.678 167.118 173.375 167.061C172.539 166.975 171.757 166.607 171.158 166.017L171.137 165.996Z" fill="#455A64"/>
<path d="M156.488 188.28C156.869 189.845 158.174 191.202 159.144 192.454C160.168 193.833 161.423 195.025 162.854 195.975C163.266 196.236 163.589 195.829 163.438 195.615C163.21 195.192 162.928 194.801 162.598 194.452C162.483 194.348 162.217 194.421 162.076 194.53C161.174 193.643 160.511 192.662 159.754 191.744C158.847 190.669 157.511 189.271 157.104 188.092C157.02 187.758 156.431 188.061 156.488 188.28Z" fill="#455A64"/>
<path d="M164.93 186.49C164.017 186.303 163.078 186.287 162.159 186.443C162.242 186.336 162.346 186.247 162.464 186.181C162.582 186.115 162.713 186.074 162.847 186.06C162.982 186.046 163.118 186.059 163.247 186.099C163.376 186.139 163.496 186.204 163.599 186.292C163.907 186.475 164.314 186.047 164.038 185.875C163.676 185.688 163.271 185.598 162.864 185.615C162.457 185.631 162.062 185.753 161.716 185.968C161.463 186.061 161.239 186.22 161.068 186.428C160.896 186.636 160.783 186.887 160.74 187.153C160.74 187.153 160.74 187.184 160.74 187.2C160.738 187.586 160.78 187.971 160.866 188.348C161.074 189.688 162.081 190.784 163.177 191.963C163.597 192.464 164.134 192.854 164.739 193.099C165.345 193.345 166.002 193.438 166.652 193.372C170.079 193.002 169.26 189.824 168.149 188.614C167.33 187.69 166.699 186.84 164.93 186.49ZM167.753 192.047C165.373 194.264 162.749 190.549 162.139 189.636C161.802 189.129 161.621 188.534 161.617 187.925C161.631 187.672 161.682 187.422 161.768 187.184C165.864 185.817 169.819 190.122 167.753 192.047Z" fill="#455A64"/>
<path d="M168.862 184.257C168.774 184.231 168.679 184.234 168.593 184.266C168.506 184.298 168.433 184.357 168.382 184.435C168.32 184.591 168.241 184.742 168.184 184.899C168.127 185.056 168.283 185.05 168.424 185.04C168.494 185.039 168.563 185.022 168.625 184.991C168.688 184.959 168.742 184.913 168.784 184.857C168.841 184.774 168.92 184.685 168.982 184.602C169.011 184.575 169.031 184.541 169.041 184.504C169.05 184.466 169.049 184.426 169.036 184.39C169.023 184.353 169 184.321 168.969 184.297C168.938 184.274 168.901 184.26 168.862 184.257Z" fill="#455A64"/>
<path d="M175.155 180.475C174.606 180.258 174.011 180.186 173.427 180.264C172.842 180.343 172.287 180.57 171.816 180.923C170.772 181.706 171.069 182.676 171.362 183.584C171.45 183.861 172.066 183.642 172.003 183.428C171.842 183.036 171.74 182.623 171.701 182.202C172.536 183.193 173.266 184.262 174.132 185.295C174.059 185.389 173.991 185.483 173.908 185.572C173.72 185.786 174.169 186.177 174.497 185.911L174.591 185.822C175.321 186.655 176.162 187.383 177.09 187.988C177.518 188.29 178.05 187.815 177.643 187.549C176.685 186.918 175.817 186.158 175.066 185.29C175.311 184.941 175.499 184.56 175.729 184.21C176.062 183.783 176.318 183.301 176.485 182.786C176.694 181.951 176.36 181.048 175.155 180.475ZM175.155 181.189C176.198 181.967 175.755 182.859 175.196 183.694C174.977 184.022 174.769 184.367 174.549 184.706C173.715 183.709 172.984 182.682 172.176 181.737C172.134 181.691 172.079 181.659 172.019 181.644C171.958 181.629 171.895 181.632 171.836 181.654C171.836 181.622 171.868 181.591 171.889 181.56C172.483 180.762 174.163 180.443 175.165 181.189H175.155Z" fill="#455A64"/>
<path d="M189.868 176.979C189.583 177.438 189.148 177.783 188.636 177.955C187.389 178.435 186.252 177.845 185.396 177.282C184.645 176.76 184.452 176.066 183.831 175.523C183.587 175.267 183.286 175.072 182.952 174.954C182.619 174.836 182.262 174.799 181.911 174.845C179.991 175.273 180.868 177.532 181.128 178.795C180.547 178.443 179.883 178.252 179.203 178.242C179.135 178.234 179.066 178.241 179.001 178.264C178.936 178.287 178.876 178.323 178.828 178.372C178.666 178.596 178.565 178.857 178.533 179.131C178.501 179.405 178.539 179.682 178.645 179.937C177.888 179.311 177.158 178.675 176.417 178.043C176.099 177.767 175.572 178.148 175.828 178.372C177.095 179.483 178.337 180.595 179.735 181.654C180.095 181.93 180.476 181.685 180.32 181.268C180.189 180.934 179.72 180.678 179.511 180.381C179.39 180.237 179.317 180.059 179.303 179.872C179.289 179.684 179.334 179.497 179.433 179.337C179.506 179.257 179.596 179.193 179.695 179.15C179.795 179.107 179.903 179.085 180.012 179.087C180.228 179.09 180.442 179.132 180.643 179.212C180.941 179.316 181.984 180.104 181.953 179.374C181.929 178.664 181.859 177.956 181.744 177.255C181.655 176.949 181.655 176.623 181.744 176.316C181.802 176.179 181.895 176.059 182.013 175.968C182.13 175.876 182.27 175.817 182.417 175.795C182.564 175.775 182.713 175.785 182.856 175.824C182.998 175.864 183.131 175.932 183.247 176.024C183.81 176.468 184.113 177.104 184.645 177.589C185.029 177.947 185.468 178.241 185.944 178.461C187.989 179.358 190.353 178.289 190.473 176.979C190.52 176.697 189.941 176.765 189.868 176.979Z" fill="#455A64"/>
</g>
</svg>
