<svg width="363" height="270" viewBox="0 0 363 270" fill="none" xmlns="http://www.w3.org/2000/svg">
<g clip-path="url(#clip0_20080_5958)">
<path d="M341.488 243.65C338.11 243.65 334.87 244.996 332.482 247.391C330.093 249.786 328.751 253.034 328.751 256.421C328.751 259.808 330.093 263.056 332.482 265.451C334.87 267.846 338.11 269.191 341.488 269.191C344.866 269.191 348.106 267.846 350.495 265.451C352.883 263.056 354.225 259.808 354.225 256.421C354.225 253.034 352.883 249.786 350.495 247.391C348.106 244.996 344.866 243.65 341.488 243.65Z" fill="#CCCCCC"/>
<path d="M340.28 261.725C339.945 261.725 339.618 261.616 339.35 261.415L339.333 261.402L335.831 258.716C335.668 258.591 335.532 258.436 335.43 258.258C335.327 258.081 335.261 257.885 335.234 257.681C335.207 257.478 335.221 257.272 335.274 257.074C335.326 256.876 335.418 256.69 335.542 256.527C335.666 256.365 335.822 256.228 335.999 256.125C336.176 256.023 336.371 255.956 336.574 255.929C336.776 255.903 336.982 255.916 337.18 255.969C337.378 256.022 337.563 256.114 337.725 256.239L339.994 257.983L345.355 250.97C345.479 250.808 345.634 250.671 345.811 250.569C345.988 250.466 346.183 250.4 346.386 250.373C346.589 250.346 346.794 250.359 346.992 250.412C347.189 250.465 347.374 250.557 347.536 250.681L347.537 250.682L347.504 250.728L347.538 250.682C347.865 250.934 348.079 251.306 348.133 251.716C348.187 252.126 348.076 252.541 347.826 252.869L341.52 261.114C341.374 261.304 341.186 261.458 340.971 261.563C340.757 261.669 340.521 261.723 340.281 261.723L340.28 261.725Z" fill="white"/>
<path d="M313.757 264.084L307.726 264.084L304.858 240.762L313.759 240.763L313.757 264.084Z" fill="#FFB8B8"/>
<path d="M303.418 262.357H315.048V269.699H296.095C296.095 268.735 296.284 267.781 296.652 266.89C297.02 265.999 297.56 265.19 298.24 264.508C298.92 263.826 299.727 263.285 300.615 262.916C301.504 262.547 302.456 262.357 303.418 262.357Z" fill="#2F2E41"/>
<path d="M289.755 264.084L283.724 264.084L280.856 240.762L289.757 240.763L289.755 264.084Z" fill="#FFB8B8"/>
<path d="M279.416 262.357H291.046V269.699H272.093C272.093 268.735 272.282 267.781 272.65 266.89C273.018 265.999 273.558 265.19 274.238 264.508C274.918 263.826 275.725 263.285 276.613 262.916C277.502 262.547 278.454 262.357 279.416 262.357Z" fill="#2F2E41"/>
<path d="M318.402 183.456C317.916 182.918 317.554 182.281 317.341 181.588C317.129 180.895 317.07 180.164 317.169 179.445C317.268 178.727 317.524 178.04 317.917 177.431C318.31 176.823 318.831 176.308 319.444 175.923L317.576 164.746L324.074 161.951L326.491 177.773C327.067 178.848 327.23 180.098 326.949 181.286C326.667 182.473 325.961 183.516 324.964 184.217C323.967 184.917 322.748 185.227 321.539 185.086C320.329 184.946 319.213 184.366 318.402 183.456Z" fill="#FFB8B8"/>
<path d="M267.529 178.174C268.097 177.724 268.559 177.155 268.883 176.507C269.207 175.859 269.386 175.148 269.406 174.423C269.426 173.698 269.288 172.978 269 172.313C268.713 171.647 268.283 171.053 267.742 170.572L271.426 159.858L265.478 156.025L260.488 171.229C259.742 172.194 259.376 173.4 259.458 174.618C259.539 175.836 260.064 176.981 260.932 177.837C261.8 178.693 262.951 179.201 264.167 179.263C265.383 179.325 266.579 178.937 267.529 178.174Z" fill="#FFB8B8"/>
<path d="M298.415 99.2421C305.571 99.2421 311.372 93.4262 311.372 86.2519C311.372 79.0776 305.571 73.2617 298.415 73.2617C291.26 73.2617 285.459 79.0776 285.459 86.2519C285.459 93.4262 291.26 99.2421 298.415 99.2421Z" fill="#FFB8B8"/>
<path d="M267.129 170.158C266.907 170.158 266.686 170.127 266.472 170.065L262.696 168.978C262.093 168.803 261.583 168.396 261.278 167.846C260.973 167.296 260.897 166.648 261.067 166.042L268.861 138.454L279.729 111.705C280.809 109.046 283.067 107.302 285.621 107.154C286.787 107.097 287.945 107.38 288.954 107.969C289.963 108.558 290.78 109.428 291.306 110.473C291.891 111.592 292.212 112.831 292.245 114.093C292.277 115.356 292.021 116.609 291.495 117.757L279.142 144.841L269.322 168.686C269.143 169.121 268.839 169.494 268.448 169.756C268.058 170.018 267.599 170.158 267.129 170.158Z" fill="#1E7944"/>
<path d="M305.727 97.1446L298.528 97.2729C297.779 97.2877 297.036 97.1256 296.36 96.7998C295.684 96.4739 295.094 95.9933 294.637 95.3969C294.181 94.8004 293.87 94.1046 293.731 93.3658C293.592 92.6269 293.628 91.8656 293.836 91.1432C293.99 90.6212 294.105 90.0886 294.182 89.5497C294.262 88.9621 294.278 88.3672 294.229 87.7761C294.183 87.1841 293.938 86.6253 293.534 86.1911C293.13 85.757 292.591 85.4734 292.005 85.3868C291.419 85.3003 290.822 85.4158 290.31 85.7146C289.798 86.0134 289.403 86.4776 289.189 87.0312C287.978 87.0485 285.4 86.6529 284.189 86.6701C281.619 80.0644 287.22 71.4204 293.249 68.1738C299.395 64.864 307.373 68.2313 309.729 75.1296C312.999 75.1885 315.655 78.4218 316.077 82.0615C316.498 85.7011 315.005 89.5016 312.72 92.2912C310.435 95.0808 307.436 97.1141 305.727 97.1446Z" fill="#2F2E41"/>
<path d="M282.064 261.907C281.48 261.904 280.919 261.686 280.485 261.295C280.051 260.904 279.775 260.367 279.71 259.786L277.039 169.75L310.688 172.151L310.714 172.368C318.318 236.186 315.718 258.277 315.691 258.493C315.672 258.82 315.587 259.139 315.44 259.431C315.292 259.722 315.087 259.981 314.836 260.189C314.584 260.398 314.293 260.552 313.979 260.643C313.666 260.733 313.337 260.758 313.014 260.716L305.578 260.894C305.014 260.831 304.492 260.566 304.106 260.149C303.72 259.733 303.495 259.191 303.473 258.622L296.525 193.41C296.482 193.241 296.381 193.092 296.24 192.99C296.098 192.888 295.926 192.839 295.752 192.851C295.573 192.851 295.399 192.913 295.261 193.026C295.122 193.14 295.028 193.298 294.993 193.474L292.308 258.9C292.337 259.507 292.132 260.102 291.735 260.562C291.338 261.022 290.78 261.311 290.177 261.37L282.3 261.895C282.221 261.903 282.142 261.907 282.064 261.907Z" fill="#2F2E41"/>
<path d="M296.026 180.509C295.825 180.509 295.624 180.506 295.422 180.499C285.747 180.207 278.177 172.868 276.087 170.625C275.821 170.339 275.63 169.992 275.53 169.614C275.431 169.236 275.426 168.839 275.517 168.458L281.099 144.783L279.618 124.2C279.385 121.343 279.759 118.47 280.714 115.768C281.669 113.067 283.184 110.599 285.16 108.527C286.806 106.784 288.806 105.416 291.026 104.515C293.245 103.615 295.632 103.204 298.024 103.309C307.443 103.76 314.873 112.201 314.941 122.525C315.045 138.516 314.575 139.615 314.421 139.976C309.72 150.975 312.288 166.415 313.186 170.885C313.267 171.284 313.244 171.697 313.121 172.084C312.997 172.472 312.777 172.821 312.481 173.1C307.311 178.018 301.778 180.508 296.026 180.509Z" fill="#1E7944"/>
<path d="M320.326 174.49C319.789 174.49 319.268 174.307 318.849 173.971C318.429 173.635 318.135 173.167 318.016 172.642L312.257 147.489L304.539 118.74C304.209 117.521 304.163 116.243 304.403 115.003C304.643 113.763 305.164 112.595 305.925 111.588C306.616 110.645 307.565 109.923 308.658 109.509C309.75 109.095 310.938 109.007 312.079 109.256C314.574 109.825 316.513 111.919 317.141 114.72L323.447 142.873L326.592 171.402C326.66 172.028 326.478 172.655 326.087 173.147C325.695 173.639 325.125 173.955 324.502 174.028L320.598 174.474C320.508 174.485 320.417 174.49 320.326 174.49Z" fill="#1E7944"/>
<path d="M154.561 27.5024H13.7154C10.0778 27.5024 6.58925 26.0537 4.01712 23.4748C1.445 20.896 0 17.3983 0 13.7512C0 10.1042 1.445 6.60649 4.01712 4.02764C6.58925 1.44878 10.0778 0 13.7154 0H154.561C158.199 0 161.688 1.44878 164.26 4.02764C166.832 6.60649 168.277 10.1042 168.277 13.7512C168.277 17.3983 166.832 20.896 164.26 23.4748C161.688 26.0537 158.199 27.5024 154.561 27.5024Z" fill="#E6E6E6"/>
<path d="M13.7149 4.49609C11.2665 4.49609 8.91848 5.47123 7.18724 7.207C5.456 8.94277 4.4834 11.297 4.4834 13.7517C4.4834 16.2065 5.456 18.5607 7.18724 20.2964C8.91848 22.0322 11.2665 23.0074 13.7149 23.0074H154.561C157.009 23.0074 159.357 22.0322 161.089 20.2964C162.82 18.5607 163.793 16.2065 163.793 13.7517C163.793 11.297 162.82 8.94277 161.089 7.207C159.357 5.47123 157.009 4.49609 154.561 4.49609H13.7149Z" fill="white"/>
<path d="M204.335 0.888672C200.957 0.888659 197.717 2.2341 195.328 4.62902C192.94 7.02394 191.598 10.2722 191.598 13.6591C191.598 17.046 192.94 20.2943 195.328 22.6892C197.717 25.0841 200.957 26.4296 204.335 26.4296C207.713 26.4296 210.953 25.0842 213.341 22.6892C215.73 20.2943 217.072 17.0461 217.072 13.6591C217.072 10.2722 215.73 7.02399 213.341 4.62906C210.953 2.23413 207.713 0.888672 204.335 0.888672Z" fill="#1E7944"/>
<path d="M203.126 18.9628C202.79 18.9634 202.464 18.8546 202.196 18.6529L202.179 18.6404L198.676 15.9539C198.514 15.8293 198.378 15.6738 198.276 15.4963C198.173 15.3189 198.107 15.1229 198.08 14.9197C198.053 14.7165 198.066 14.5099 198.119 14.3119C198.172 14.1138 198.263 13.9281 198.388 13.7655C198.512 13.6028 198.667 13.4662 198.844 13.3637C199.021 13.2611 199.217 13.1945 199.419 13.1677C199.622 13.1409 199.828 13.1544 200.026 13.2075C200.223 13.2605 200.408 13.352 200.571 13.4768L202.839 15.2212L208.201 8.20853C208.325 8.04595 208.48 7.9095 208.657 7.807C208.834 7.70449 209.029 7.63792 209.232 7.61109C209.434 7.58426 209.64 7.5977 209.838 7.65064C210.035 7.70358 210.22 7.79499 210.382 7.91963L210.383 7.91997L210.349 7.96629L210.383 7.91997C210.711 8.17206 210.925 8.54398 210.979 8.95411C211.033 9.36424 210.922 9.77909 210.671 10.1076L204.365 18.3523C204.219 18.5423 204.032 18.696 203.817 18.8016C203.602 18.9071 203.366 18.9617 203.127 18.961L203.126 18.9628Z" fill="white"/>
<path d="M154.561 74.0454H13.7154C10.0778 74.0454 6.58925 72.5966 4.01712 70.0178C1.445 67.4389 0 63.9412 0 60.2942C0 56.6471 1.445 53.1495 4.01712 50.5706C6.58925 47.9918 10.0778 46.543 13.7154 46.543H154.561C158.199 46.543 161.688 47.9918 164.26 50.5706C166.832 53.1495 168.277 56.6471 168.277 60.2942C168.277 63.9412 166.832 67.4389 164.26 70.0178C161.688 72.5966 158.199 74.0454 154.561 74.0454Z" fill="#E6E6E6"/>
<path d="M13.7149 51.0391C11.2665 51.0391 8.91848 52.0142 7.18724 53.75C5.456 55.4857 4.4834 57.8399 4.4834 60.2947C4.4834 62.7494 5.456 65.1036 7.18724 66.8394C8.91848 68.5752 11.2665 69.5503 13.7149 69.5503H154.561C157.009 69.5503 159.357 68.5752 161.089 66.8394C162.82 65.1036 163.793 62.7494 163.793 60.2947C163.793 57.8399 162.82 55.4857 161.089 53.75C159.357 52.0142 157.009 51.0391 154.561 51.0391H13.7149Z" fill="white"/>
<path d="M204.335 47.4316C200.957 47.4316 197.717 48.7771 195.328 51.172C192.94 53.5669 191.598 56.8151 191.598 60.2021C191.598 63.589 192.94 66.8372 195.328 69.2322C197.717 71.6271 200.957 72.9726 204.335 72.9726C207.713 72.9726 210.953 71.6271 213.341 69.2322C215.73 66.8373 217.072 63.5891 217.072 60.2021C217.072 56.8152 215.73 53.567 213.341 51.172C210.953 48.7771 207.713 47.4316 204.335 47.4316Z" fill="#1E7944"/>
<path d="M203.126 65.5058C202.79 65.5064 202.464 65.3976 202.196 65.1959L202.179 65.1834L198.676 62.4969C198.514 62.3722 198.378 62.2168 198.276 62.0393C198.173 61.8618 198.107 61.6659 198.08 61.4627C198.053 61.2594 198.066 61.0529 198.119 60.8548C198.172 60.6568 198.263 60.4711 198.388 60.3084C198.512 60.1457 198.667 60.0092 198.844 59.9066C199.021 59.8041 199.217 59.7375 199.419 59.7107C199.622 59.6839 199.828 59.6974 200.026 59.7504C200.223 59.8035 200.408 59.895 200.571 60.0198L202.839 61.7642L208.201 54.7515C208.325 54.5889 208.48 54.4525 208.657 54.35C208.834 54.2474 209.029 54.1809 209.232 54.1541C209.434 54.1272 209.64 54.1407 209.838 54.1936C210.035 54.2466 210.22 54.338 210.382 54.4626L210.383 54.4629L210.349 54.5093L210.383 54.4629C210.711 54.715 210.925 55.0869 210.979 55.4971C211.033 55.9072 210.922 56.3221 210.671 56.6506L204.365 64.8953C204.219 65.0853 204.032 65.239 203.817 65.3446C203.602 65.4501 203.366 65.5046 203.127 65.5039L203.126 65.5058Z" fill="white"/>
<path d="M154.561 120.588H13.7154C10.0778 120.588 6.58925 119.14 4.01712 116.561C1.445 113.982 0 110.484 0 106.837C0 103.19 1.445 99.6924 4.01712 97.1136C6.58925 94.5347 10.0778 93.0859 13.7154 93.0859H154.561C158.199 93.0859 161.688 94.5347 164.26 97.1136C166.832 99.6924 168.277 103.19 168.277 106.837C168.277 110.484 166.832 113.982 164.26 116.561C161.688 119.14 158.199 120.588 154.561 120.588Z" fill="#E6E6E6"/>
<path d="M13.7149 97.5801C11.2665 97.5801 8.91848 98.5552 7.18724 100.291C5.456 102.027 4.4834 104.381 4.4834 106.836C4.4834 109.29 5.456 111.645 7.18724 113.38C8.91848 115.116 11.2665 116.091 13.7149 116.091H154.561C157.009 116.091 159.357 115.116 161.089 113.38C162.82 111.645 163.793 109.29 163.793 106.836C163.793 104.381 162.82 102.027 161.089 100.291C159.357 98.5552 157.009 97.5801 154.561 97.5801H13.7149Z" fill="white"/>
<path d="M204.335 93.9746C200.957 93.9746 197.717 95.32 195.328 97.715C192.94 100.11 191.598 103.358 191.598 106.745C191.598 110.132 192.94 113.38 195.328 115.775C197.717 118.17 200.957 119.516 204.335 119.516C207.713 119.516 210.953 118.17 213.341 115.775C215.73 113.38 217.072 110.132 217.072 106.745C217.072 103.358 215.73 100.11 213.341 97.715C210.953 95.3201 207.713 93.9746 204.335 93.9746Z" fill="#E6E6E6"/>
<path d="M362.472 269.999H252.222C252.082 269.999 251.948 269.943 251.849 269.844C251.75 269.745 251.694 269.611 251.694 269.47C251.694 269.33 251.75 269.196 251.849 269.096C251.948 268.997 252.082 268.941 252.222 268.941H362.472C362.612 268.941 362.746 268.997 362.845 269.096C362.944 269.196 363 269.33 363 269.47C363 269.611 362.944 269.745 362.845 269.844C362.746 269.943 362.612 269.999 362.472 269.999Z" fill="#CCCCCC"/>
</g>
<defs>
<clipPath id="clip0_20080_5958">
<rect width="363" height="270" fill="white"/>
</clipPath>
</defs>
</svg>
