<svg width="14" height="14" viewBox="0 0 14 14" fill="none" xmlns="http://www.w3.org/2000/svg">
<path d="M6.16978 8.12821C6.71589 8.12821 7.17881 7.93835 7.55853 7.55862C7.93825 7.1789 8.12812 6.71598 8.12812 6.16987C8.12812 5.6239 7.93825 5.16105 7.55853 4.78133C7.17881 4.40147 6.71589 4.21154 6.16978 4.21154C5.62381 4.21154 5.16096 4.40147 4.78124 4.78133C4.40138 5.16105 4.21145 5.6239 4.21145 6.16987C4.21145 6.71598 4.40138 7.1789 4.78124 7.55862C5.16096 7.93835 5.62381 8.12821 6.16978 8.12821ZM9.94541 10.7115L7.9102 8.64758C7.64631 8.81633 7.36916 8.95251 7.07874 9.05612C6.78832 9.15973 6.48798 9.21154 6.1777 9.21154C5.32839 9.21154 4.60784 8.9164 4.01603 8.32612C3.42409 7.73571 3.12811 7.01772 3.12811 6.17216C3.12811 5.32661 3.42332 4.60793 4.01374 4.01612C4.60416 3.42418 5.32214 3.12821 6.1677 3.12821C7.01311 3.12821 7.7318 3.42453 8.32374 4.01716C8.91555 4.60966 9.21145 5.33022 9.21145 6.17883C9.21145 6.48883 9.16096 6.78897 9.05999 7.07925C8.95902 7.36939 8.82416 7.6464 8.65541 7.91029L10.7114 9.93758L9.94541 10.7115ZM1.75645 13.5834C1.38131 13.5834 1.06423 13.4539 0.805198 13.1949C0.54617 12.9358 0.416656 12.6188 0.416656 12.2436V9.00008H1.49999V12.2436C1.49999 12.3078 1.52673 12.3665 1.5802 12.4199C1.63353 12.4733 1.69228 12.5001 1.75645 12.5001H4.99999V13.5834H1.75645ZM8.99999 13.5834V12.5001H12.2435C12.3077 12.5001 12.3664 12.4733 12.4198 12.4199C12.4733 12.3665 12.5 12.3078 12.5 12.2436V9.00008H13.5833V12.2436C13.5833 12.6188 13.4538 12.9358 13.1948 13.1949C12.9358 13.4539 12.6187 13.5834 12.2435 13.5834H8.99999ZM0.416656 5.00008V1.75654C0.416656 1.3814 0.54617 1.06432 0.805198 0.80529C1.06423 0.546262 1.38131 0.416748 1.75645 0.416748H4.99999V1.50008H1.75645C1.69228 1.50008 1.63353 1.52682 1.5802 1.58029C1.52673 1.63362 1.49999 1.69237 1.49999 1.75654V5.00008H0.416656ZM12.5 5.00008V1.75654C12.5 1.69237 12.4733 1.63362 12.4198 1.58029C12.3664 1.52682 12.3077 1.50008 12.2435 1.50008H8.99999V0.416748H12.2435C12.6187 0.416748 12.9358 0.546262 13.1948 0.80529C13.4538 1.06432 13.5833 1.3814 13.5833 1.75654V5.00008H12.5Z" fill="black"/>
</svg>
