<svg width="18" height="20" viewBox="0 0 18 20" fill="none" xmlns="http://www.w3.org/2000/svg">
<path d="M3 19.4039C2.30133 19.4039 1.71 19.1619 1.226 18.6779C0.742 18.1939 0.5 17.6041 0.5 16.9084V14.4039H3.5V0.596191L4.88475 1.78869L6.2885 0.596191L7.69225 1.78869L9.09625 0.596191L10.5 1.78869L11.9038 0.596191L13.3077 1.78869L14.7115 0.596191L16.1152 1.78869L17.5 0.596191V16.9039C17.5 17.6026 17.258 18.1939 16.774 18.6779C16.29 19.1619 15.6987 19.4039 15 19.4039H3ZM15 17.9039C15.2833 17.9039 15.5208 17.8081 15.7125 17.6164C15.9042 17.4248 16 17.1873 16 16.9039V2.90394H5V14.4039H14V16.9039C14 17.1873 14.0958 17.4248 14.2875 17.6164C14.4792 17.8081 14.7167 17.9039 15 17.9039ZM6.19225 6.65394V5.15394H11.8652V6.65394H6.19225ZM6.19225 9.65394V8.15394H11.8652V9.65394H6.19225ZM13.9423 6.78844C13.6974 6.78844 13.4888 6.70227 13.3163 6.52994C13.1439 6.35744 13.0577 6.14878 13.0577 5.90394C13.0577 5.65911 13.1439 5.45044 13.3163 5.27794C13.4888 5.10561 13.6974 5.01944 13.9423 5.01944C14.1871 5.01944 14.3958 5.10561 14.5682 5.27794C14.7407 5.45044 14.827 5.65911 14.827 5.90394C14.827 6.14878 14.7407 6.35744 14.5682 6.52994C14.3958 6.70227 14.1871 6.78844 13.9423 6.78844ZM13.9423 9.78844C13.6974 9.78844 13.4888 9.70228 13.3163 9.52994C13.1439 9.35744 13.0577 9.14877 13.0577 8.90394C13.0577 8.65911 13.1439 8.45044 13.3163 8.27794C13.4888 8.10561 13.6974 8.01944 13.9423 8.01944C14.1871 8.01944 14.3958 8.10561 14.5682 8.27794C14.7407 8.45044 14.827 8.65911 14.827 8.90394C14.827 9.14877 14.7407 9.35744 14.5682 9.52994C14.3958 9.70228 14.1871 9.78844 13.9423 9.78844ZM3 17.9039H12.5V15.9039H2V16.9039C2 17.1873 2.09583 17.4248 2.2875 17.6164C2.47917 17.8081 2.71667 17.9039 3 17.9039Z" fill="white"/>
</svg>
