<svg width="14" height="16" viewBox="0 0 14 16" fill="none" xmlns="http://www.w3.org/2000/svg">
<path d="M1.88802 15.5834C1.36135 15.5834 0.965798 15.4546 0.701354 15.1971C0.43691 14.9396 0.304688 14.5418 0.304688 14.0038V11.4167H2.30469V0.576904L3.40865 1.52899L4.52844 0.576904L5.64823 1.52899L6.76823 0.576904L7.88802 1.52899L9.00781 0.576904L10.1278 1.52899L11.2476 0.576904L12.3674 1.52899L13.4714 0.576904V13.75C13.4714 14.2906 13.2975 14.7313 12.9497 15.0721C12.6019 15.4129 12.1647 15.5834 11.638 15.5834H1.88802ZM11.638 14.5C11.8602 14.5 12.0408 14.4341 12.1797 14.3021C12.3186 14.1702 12.388 13.9861 12.388 13.75V2.50003H3.38802V11.4167H10.888V13.75C10.888 13.9861 10.9575 14.1702 11.0964 14.3021C11.2352 14.4341 11.4158 14.5 11.638 14.5ZM4.54823 5.2917V4.20836H8.77573V5.2917H4.54823ZM4.54823 7.7917V6.70836H8.77573V7.7917H4.54823ZM10.5899 5.40378C10.4275 5.40378 10.278 5.34038 10.1411 5.21357C10.0045 5.08663 9.93615 4.93357 9.93615 4.75441C9.93615 4.57524 10.0045 4.42072 10.1411 4.29086C10.278 4.16114 10.431 4.09628 10.6003 4.09628C10.7696 4.09628 10.9192 4.15968 11.0491 4.28649C11.1789 4.41343 11.2439 4.56649 11.2439 4.74565C11.2439 4.92482 11.18 5.07933 11.0522 5.2092C10.9244 5.33892 10.7703 5.40378 10.5899 5.40378ZM10.5899 7.90378C10.4275 7.90378 10.278 7.84038 10.1411 7.71357C10.0045 7.58663 9.93615 7.43357 9.93615 7.25441C9.93615 7.07524 10.0045 6.92072 10.1411 6.79086C10.278 6.66114 10.431 6.59628 10.6003 6.59628C10.7696 6.59628 10.9192 6.65968 11.0491 6.78649C11.1789 6.91343 11.2439 7.06649 11.2439 7.24565C11.2439 7.42482 11.18 7.57934 11.0522 7.7092C10.9244 7.83892 10.7703 7.90378 10.5899 7.90378ZM1.88802 14.5H9.80469V12.5H1.38802V14C1.38802 14.2361 1.41233 14.3785 1.46094 14.4271C1.50955 14.4757 1.65191 14.5 1.88802 14.5Z" fill="#666666"/>
</svg>
