<svg width="20" height="20" viewBox="0 0 20 20" fill="none" xmlns="http://www.w3.org/2000/svg">
<path fill-rule="evenodd" clip-rule="evenodd" d="M4.16667 3.25C3.92355 3.25 3.69039 3.34658 3.51849 3.51849C3.34658 3.69039 3.25 3.92355 3.25 4.16667V5.83333C3.25 6.24755 2.91421 6.58333 2.5 6.58333C2.08579 6.58333 1.75 6.24755 1.75 5.83333V4.16667C1.75 3.52573 2.00461 2.91104 2.45783 2.45783C2.91104 2.00461 3.52573 1.75 4.16667 1.75H5.83333C6.24755 1.75 6.58333 2.08579 6.58333 2.5C6.58333 2.91421 6.24755 3.25 5.83333 3.25H4.16667ZM13.4167 2.5C13.4167 2.08579 13.7525 1.75 14.1667 1.75H15.8333C16.4743 1.75 17.089 2.00461 17.5422 2.45783C17.9954 2.91104 18.25 3.52573 18.25 4.16667V5.83333C18.25 6.24755 17.9142 6.58333 17.5 6.58333C17.0858 6.58333 16.75 6.24755 16.75 5.83333V4.16667C16.75 3.92355 16.6534 3.69039 16.4815 3.51849C16.3096 3.34658 16.0764 3.25 15.8333 3.25H14.1667C13.7525 3.25 13.4167 2.91421 13.4167 2.5ZM6.09581 6.27646C7.25012 5.50081 8.6093 5.08656 10 5.08656C11.3907 5.08656 12.7499 5.50081 13.9042 6.27646C15.0585 7.05211 15.9556 8.15401 16.4811 9.44161C16.4859 9.45346 16.4904 9.46542 16.4947 9.4775C16.6129 9.81579 16.6129 10.1842 16.4947 10.5225C16.4904 10.5346 16.4859 10.5465 16.4811 10.5584C15.9556 11.846 15.0585 12.9479 13.9042 13.7235C12.7499 14.4992 11.3907 14.9134 10 14.9134C8.6093 14.9134 7.25012 14.4992 6.09581 13.7235C4.94151 12.9479 4.04441 11.846 3.51893 10.5584C3.5141 10.5465 3.50957 10.5346 3.50535 10.5225C3.38708 10.1842 3.38708 9.81579 3.50535 9.4775C3.50957 9.46542 3.5141 9.45346 3.51893 9.44161C4.04441 8.15401 4.94151 7.05211 6.09581 6.27646ZM10 6.58657C8.90731 6.58656 7.83938 6.91204 6.93243 7.52148C6.03342 8.12558 5.33298 8.98154 4.91866 9.98181C4.91598 9.99379 4.91598 10.0062 4.91866 10.0182C5.33298 11.0185 6.03342 11.8744 6.93243 12.4785C7.83938 13.088 8.90731 13.4134 10 13.4134C11.0927 13.4134 12.1606 13.088 13.0676 12.4785C13.9666 11.8744 14.667 11.0185 15.0813 10.0182C15.084 10.0062 15.084 9.99379 15.0813 9.98181C14.667 8.98154 13.9666 8.12558 13.0676 7.52148C12.1606 6.91204 11.0927 6.58656 10 6.58657ZM10 9.91667C9.95398 9.91667 9.91667 9.95398 9.91667 10C9.91667 10.046 9.95398 10.0833 10 10.0833C10.046 10.0833 10.0833 10.046 10.0833 10C10.0833 9.95398 10.046 9.91667 10 9.91667ZM8.41667 10C8.41667 9.12555 9.12555 8.41667 10 8.41667C10.8745 8.41667 11.5833 9.12555 11.5833 10C11.5833 10.8745 10.8745 11.5833 10 11.5833C9.12555 11.5833 8.41667 10.8745 8.41667 10ZM2.5 13.4167C2.91421 13.4167 3.25 13.7525 3.25 14.1667V15.8333C3.25 16.0764 3.34658 16.3096 3.51849 16.4815C3.69039 16.6534 3.92355 16.75 4.16667 16.75H5.83333C6.24755 16.75 6.58333 17.0858 6.58333 17.5C6.58333 17.9142 6.24755 18.25 5.83333 18.25H4.16667C3.52573 18.25 2.91104 17.9954 2.45783 17.5422C2.00461 17.089 1.75 16.4743 1.75 15.8333V14.1667C1.75 13.7525 2.08579 13.4167 2.5 13.4167ZM17.5 13.4167C17.9142 13.4167 18.25 13.7525 18.25 14.1667V15.8333C18.25 16.4743 17.9954 17.089 17.5422 17.5422C17.089 17.9954 16.4743 18.25 15.8333 18.25H14.1667C13.7525 18.25 13.4167 17.9142 13.4167 17.5C13.4167 17.0858 13.7525 16.75 14.1667 16.75H15.8333C16.0764 16.75 16.3096 16.6534 16.4815 16.4815C16.6534 16.3096 16.75 16.0764 16.75 15.8333V14.1667C16.75 13.7525 17.0858 13.4167 17.5 13.4167Z" fill="white"/>
</svg>
