<svg width="14" height="17" viewBox="0 0 14 17" fill="none" xmlns="http://www.w3.org/2000/svg">
<path d="M6.24999 16.4792C5.53416 16.3852 4.84131 16.1857 4.17145 15.8807C3.50159 15.5757 2.90173 15.1528 2.37187 14.6121L3.14582 13.8542C3.59027 14.2848 4.07638 14.625 4.60416 14.875C5.13193 15.125 5.68055 15.2917 6.24999 15.375V16.4792ZM7.74999 16.4792V15.3911C9.13888 15.1859 10.2778 14.5764 11.1667 13.5625C12.0555 12.5486 12.5 11.3403 12.5 9.93753C12.5 8.40976 11.9687 7.11462 10.9062 6.05212C9.84374 4.98962 8.5486 4.45837 7.02082 4.45837H6.21791L8.03041 6.25003L7.25645 7.02399L4.00332 3.7917L7.25645 0.538574L8.03041 1.29649L5.93103 3.37503H6.99999C7.91346 3.37503 8.76839 3.54358 9.56478 3.88066C10.3613 4.21774 11.0582 4.68489 11.6554 5.28212C12.2526 5.87934 12.7233 6.57621 13.0673 7.37274C13.4113 8.16913 13.5833 9.02406 13.5833 9.93753C13.5833 11.6502 13.0283 13.124 11.9183 14.359C10.8082 15.594 9.41874 16.3007 7.74999 16.4792ZM1.42957 13.4615C1.06416 12.8845 0.804018 12.275 0.649157 11.6329C0.494157 10.9909 0.416656 10.3424 0.416656 9.68753H1.50478C1.5102 10.2067 1.56978 10.715 1.68353 11.2123C1.79728 11.7097 1.9861 12.1875 2.24999 12.6459L1.42957 13.4615ZM0.645823 8.18753C0.798601 7.64698 1.01631 7.13121 1.29895 6.64024C1.58145 6.14941 1.93055 5.69885 2.34624 5.28857L3.10416 6.0417C2.78471 6.36114 2.5195 6.7001 2.30853 7.05857C2.09756 7.41705 1.92686 7.79337 1.79645 8.18753H0.645823Z" fill="black"/>
</svg>
