<svg width="14" height="17" viewBox="0 0 14 17" fill="none" xmlns="http://www.w3.org/2000/svg">
<path d="M7.74999 16.4792V15.375C8.31943 15.2917 8.86805 15.125 9.39582 14.875C9.9236 14.625 10.4097 14.2848 10.8542 13.8542L11.6281 14.6121C11.0983 15.1528 10.4984 15.5757 9.82853 15.8807C9.15867 16.1857 8.46582 16.3852 7.74999 16.4792ZM6.24999 16.4792C4.58124 16.3007 3.1918 15.594 2.08166 14.359C0.971656 13.124 0.416656 11.6502 0.416656 9.93753C0.416656 9.02406 0.58867 8.16913 0.932698 7.37274C1.27673 6.57621 1.74735 5.87934 2.34457 5.28212C2.9418 4.68489 3.63867 4.21774 4.4352 3.88066C5.23159 3.54358 6.08652 3.37503 6.99999 3.37503H8.06895L5.96957 1.29649L6.74353 0.538574L9.99666 3.7917L6.74353 7.02399L5.96957 6.25003L7.78207 4.45837H6.97916C5.45138 4.45837 4.15624 4.98962 3.09374 6.05212C2.03124 7.11462 1.49999 8.40976 1.49999 9.93753C1.49999 11.3403 1.94443 12.5486 2.83332 13.5625C3.72221 14.5764 4.8611 15.1859 6.24999 15.3911V16.4792ZM12.5704 13.4615L11.75 12.6459C12.0139 12.1875 12.2027 11.7097 12.3164 11.2123C12.4302 10.715 12.4898 10.2067 12.4952 9.68753H13.5833C13.5833 10.3424 13.5058 10.9909 13.3508 11.6329C13.196 12.275 12.9358 12.8845 12.5704 13.4615ZM13.3542 8.18753H12.2035C12.0731 7.79337 11.9024 7.41705 11.6914 7.05857C11.4805 6.7001 11.2153 6.36114 10.8958 6.0417L11.6537 5.28857C12.0694 5.69885 12.4185 6.14941 12.701 6.64024C12.9837 7.13121 13.2014 7.64698 13.3542 8.18753Z" fill="black"/>
</svg>
