<svg width="24" height="24" viewBox="0 0 24 24" fill="none" xmlns="http://www.w3.org/2000/svg">
<mask id="mask0_16363_355" style="mask-type:alpha" maskUnits="userSpaceOnUse" x="0" y="0" width="24" height="24">
<rect width="24" height="24" fill="#D9D9D9"/>
</mask>
<g mask="url(#mask0_16363_355)">
<path d="M10.5174 21.0999L9.98658 18.4037C9.55196 18.2473 9.11061 18.0466 8.66253 17.8018C8.21445 17.5569 7.81284 17.2755 7.45771 16.9575L4.86156 17.8248L3.37891 15.2499L5.41928 13.4557C5.37953 13.2236 5.34651 12.9867 5.32023 12.7451C5.29395 12.5034 5.28081 12.2582 5.28081 12.0095C5.28081 11.7672 5.29395 11.5268 5.32023 11.2883C5.34651 11.0499 5.37953 10.8018 5.41928 10.5441L3.37891 8.74988L4.86156 6.19415L7.44808 7.05185C7.82245 6.72749 8.22566 6.44447 8.65771 6.2028C9.08977 5.96112 9.52952 5.75887 9.97696 5.59605L10.5174 2.8999H13.4827L14.0134 5.60568C14.4801 5.78131 14.9182 5.98355 15.3279 6.2124C15.7375 6.44125 16.1327 6.72107 16.5135 7.05185L19.1385 6.19415L20.6211 8.74988L18.5423 10.5729C18.5948 10.8178 18.6311 11.0563 18.6509 11.2883C18.6708 11.5204 18.6807 11.7576 18.6807 11.9999C18.6807 12.2358 18.6692 12.4698 18.6461 12.7018C18.623 12.9339 18.5916 13.1819 18.5519 13.4461L20.6115 15.2499L19.1288 17.8248L16.5135 16.9479C16.1327 17.2787 15.7343 17.5617 15.3183 17.797C14.9022 18.0322 14.4673 18.2313 14.0134 18.3941L13.4827 21.0999H10.5174ZM11.55 19.7999H12.4404L12.925 17.296C13.5519 17.1794 14.1308 16.9691 14.6615 16.6653C15.1923 16.3614 15.6705 15.9582 16.0962 15.4557L18.5058 16.2749L18.9654 15.5249L17.0462 13.8403C17.1462 13.5313 17.2237 13.2274 17.2789 12.9287C17.334 12.63 17.3615 12.3204 17.3615 11.9999C17.3615 11.673 17.334 11.3633 17.2789 11.071C17.2237 10.7787 17.1462 10.4813 17.0462 10.1787L18.9846 8.47488L18.525 7.72488L16.0865 8.5345C15.7186 8.0768 15.2468 7.68161 14.6712 7.34893C14.0955 7.01623 13.5102 6.80116 12.9154 6.70373L12.45 4.19988H11.5404L11.0846 6.6941C10.4577 6.79795 9.87404 7.0034 9.33366 7.31045C8.79327 7.6175 8.31026 8.02552 7.88463 8.5345L5.47501 7.72488L5.01538 8.47488L6.92501 10.1595C6.82501 10.43 6.74584 10.7226 6.68751 11.0374C6.62917 11.3521 6.60001 11.6762 6.60001 12.0095C6.60001 12.3364 6.62917 12.654 6.68751 12.9624C6.74584 13.2707 6.8218 13.5633 6.91538 13.8403L5.01538 15.5249L5.47501 16.2749L7.87501 15.4749C8.28782 15.9646 8.76442 16.363 9.30481 16.6701C9.84519 16.9771 10.4353 17.189 11.075 17.3057L11.55 19.7999ZM11.9615 15.0999C12.8269 15.0999 13.5599 14.7995 14.1606 14.1989C14.7612 13.5983 15.0615 12.8652 15.0615 11.9999C15.0615 11.1345 14.7612 10.4015 14.1606 9.80085C13.5599 9.20022 12.8269 8.8999 11.9615 8.8999C11.1026 8.8999 10.3712 9.20022 9.76733 9.80085C9.1635 10.4015 8.86158 11.1345 8.86158 11.9999C8.86158 12.8652 9.1635 13.5983 9.76733 14.1989C10.3712 14.7995 11.1026 15.0999 11.9615 15.0999Z" fill="#F6F6F6"/>
</g>
</svg>
