<svg width="18" height="18" viewBox="0 0 18 18" fill="none" xmlns="http://www.w3.org/2000/svg">
<path d="M8.5 0.288675C8.8094 0.110043 9.1906 0.110042 9.5 0.288675L16.2942 4.21132C16.6036 4.38996 16.7942 4.72008 16.7942 5.07735V12.9226C16.7942 13.2799 16.6036 13.61 16.2942 13.7887L9.5 17.7113C9.1906 17.89 8.8094 17.89 8.5 17.7113L1.70577 13.7887C1.39637 13.61 1.20577 13.2799 1.20577 12.9226V5.07735C1.20577 4.72009 1.39637 4.38996 1.70577 4.21132L8.5 0.288675Z" fill="url(#paint0_linear_20715_8672)"/>
<path d="M6.121 7.156C6.17233 6.48133 6.43267 5.95333 6.902 5.572C7.37133 5.19067 7.98 5 8.728 5C9.22667 5 9.65567 5.09167 10.015 5.275C10.3817 5.451 10.6567 5.693 10.84 6.001C11.0307 6.309 11.126 6.65733 11.126 7.046C11.126 7.50067 10.994 7.893 10.73 8.223C10.4733 8.553 10.136 8.76567 9.718 8.861V8.916C10.1947 9.03333 10.5723 9.26433 10.851 9.609C11.1297 9.95367 11.269 10.4047 11.269 10.962C11.269 11.38 11.1737 11.7577 10.983 12.095C10.7923 12.425 10.5063 12.6853 10.125 12.876C9.74367 13.0667 9.28533 13.162 8.75 13.162C7.97267 13.162 7.33467 12.9603 6.836 12.557C6.33733 12.1463 6.05867 11.567 6 10.819H6.968C7.01933 11.259 7.199 11.6183 7.507 11.897C7.815 12.1757 8.22567 12.315 8.739 12.315C9.25233 12.315 9.641 12.183 9.905 11.919C10.1763 11.6477 10.312 11.2993 10.312 10.874C10.312 10.324 10.1287 9.928 9.762 9.686C9.39533 9.444 8.84167 9.323 8.101 9.323H7.848V8.487H8.112C8.78667 8.47967 9.29633 8.36967 9.641 8.157C9.98567 7.937 10.158 7.59967 10.158 7.145C10.158 6.75633 10.0297 6.44467 9.773 6.21C9.52367 5.97533 9.16433 5.858 8.695 5.858C8.24033 5.858 7.87367 5.97533 7.595 6.21C7.31633 6.44467 7.15133 6.76 7.1 7.156H6.121Z" fill="white"/>
<defs>
<linearGradient id="paint0_linear_20715_8672" x1="9" y1="0" x2="9" y2="18" gradientUnits="userSpaceOnUse">
<stop stop-color="#979797"/>
<stop offset="1" stop-color="#343434"/>
</linearGradient>
</defs>
</svg>
