<svg width="18" height="18" viewBox="0 0 18 18" fill="none" xmlns="http://www.w3.org/2000/svg">
<path d="M8.5 0.288675C8.8094 0.110043 9.1906 0.110042 9.5 0.288675L16.2942 4.21132C16.6036 4.38996 16.7942 4.72008 16.7942 5.07735V12.9226C16.7942 13.2799 16.6036 13.61 16.2942 13.7887L9.5 17.7113C9.1906 17.89 8.8094 17.89 8.5 17.7113L1.70577 13.7887C1.39637 13.61 1.20577 13.2799 1.20577 12.9226V5.07735C1.20577 4.72009 1.39637 4.38996 1.70577 4.21132L8.5 0.288675Z" fill="url(#paint0_linear_20715_8694)"/>
<path d="M6 12.293C6.93133 11.545 7.661 10.9327 8.189 10.456C8.717 9.972 9.16067 9.46967 9.52 8.949C9.88667 8.421 10.07 7.904 10.07 7.398C10.07 6.92133 9.95267 6.54733 9.718 6.276C9.49067 5.99733 9.12033 5.858 8.607 5.858C8.10833 5.858 7.71967 6.01567 7.441 6.331C7.16967 6.639 7.023 7.05333 7.001 7.574H6.033C6.06233 6.75267 6.31167 6.11833 6.781 5.671C7.25033 5.22367 7.85533 5 8.596 5C9.35133 5 9.949 5.209 10.389 5.627C10.8363 6.045 11.06 6.62067 11.06 7.354C11.06 7.96267 10.8767 8.55667 10.51 9.136C10.1507 9.708 9.74 10.214 9.278 10.654C8.816 11.0867 8.22567 11.5927 7.507 12.172H11.291V13.008H6V12.293Z" fill="white"/>
<defs>
<linearGradient id="paint0_linear_20715_8694" x1="9" y1="0" x2="9" y2="18" gradientUnits="userSpaceOnUse">
<stop stop-color="#979797"/>
<stop offset="1" stop-color="#343434"/>
</linearGradient>
</defs>
</svg>
