<svg width="18" height="18" viewBox="0 0 18 18" fill="none" xmlns="http://www.w3.org/2000/svg">
<path d="M8.5 0.288675C8.8094 0.110043 9.1906 0.110042 9.5 0.288675L16.2942 4.21132C16.6036 4.38996 16.7942 4.72008 16.7942 5.07735V12.9226C16.7942 13.2799 16.6036 13.61 16.2942 13.7887L9.5 17.7113C9.1906 17.89 8.8094 17.89 8.5 17.7113L1.70577 13.7887C1.39637 13.61 1.20577 13.2799 1.20577 12.9226V5.07735C1.20577 4.72009 1.39637 4.38996 1.70577 4.21132L8.5 0.288675Z" fill="url(#paint0_linear_20715_8686)"/>
<path d="M8 5.913V5H10.068V12.953H9.056V5.913H8Z" fill="white"/>
<defs>
<linearGradient id="paint0_linear_20715_8686" x1="9" y1="0" x2="9" y2="18" gradientUnits="userSpaceOnUse">
<stop stop-color="#979797"/>
<stop offset="1" stop-color="#343434"/>
</linearGradient>
</defs>
</svg>
