<svg width="20" height="20" viewBox="0 0 20 20" fill="none" xmlns="http://www.w3.org/2000/svg">
<path fill-rule="evenodd" clip-rule="evenodd" d="M10 1.09873e-10C11.3132 -6.15562e-06 12.6136 0.258646 13.8269 0.76119C15.0401 1.26373 16.1425 2.00033 17.0711 2.92891C17.9997 3.8575 18.7363 4.95989 19.2388 6.17315C19.7414 7.3864 20 8.68676 20 9.99998C20 15.5228 15.5229 20 10 20C4.4772 20 3.05176e-05 15.5228 3.05176e-05 9.99998C3.05176e-05 4.47717 4.4772 1.09873e-10 10 1.09873e-10ZM11 11H9.00003C6.52433 11 4.39887 12.4994 3.48214 14.6398C4.93264 16.6737 7.31145 18 10 18C12.6886 18 15.0674 16.6737 16.5179 14.6396C15.6012 12.4994 13.4757 11 11 11ZM10 3C8.34317 3 7.00002 4.34316 7.00002 6C7.00002 7.65684 8.34317 9 10 9C11.6569 9 13 7.65684 13 6C13 4.34316 11.6569 3 10 3Z" fill="white"/>
</svg>
