<svg width="16" height="16" viewBox="0 0 16 16" fill="none" xmlns="http://www.w3.org/2000/svg">
<mask id="mask0_17429_8905" style="mask-type:alpha" maskUnits="userSpaceOnUse" x="0" y="0" width="16" height="16">
<rect width="16" height="16" fill="#D9D9D9"/>
</mask>
<g mask="url(#mask0_17429_8905)">
<path d="M5.18027 12.1795L5.06988 11.9971L4.86183 11.9505L3.0809 11.5514L3.24531 9.72948L3.26475 9.51406L3.12105 9.35238L1.91895 7.99988L3.12105 6.64738L3.26475 6.4857L3.24531 6.27028L3.0809 4.44836L4.86183 4.04928L5.06988 4.00266L5.18027 3.82025L6.12851 2.25332L7.80491 2.96875L8.00117 3.05251L8.19743 2.96875L9.87382 2.25332L10.8221 3.82025L10.9325 4.00266L11.1405 4.04928L12.9214 4.44836L12.757 6.27028L12.7376 6.4857L12.8813 6.64738L14.0834 7.99988L12.8813 9.35238L12.7376 9.51406L12.757 9.72948L12.9214 11.5514L11.1405 11.9505L10.9325 11.9971L10.8221 12.1795L9.87382 13.7464L8.19743 13.031L8.00117 12.9473L7.80491 13.031L6.12851 13.7464L5.18027 12.1795Z" stroke="#BC9509"/>
</g>
<path d="M8.00007 6V8.66667M8.01673 10V10.0333H7.9834V10H8.01673Z" stroke="#BC9509" stroke-linecap="round" stroke-linejoin="round"/>
</svg>
