<svg width="14" height="14" viewBox="0 0 14 14" fill="none" xmlns="http://www.w3.org/2000/svg">
<path d="M12.8894 13.6474L7.92625 8.66327C7.50959 8.9934 7.05271 9.24528 6.55563 9.41889C6.05855 9.5925 5.54556 9.67931 5.01667 9.67931C3.71695 9.67931 2.61202 9.22438 1.70188 8.31452C0.791739 7.40465 0.33667 6.30021 0.33667 5.00118C0.33667 3.70229 0.7916 2.59743 1.70146 1.6866C2.61132 0.775904 3.71577 0.320557 5.01479 0.320557C6.31368 0.320557 7.41854 0.775625 8.32938 1.68576C9.24007 2.5959 9.69542 3.70083 9.69542 5.00056C9.69542 5.54542 9.60598 6.06639 9.42709 6.56347C9.24806 7.0607 9.00577 7.50958 8.70021 7.91014L13.6633 12.8733L12.8894 13.6474ZM5.01604 8.59618C6.02035 8.59618 6.87077 8.24785 7.5673 7.55118C8.26396 6.85465 8.6123 6.00424 8.6123 4.99993C8.6123 3.99563 8.26396 3.14521 7.5673 2.44868C6.87077 1.75201 6.02035 1.40368 5.01604 1.40368C4.01174 1.40368 3.16132 1.75201 2.46479 2.44868C1.76813 3.14521 1.41979 3.99563 1.41979 4.99993C1.41979 6.00424 1.76813 6.85465 2.46479 7.55118C3.16132 8.24785 4.01174 8.59618 5.01604 8.59618ZM3.1123 5.5416V4.45826H6.9198V5.5416H3.1123Z" fill="black"/>
</svg>
